SplineFontDB: 3.0
FontName: Strobrod-Bold
FullName: Strobrod Bold
FamilyName: Strobrod
Weight: Bold
Copyright: CC, Aaron Christianson, Nicolas Mercier
Version: 001.000
ItalicAngle: 0
UnderlinePosition: -96
UnderlineWidth: 0
Ascent: 1152
Descent: 288
InvalidEm: 0
sfntRevision: 0x00010000
LayerCount: 2
Layer: 0 1 "Back" 1
Layer: 1 1 "Fore" 0
HasVMetrics: 1
XUID: [1021 68 1269985762 10194520]
BaseHoriz: 1 'romn'
BaseScript: 'latn' 0  0 { 'latn' -192 768}
StyleMap: 0x0020
FSType: 0
OS2Version: 4
OS2_WeightWidthSlopeOnly: 0
OS2_UseTypoMetrics: 1
CreationTime: 1490615230
ModificationTime: 1496063230
PfmFamily: 17
TTFWeight: 700
TTFWidth: 5
LineGap: 0
VLineGap: 0
Panose: 2 11 8 9 0 0 0 0 0 0
OS2TypoAscent: 768
OS2TypoAOffset: 0
OS2TypoDescent: -192
OS2TypoDOffset: 0
OS2TypoLinegap: 0
OS2WinAscent: 768
OS2WinAOffset: 0
OS2WinDescent: 192
OS2WinDOffset: 0
HheadAscent: 768
HheadAOffset: 0
HheadDescent: -192
HheadDOffset: 0
OS2SubXSize: 998
OS2SubYSize: 1075
OS2SubXOff: 0
OS2SubYOff: 215
OS2SupXSize: 998
OS2SupYSize: 1075
OS2SupXOff: 0
OS2SupYOff: 737
OS2StrikeYSize: 76
OS2StrikeYPos: 397
OS2CapHeight: 576
OS2XHeight: 480
OS2Vendor: 'PfEd'
OS2CodePages: 00000093.cd400000
OS2UnicodeRanges: 0000008f.0000f862.00000000.00000000
MarkAttachClasses: 1
DEI: 91125
ShortTable: cvt  2
  51
  749
EndShort
ShortTable: maxp 16
  1
  0
  546
  120
  29
  0
  0
  2
  0
  1
  1
  0
  64
  46
  0
  0
EndShort
LangName: 1033 "" "Str+APYA-br+APYA-d"
GaspTable: 2 0 5 65535 5 1
Encoding: UnicodeBmp
UnicodeInterp: none
NameList: AGL For New Fonts
DisplaySize: 10
AntiAlias: 0
FitToEm: 0
WinInfo: 38 38 23
BeginPrivate: 0
EndPrivate
BeginChars: 65539 546

StartChar: .notdef
Encoding: 65536 -1 0
Width: 561
VWidth: 1536
Flags: W
LayerCount: 2
Fore
SplineSet
51 0 m 1,0,-1
 51 800 l 1,1,-1
 459 800 l 1,2,-1
 459 0 l 1,3,-1
 51 0 l 1,0,-1
102 51 m 1,4,-1
 408 51 l 1,5,-1
 408 749 l 1,6,-1
 102 749 l 1,7,-1
 102 51 l 1,4,-1
EndSplineSet
EndChar

StartChar: exclam
Encoding: 33 33 34
Width: 576
VWidth: 0
Flags: W
LayerCount: 2
Fore
SplineSet
192 96 m 1,0,-1
 384 96 l 1,1,-1
 384 0 l 1,2,-1
 192 0 l 1,3,-1
 192 96 l 1,0,-1
192 576 m 1,4,-1
 384 576 l 1,5,-1
 384 192 l 1,6,-1
 192 192 l 1,7,-1
 192 576 l 1,4,-1
EndSplineSet
EndChar

StartChar: quotedbl
Encoding: 34 34 35
Width: 576
VWidth: 0
Flags: W
LayerCount: 2
Fore
SplineSet
384 672 m 1,0,-1
 480 672 l 1,1,-1
 480 480 l 1,2,-1
 384 480 l 1,3,-1
 384 672 l 1,0,-1
96 672 m 1,4,-1
 288 672 l 1,5,-1
 288 480 l 1,6,-1
 96 480 l 1,7,-1
 96 672 l 1,4,-1
EndSplineSet
EndChar

StartChar: numbersign
Encoding: 35 35 36
Width: 576
VWidth: 0
Flags: W
LayerCount: 2
Fore
SplineSet
288 384 m 1,0,-1
 288 288 l 1,1,-1
 288 288 l 1,2,-1
 384 288 l 1,3,-1
 384 288 l 1,4,-1
 384 384 l 1,5,-1
 384 384 l 1,6,-1
 288 384 l 1,7,-1
 288 384 l 1,0,-1
96 576 m 1,8,-1
 288 576 l 1,9,-1
 288 480 l 1,10,-1
 288 480 l 1,11,-1
 384 480 l 1,12,-1
 384 480 l 1,13,-1
 384 576 l 1,14,-1
 480 576 l 1,15,-1
 480 480 l 1,16,-1
 480 480 l 1,17,-1
 576 480 l 1,18,-1
 576 384 l 1,19,-1
 480 384 l 1,20,-1
 480 384 l 1,21,-1
 480 288 l 1,22,-1
 480 288 l 1,23,-1
 576 288 l 1,24,-1
 576 192 l 1,25,-1
 480 192 l 1,26,-1
 480 192 l 1,27,-1
 480 96 l 1,28,-1
 384 96 l 1,29,-1
 384 192 l 1,30,-1
 384 192 l 1,31,-1
 288 192 l 1,32,-1
 288 192 l 1,33,-1
 288 96 l 1,34,-1
 96 96 l 1,35,-1
 96 192 l 1,36,-1
 96 192 l 1,37,-1
 0 192 l 1,38,-1
 0 288 l 1,39,-1
 96 288 l 1,40,-1
 96 288 l 1,41,-1
 96 384 l 1,42,-1
 96 384 l 1,43,-1
 0 384 l 1,44,-1
 0 480 l 1,45,-1
 96 480 l 1,46,-1
 96 480 l 1,47,-1
 96 576 l 1,8,-1
EndSplineSet
EndChar

StartChar: dollar
Encoding: 36 36 37
Width: 574
VWidth: 0
Flags: W
LayerCount: 2
Fore
SplineSet
96 384 m 1,0,-1
 96 480 l 1,1,-1
 191 480 l 1,2,-1
 192 480 l 1,3,-1
 192 576 l 1,4,-1
 382 576 l 1,5,-1
 382 480 l 1,6,-1
 383 480 l 1,7,-1
 478 480 l 1,8,-1
 478 384 l 1,9,-1
 191 384 l 1,10,-1
 191 384 l 1,11,-1
 191 288 l 1,12,-1
 191 288 l 1,13,-1
 478 288 l 1,14,-1
 478 192 l 1,15,-1
 478 192 l 1,16,-1
 574 192 l 1,17,-1
 574 96 l 1,18,-1
 478 96 l 1,19,-1
 478 96 l 1,20,-1
 478 0 l 1,21,-1
 383 0 l 1,22,-1
 382 0 l 1,23,-1
 382 -96 l 1,24,-1
 192 -96 l 1,25,-1
 192 0 l 1,26,-1
 191 0 l 1,27,-1
 96 0 l 1,28,-1
 96 96 l 1,29,-1
 383 96 l 1,30,-1
 383 96 l 1,31,-1
 383 192 l 1,32,-1
 383 192 l 1,33,-1
 96 192 l 1,34,-1
 96 288 l 1,35,-1
 96 288 l 1,36,-1
 0 288 l 1,37,-1
 0 384 l 1,38,-1
 96 384 l 1,39,-1
 96 384 l 1,0,-1
EndSplineSet
EndChar

StartChar: percent
Encoding: 37 37 38
Width: 575
VWidth: 0
Flags: W
LayerCount: 2
Fore
SplineSet
384 96 m 1,0,-1
 384 192 l 1,1,-1
 479 192 l 1,2,-1
 479 96 l 1,3,-1
 384 96 l 1,0,-1
96 96 m 1,4,-1
 96 288 l 1,5,-1
 192 288 l 1,6,-1
 192 288 l 1,7,-1
 192 384 l 1,8,-1
 288 384 l 1,9,-1
 288 384 l 1,10,-1
 288 480 l 1,11,-1
 384 480 l 1,12,-1
 384 480 l 1,13,-1
 384 576 l 1,14,-1
 479 576 l 1,15,-1
 479 384 l 1,16,-1
 384 384 l 1,17,-1
 383 384 l 1,18,-1
 383 288 l 1,19,-1
 288 288 l 1,20,-1
 287 288 l 1,21,-1
 287 192 l 1,22,-1
 192 192 l 1,23,-1
 191 192 l 1,24,-1
 191 96 l 1,25,-1
 96 96 l 1,4,-1
96 480 m 1,26,-1
 96 576 l 1,27,-1
 191 576 l 1,28,-1
 191 480 l 1,29,-1
 96 480 l 1,26,-1
EndSplineSet
EndChar

StartChar: ampersand
Encoding: 38 38 39
Width: 576
VWidth: 0
Flags: W
LayerCount: 2
Fore
SplineSet
480 97 m 1,0,-1
 384 96 l 1,1,-1
 384 288 l 1,2,-1
 479 288 l 1,3,-1
 480 97 l 1,0,-1
480 288 m 1,4,-1
 480 384 l 1,5,-1
 576 384 l 1,6,-1
 576 288 l 1,7,-1
 480 288 l 1,4,-1
480 96 m 1,8,-1
 576 96 l 1,9,-1
 576 0 l 1,10,-1
 480 0 l 1,11,-1
 480 96 l 1,8,-1
384 96 m 1,12,-1
 384 0 l 1,13,-1
 192 0 l 1,14,-1
 192 96 l 1,15,-1
 192 96 l 1,16,-1
 96 96 l 1,17,-1
 96 288 l 1,18,-1
 192 288 l 1,19,-1
 192 288 l 1,20,-1
 192 576 l 1,21,-1
 288 576 l 1,22,-1
 288 576 l 1,23,-1
 288 672 l 1,24,-1
 480 672 l 1,25,-1
 480 576 l 1,26,-1
 384 576 l 1,27,-1
 384 576 l 1,28,-1
 384 288 l 1,29,-1
 288 288 l 1,30,-1
 288 288 l 1,31,-1
 288 96 l 1,32,-1
 288 96 l 1,33,-1
 384 96 l 1,12,-1
EndSplineSet
EndChar

StartChar: quotesingle
Encoding: 39 39 40
Width: 576
VWidth: 0
Flags: W
LayerCount: 2
Fore
SplineSet
192 672 m 1,0,-1
 384 672 l 1,1,-1
 384 480 l 1,2,-1
 192 480 l 1,3,-1
 192 672 l 1,0,-1
EndSplineSet
EndChar

StartChar: parenleft
Encoding: 40 40 41
Width: 576
VWidth: 0
Flags: W
LayerCount: 2
Fore
SplineSet
192 672 m 1,0,-1
 384 672 l 1,1,-1
 384 576 l 1,2,-1
 288 576 l 1,3,-1
 288 576 l 1,4,-1
 288 0 l 1,5,-1
 288 0 l 1,6,-1
 384 0 l 1,7,-1
 384 -96 l 1,8,-1
 192 -96 l 1,9,-1
 192 0 l 1,10,-1
 192 0 l 1,11,-1
 96 0 l 1,12,-1
 96 576 l 1,13,-1
 192 576 l 1,14,-1
 192 576 l 1,15,-1
 192 672 l 1,0,-1
EndSplineSet
EndChar

StartChar: parenright
Encoding: 41 41 42
Width: 576
VWidth: 0
Flags: W
LayerCount: 2
Fore
SplineSet
96 672 m 1,0,-1
 288 672 l 1,1,-1
 288 576 l 1,2,-1
 288 576 l 1,3,-1
 384 576 l 1,4,-1
 384 0 l 1,5,-1
 288 0 l 1,6,-1
 288 0 l 1,7,-1
 288 -96 l 1,8,-1
 96 -96 l 1,9,-1
 96 0 l 1,10,-1
 192 0 l 1,11,-1
 192 0 l 1,12,-1
 192 576 l 1,13,-1
 192 576 l 1,14,-1
 96 576 l 1,15,-1
 96 672 l 1,0,-1
EndSplineSet
EndChar

StartChar: asterisk
Encoding: 42 42 43
Width: 576
VWidth: 0
Flags: W
LayerCount: 2
Fore
SplineSet
0 480 m 1,0,-1
 192 480 l 1,1,-1
 192 480 l 1,2,-1
 192 576 l 1,3,-1
 384 576 l 1,4,-1
 384 480 l 1,5,-1
 384 480 l 1,6,-1
 576 480 l 1,7,-1
 576 384 l 1,8,-1
 480 384 l 1,9,-1
 480 384 l 1,10,-1
 480 288 l 1,11,-1
 480 288 l 1,12,-1
 576 288 l 1,13,-1
 576 192 l 1,14,-1
 384 192 l 1,15,-1
 384 192 l 1,16,-1
 384 96 l 1,17,-1
 192 96 l 1,18,-1
 192 192 l 1,19,-1
 192 192 l 1,20,-1
 0 192 l 1,21,-1
 0 288 l 1,22,-1
 96 288 l 1,23,-1
 96 288 l 1,24,-1
 96 384 l 1,25,-1
 96 384 l 1,26,-1
 0 384 l 1,27,-1
 0 480 l 1,0,-1
EndSplineSet
EndChar

StartChar: plus
Encoding: 43 43 44
Width: 576
VWidth: 0
Flags: W
LayerCount: 2
Fore
SplineSet
192 480 m 1,0,-1
 384 480 l 1,1,-1
 384 288 l 1,2,-1
 384 288 l 1,3,-1
 576 288 l 1,4,-1
 576 192 l 1,5,-1
 384 192 l 1,6,-1
 384 192 l 1,7,-1
 384 0 l 1,8,-1
 192 0 l 1,9,-1
 192 192 l 1,10,-1
 192 192 l 1,11,-1
 0 192 l 1,12,-1
 0 288 l 1,13,-1
 192 288 l 1,14,-1
 192 288 l 1,15,-1
 192 480 l 1,0,-1
EndSplineSet
EndChar

StartChar: comma
Encoding: 44 44 45
Width: 576
VWidth: 0
Flags: W
LayerCount: 2
Fore
SplineSet
192 192 m 1,0,-1
 384 192 l 1,1,-1
 384 0 l 1,2,-1
 288 0 l 1,3,-1
 288 0 l 1,4,-1
 288 -96 l 1,5,-1
 96 -96 l 1,6,-1
 96 0 l 1,7,-1
 192 0 l 1,8,-1
 192 0 l 1,9,-1
 192 192 l 1,0,-1
EndSplineSet
EndChar

StartChar: hyphen
Encoding: 45 45 46
Width: 576
VWidth: 0
Flags: W
LayerCount: 2
Fore
SplineSet
96 288 m 1,0,-1
 576 288 l 1,1,-1
 576 192 l 1,2,-1
 96 192 l 1,3,-1
 96 288 l 1,0,-1
EndSplineSet
EndChar

StartChar: period
Encoding: 46 46 47
Width: 576
VWidth: 0
Flags: W
LayerCount: 2
Fore
SplineSet
192 192 m 1,0,-1
 384 192 l 1,1,-1
 384 0 l 1,2,-1
 192 0 l 1,3,-1
 192 192 l 1,0,-1
EndSplineSet
EndChar

StartChar: slash
Encoding: 47 47 48
Width: 576
VWidth: 0
Flags: W
LayerCount: 2
Fore
SplineSet
96 96 m 1,0,-1
 192 96 l 1,1,-1
 192 96 l 1,2,-1
 192 288 l 1,3,-1
 288 288 l 1,4,-1
 288 288 l 1,5,-1
 288 480 l 1,6,-1
 384 480 l 1,7,-1
 384 480 l 1,8,-1
 384 672 l 1,9,-1
 576 672 l 1,10,-1
 576 480 l 1,11,-1
 480 480 l 1,12,-1
 480 480 l 1,13,-1
 480 288 l 1,14,-1
 384 288 l 1,15,-1
 384 288 l 1,16,-1
 384 96 l 1,17,-1
 288 96 l 1,18,-1
 288 96 l 1,19,-1
 288 -96 l 1,20,-1
 96 -96 l 1,21,-1
 96 96 l 1,0,-1
EndSplineSet
EndChar

StartChar: zero
Encoding: 48 48 49
Width: 575
VWidth: 0
Flags: W
LayerCount: 2
Fore
SplineSet
96 96 m 1,0,-1
 96 480 l 1,1,-1
 192 480 l 1,2,-1
 192 480 l 1,3,-1
 192 576 l 1,4,-1
 383 576 l 1,5,-1
 383 480 l 1,6,-1
 288 480 l 1,7,-1
 287 480 l 1,8,-1
 287 384 l 1,9,-1
 288 384 l 1,10,-1
 384 384 l 1,11,-1
 384 384 l 1,12,-1
 384 480 l 1,13,-1
 479 480 l 1,14,-1
 479 96 l 1,15,-1
 384 96 l 1,16,-1
 384 288 l 1,17,-1
 384 288 l 1,18,-1
 288 288 l 1,19,-1
 287 288 l 1,20,-1
 287 96 l 1,21,-1
 288 96 l 1,22,-1
 383 96 l 1,23,-1
 383 0 l 1,24,-1
 192 0 l 1,25,-1
 192 96 l 1,26,-1
 192 96 l 1,27,-1
 96 96 l 1,0,-1
EndSplineSet
EndChar

StartChar: one
Encoding: 49 49 50
Width: 575
VWidth: 0
Flags: W
LayerCount: 2
Fore
SplineSet
96 384 m 1,0,-1
 96 480 l 1,1,-1
 192 480 l 1,2,-1
 192 480 l 1,3,-1
 192 576 l 1,4,-1
 383 576 l 1,5,-1
 383 0 l 1,6,-1
 192 0 l 1,7,-1
 192 384 l 1,8,-1
 192 384 l 1,9,-1
 96 384 l 1,0,-1
EndSplineSet
EndChar

StartChar: two
Encoding: 50 50 51
Width: 575
VWidth: 0
Flags: W
LayerCount: 2
Fore
SplineSet
288 480 m 1,0,-1
 192 480 l 1,1,-1
 192 576 l 1,2,-1
 383 576 l 1,3,-1
 383 480 l 1,4,-1
 384 480 l 1,5,-1
 479 480 l 1,6,-1
 479 288 l 1,7,-1
 384 288 l 1,8,-1
 383 288 l 1,9,-1
 383 192 l 1,10,-1
 288 192 l 1,11,-1
 287 192 l 1,12,-1
 287 96 l 1,13,-1
 288 96 l 1,14,-1
 479 96 l 1,15,-1
 479 0 l 1,16,-1
 96 0 l 1,17,-1
 96 192 l 1,18,-1
 192 192 l 1,19,-1
 192 192 l 1,20,-1
 192 288 l 1,21,-1
 288 288 l 1,22,-1
 288 288 l 1,23,-1
 288 480 l 1,24,-1
 288 480 l 1,0,-1
96 480 m 1,25,-1
 191 480 l 1,26,-1
 191 384 l 1,27,-1
 96 384 l 1,28,-1
 96 480 l 1,25,-1
EndSplineSet
EndChar

StartChar: three
Encoding: 51 51 52
Width: 575
VWidth: 0
Flags: W
LayerCount: 2
Fore
SplineSet
96 480 m 1,0,-1
 96 576 l 1,1,-1
 479 576 l 1,2,-1
 479 384 l 1,3,-1
 384 384 l 1,4,-1
 383 384 l 1,5,-1
 383 288 l 1,6,-1
 384 288 l 1,7,-1
 479 288 l 1,8,-1
 479 96 l 1,9,-1
 384 96 l 1,10,-1
 383 96 l 1,11,-1
 383 0 l 1,12,-1
 96 0 l 1,13,-1
 96 96 l 1,14,-1
 288 96 l 1,15,-1
 288 96 l 1,16,-1
 288 288 l 1,17,-1
 288 288 l 1,18,-1
 192 288 l 1,19,-1
 192 384 l 1,20,-1
 288 384 l 1,21,-1
 288 384 l 1,22,-1
 288 480 l 1,23,-1
 288 480 l 1,24,-1
 96 480 l 1,0,-1
EndSplineSet
EndChar

StartChar: four
Encoding: 52 52 53
Width: 575
VWidth: 0
Flags: W
LayerCount: 2
Fore
SplineSet
384 480 m 1,0,-1
 384 576 l 1,1,-1
 479 576 l 1,2,-1
 479 0 l 1,3,-1
 288 0 l 1,4,-1
 288 96 l 1,5,-1
 288 96 l 1,6,-1
 96 96 l 1,7,-1
 96 288 l 1,8,-1
 191 288 l 1,9,-1
 191 192 l 1,10,-1
 192 192 l 1,11,-1
 288 192 l 1,12,-1
 288 192 l 1,13,-1
 288 288 l 1,14,-1
 288 288 l 1,15,-1
 192 288 l 1,16,-1
 192 384 l 1,17,-1
 288 384 l 1,18,-1
 288 384 l 1,19,-1
 288 480 l 1,20,-1
 384 480 l 1,21,-1
 384 480 l 1,0,-1
EndSplineSet
EndChar

StartChar: five
Encoding: 53 53 54
Width: 575
VWidth: 0
Flags: W
LayerCount: 2
Fore
SplineSet
96 288 m 1,0,-1
 96 576 l 1,1,-1
 479 576 l 1,2,-1
 479 480 l 1,3,-1
 288 480 l 1,4,-1
 287 480 l 1,5,-1
 287 384 l 1,6,-1
 288 384 l 1,7,-1
 383 384 l 1,8,-1
 383 288 l 1,9,-1
 384 288 l 1,10,-1
 479 288 l 1,11,-1
 479 96 l 1,12,-1
 384 96 l 1,13,-1
 383 96 l 1,14,-1
 383 0 l 1,15,-1
 96 0 l 1,16,-1
 96 96 l 1,17,-1
 288 96 l 1,18,-1
 288 96 l 1,19,-1
 288 288 l 1,20,-1
 288 288 l 1,21,-1
 96 288 l 1,0,-1
EndSplineSet
EndChar

StartChar: six
Encoding: 54 54 55
Width: 575
VWidth: 0
Flags: W
LayerCount: 2
Fore
SplineSet
479 96 m 1,0,-1
 384 96 l 1,1,-1
 384 288 l 1,2,-1
 479 288 l 1,3,-1
 479 96 l 1,0,-1
288 96 m 1,4,-1
 383 96 l 1,5,-1
 383 0 l 1,6,-1
 192 0 l 1,7,-1
 192 96 l 1,8,-1
 192 96 l 1,9,-1
 96 96 l 1,10,-1
 96 480 l 1,11,-1
 192 480 l 1,12,-1
 192 480 l 1,13,-1
 192 576 l 1,14,-1
 383 576 l 1,15,-1
 383 480 l 1,16,-1
 288 480 l 1,17,-1
 287 480 l 1,18,-1
 287 384 l 1,19,-1
 288 384 l 1,20,-1
 383 384 l 1,21,-1
 383 288 l 1,22,-1
 288 288 l 1,23,-1
 287 288 l 1,24,-1
 287 96 l 1,25,-1
 288 96 l 1,4,-1
EndSplineSet
EndChar

StartChar: seven
Encoding: 55 55 56
Width: 575
VWidth: 0
Flags: W
LayerCount: 2
Fore
SplineSet
96 480 m 1,0,-1
 96 576 l 1,1,-1
 479 576 l 1,2,-1
 479 288 l 1,3,-1
 384 288 l 1,4,-1
 383 288 l 1,5,-1
 383 192 l 1,6,-1
 288 192 l 1,7,-1
 287 192 l 1,8,-1
 287 0 l 1,9,-1
 96 0 l 1,10,-1
 96 192 l 1,11,-1
 192 192 l 1,12,-1
 192 192 l 1,13,-1
 192 288 l 1,14,-1
 288 288 l 1,15,-1
 288 288 l 1,16,-1
 288 480 l 1,17,-1
 288 480 l 1,18,-1
 96 480 l 1,0,-1
EndSplineSet
EndChar

StartChar: eight
Encoding: 56 56 57
Width: 575
VWidth: 0
Flags: W
LayerCount: 2
Fore
SplineSet
479 384 m 1,0,-1
 384 384 l 1,1,-1
 384 480 l 1,2,-1
 479 480 l 1,3,-1
 479 384 l 1,0,-1
479 96 m 1,4,-1
 384 96 l 1,5,-1
 384 288 l 1,6,-1
 479 288 l 1,7,-1
 479 96 l 1,4,-1
288 96 m 1,8,-1
 383 96 l 1,9,-1
 383 0 l 1,10,-1
 192 0 l 1,11,-1
 192 96 l 1,12,-1
 192 96 l 1,13,-1
 96 96 l 1,14,-1
 96 288 l 1,15,-1
 192 288 l 1,16,-1
 192 288 l 1,17,-1
 192 384 l 1,18,-1
 192 384 l 1,19,-1
 96 384 l 1,20,-1
 96 480 l 1,21,-1
 192 480 l 1,22,-1
 192 480 l 1,23,-1
 192 576 l 1,24,-1
 383 576 l 1,25,-1
 383 480 l 1,26,-1
 288 480 l 1,27,-1
 287 480 l 1,28,-1
 287 384 l 1,29,-1
 288 384 l 1,30,-1
 383 384 l 1,31,-1
 383 288 l 1,32,-1
 288 288 l 1,33,-1
 287 288 l 1,34,-1
 287 96 l 1,35,-1
 288 96 l 1,8,-1
EndSplineSet
EndChar

StartChar: nine
Encoding: 57 57 58
Width: 575
VWidth: 0
Flags: W
LayerCount: 2
Fore
SplineSet
96 480 m 1,0,-1
 191 480 l 1,1,-1
 191 288 l 1,2,-1
 96 288 l 1,3,-1
 96 480 l 1,0,-1
288 480 m 1,4,-1
 192 480 l 1,5,-1
 192 576 l 1,6,-1
 383 576 l 1,7,-1
 383 480 l 1,8,-1
 384 480 l 1,9,-1
 479 480 l 1,10,-1
 479 96 l 1,11,-1
 384 96 l 1,12,-1
 383 96 l 1,13,-1
 383 0 l 1,14,-1
 192 0 l 1,15,-1
 192 96 l 1,16,-1
 288 96 l 1,17,-1
 288 96 l 1,18,-1
 288 192 l 1,19,-1
 288 192 l 1,20,-1
 192 192 l 1,21,-1
 192 288 l 1,22,-1
 288 288 l 1,23,-1
 288 288 l 1,24,-1
 288 480 l 1,25,-1
 288 480 l 1,4,-1
EndSplineSet
EndChar

StartChar: colon
Encoding: 58 58 59
Width: 576
VWidth: 0
Flags: W
LayerCount: 2
Fore
SplineSet
192 192 m 1,0,-1
 384 192 l 1,1,-1
 384 96 l 1,2,-1
 192 96 l 1,3,-1
 192 192 l 1,0,-1
192 384 m 1,4,-1
 384 384 l 1,5,-1
 384 288 l 1,6,-1
 192 288 l 1,7,-1
 192 384 l 1,4,-1
EndSplineSet
EndChar

StartChar: semicolon
Encoding: 59 59 60
Width: 576
VWidth: 0
Flags: W
LayerCount: 2
Fore
SplineSet
192 192 m 1,0,-1
 384 192 l 1,1,-1
 384 0 l 1,2,-1
 288 0 l 1,3,-1
 288 0 l 1,4,-1
 288 -96 l 1,5,-1
 96 -96 l 1,6,-1
 96 0 l 1,7,-1
 192 0 l 1,8,-1
 192 0 l 1,9,-1
 192 192 l 1,0,-1
192 384 m 1,10,-1
 384 384 l 1,11,-1
 384 288 l 1,12,-1
 192 288 l 1,13,-1
 192 384 l 1,10,-1
EndSplineSet
EndChar

StartChar: less
Encoding: 60 60 61
Width: 576
VWidth: 0
Flags: W
LayerCount: 2
Fore
SplineSet
96 288 m 1,0,-1
 192 288 l 1,1,-1
 192 288 l 1,2,-1
 192 384 l 1,3,-1
 288 384 l 1,4,-1
 288 384 l 1,5,-1
 288 480 l 1,6,-1
 480 480 l 1,7,-1
 480 384 l 1,8,-1
 384 384 l 1,9,-1
 384 384 l 1,10,-1
 384 288 l 1,11,-1
 288 288 l 1,12,-1
 288 288 l 1,13,-1
 288 192 l 1,14,-1
 288 192 l 1,15,-1
 384 192 l 1,16,-1
 384 96 l 1,17,-1
 384 96 l 1,18,-1
 480 96 l 1,19,-1
 480 0 l 1,20,-1
 288 0 l 1,21,-1
 288 96 l 1,22,-1
 288 96 l 1,23,-1
 192 96 l 1,24,-1
 192 192 l 1,25,-1
 192 192 l 1,26,-1
 96 192 l 1,27,-1
 96 288 l 1,0,-1
EndSplineSet
EndChar

StartChar: equal
Encoding: 61 61 62
Width: 576
VWidth: 0
Flags: W
LayerCount: 2
Fore
SplineSet
96 192 m 1,0,-1
 480 192 l 1,1,-1
 480 96 l 1,2,-1
 96 96 l 1,3,-1
 96 192 l 1,0,-1
96 384 m 1,4,-1
 480 384 l 1,5,-1
 480 288 l 1,6,-1
 96 288 l 1,7,-1
 96 384 l 1,4,-1
EndSplineSet
EndChar

StartChar: greater
Encoding: 62 62 63
Width: 576
VWidth: 0
Flags: W
LayerCount: 2
Fore
SplineSet
96 480 m 1,0,-1
 288 480 l 1,1,-1
 288 384 l 1,2,-1
 288 384 l 1,3,-1
 384 384 l 1,4,-1
 384 288 l 1,5,-1
 384 288 l 1,6,-1
 480 288 l 1,7,-1
 480 192 l 1,8,-1
 384 192 l 1,9,-1
 384 192 l 1,10,-1
 384 96 l 1,11,-1
 288 96 l 1,12,-1
 288 96 l 1,13,-1
 288 0 l 1,14,-1
 96 0 l 1,15,-1
 96 96 l 1,16,-1
 192 96 l 1,17,-1
 192 96 l 1,18,-1
 192 192 l 1,19,-1
 288 192 l 1,20,-1
 288 192 l 1,21,-1
 288 288 l 1,22,-1
 288 288 l 1,23,-1
 192 288 l 1,24,-1
 192 384 l 1,25,-1
 192 384 l 1,26,-1
 96 384 l 1,27,-1
 96 480 l 1,0,-1
EndSplineSet
EndChar

StartChar: question
Encoding: 63 63 64
Width: 576
VWidth: 0
Flags: W
LayerCount: 2
Fore
SplineSet
192 0 m 1,0,-1
 384 0 l 1,1,-1
 384 -96 l 1,2,-1
 192 -96 l 1,3,-1
 192 0 l 1,0,-1
96 480 m 1,4,-1
 96 576 l 1,5,-1
 384 576 l 1,6,-1
 384 480 l 1,7,-1
 384 480 l 1,8,-1
 480 480 l 1,9,-1
 480 288 l 1,10,-1
 384 288 l 1,11,-1
 384 288 l 1,12,-1
 384 96 l 1,13,-1
 192 96 l 1,14,-1
 192 288 l 1,15,-1
 288 288 l 1,16,-1
 288 288 l 1,17,-1
 288 480 l 1,18,-1
 288 480 l 1,19,-1
 96 480 l 1,4,-1
96 480 m 1,20,-1
 96 384 l 1,21,-1
 0 384 l 1,22,-1
 0 480 l 1,23,-1
 96 480 l 1,20,-1
EndSplineSet
EndChar

StartChar: at
Encoding: 64 64 65
Width: 576
VWidth: 0
Flags: W
LayerCount: 2
Fore
SplineSet
288 384 m 1,0,-1
 288 192 l 1,1,-1
 288 192 l 1,2,-1
 384 192 l 1,3,-1
 384 192 l 1,4,-1
 384 384 l 1,5,-1
 384 384 l 1,6,-1
 288 384 l 1,7,-1
 288 384 l 1,0,-1
96 576 m 1,8,-1
 192 576 l 1,9,-1
 192 576 l 1,10,-1
 192 672 l 1,11,-1
 384 672 l 1,12,-1
 384 576 l 1,13,-1
 288 576 l 1,14,-1
 288 576 l 1,15,-1
 288 480 l 1,16,-1
 288 480 l 1,17,-1
 384 480 l 1,18,-1
 384 480 l 1,19,-1
 384 576 l 1,20,-1
 480 576 l 1,21,-1
 480 96 l 1,22,-1
 288 96 l 1,23,-1
 288 96 l 1,24,-1
 288 0 l 1,25,-1
 288 0 l 1,26,-1
 384 0 l 1,27,-1
 384 -96 l 1,28,-1
 192 -96 l 1,29,-1
 192 0 l 1,30,-1
 192 0 l 1,31,-1
 96 0 l 1,32,-1
 96 576 l 1,8,-1
EndSplineSet
EndChar

StartChar: A
Encoding: 65 65 66
Width: 574
VWidth: 0
Flags: W
LayerCount: 2
Fore
SplineSet
96 0 m 1,0,-1
 96 480 l 1,1,-1
 192 480 l 1,2,-1
 192 480 l 1,3,-1
 192 576 l 1,4,-1
 382 576 l 1,5,-1
 382 480 l 1,6,-1
 287 480 l 1,7,-1
 287 480 l 1,8,-1
 287 288 l 1,9,-1
 287 288 l 1,10,-1
 383 288 l 1,11,-1
 383 288 l 1,12,-1
 383 480 l 1,13,-1
 478 480 l 1,14,-1
 478 0 l 1,15,-1
 383 0 l 1,16,-1
 383 192 l 1,17,-1
 383 192 l 1,18,-1
 287 192 l 1,19,-1
 287 192 l 1,20,-1
 287 0 l 1,21,-1
 96 0 l 1,0,-1
EndSplineSet
EndChar

StartChar: B
Encoding: 66 66 67
Width: 575
VWidth: 0
Flags: W
LayerCount: 2
Fore
SplineSet
479 384 m 1,0,-1
 384 384 l 1,1,-1
 384 480 l 1,2,-1
 479 480 l 1,3,-1
 479 384 l 1,0,-1
479 96 m 1,4,-1
 384 96 l 1,5,-1
 384 288 l 1,6,-1
 479 288 l 1,7,-1
 479 96 l 1,4,-1
288 96 m 1,8,-1
 383 96 l 1,9,-1
 383 0 l 1,10,-1
 96 0 l 1,11,-1
 96 576 l 1,12,-1
 383 576 l 1,13,-1
 383 480 l 1,14,-1
 288 480 l 1,15,-1
 287 480 l 1,16,-1
 287 384 l 1,17,-1
 288 384 l 1,18,-1
 383 384 l 1,19,-1
 383 288 l 1,20,-1
 288 288 l 1,21,-1
 287 288 l 1,22,-1
 287 96 l 1,23,-1
 288 96 l 1,8,-1
EndSplineSet
EndChar

StartChar: C
Encoding: 67 67 68
Width: 575
VWidth: 0
Flags: W
LayerCount: 2
Fore
SplineSet
192 480 m 1,0,-1
 192 576 l 1,1,-1
 479 576 l 1,2,-1
 479 480 l 1,3,-1
 288 480 l 1,4,-1
 287 480 l 1,5,-1
 287 96 l 1,6,-1
 288 96 l 1,7,-1
 479 96 l 1,8,-1
 479 0 l 1,9,-1
 192 0 l 1,10,-1
 192 96 l 1,11,-1
 192 96 l 1,12,-1
 96 96 l 1,13,-1
 96 480 l 1,14,-1
 192 480 l 1,15,-1
 192 480 l 1,0,-1
EndSplineSet
EndChar

StartChar: D
Encoding: 68 68 69
Width: 575
VWidth: 0
Flags: W
LayerCount: 2
Fore
SplineSet
479 96 m 1,0,-1
 384 96 l 1,1,-1
 384 480 l 1,2,-1
 479 480 l 1,3,-1
 479 96 l 1,0,-1
288 96 m 1,4,-1
 383 96 l 1,5,-1
 383 0 l 1,6,-1
 96 0 l 1,7,-1
 96 576 l 1,8,-1
 383 576 l 1,9,-1
 383 480 l 1,10,-1
 288 480 l 1,11,-1
 287 480 l 1,12,-1
 287 96 l 1,13,-1
 288 96 l 1,4,-1
EndSplineSet
EndChar

StartChar: E
Encoding: 69 69 70
Width: 575
VWidth: 0
Flags: W
LayerCount: 2
Fore
SplineSet
96 0 m 1,0,-1
 96 576 l 1,1,-1
 479 576 l 1,2,-1
 479 480 l 1,3,-1
 288 480 l 1,4,-1
 287 480 l 1,5,-1
 287 384 l 1,6,-1
 288 384 l 1,7,-1
 383 384 l 1,8,-1
 383 288 l 1,9,-1
 288 288 l 1,10,-1
 287 288 l 1,11,-1
 287 96 l 1,12,-1
 288 96 l 1,13,-1
 479 96 l 1,14,-1
 479 0 l 1,15,-1
 96 0 l 1,0,-1
EndSplineSet
EndChar

StartChar: F
Encoding: 70 70 71
Width: 575
VWidth: 0
Flags: W
LayerCount: 2
Fore
SplineSet
96 0 m 1,0,-1
 96 576 l 1,1,-1
 479 576 l 1,2,-1
 479 480 l 1,3,-1
 288 480 l 1,4,-1
 287 480 l 1,5,-1
 287 384 l 1,6,-1
 288 384 l 1,7,-1
 383 384 l 1,8,-1
 383 288 l 1,9,-1
 288 288 l 1,10,-1
 287 288 l 1,11,-1
 287 0 l 1,12,-1
 96 0 l 1,0,-1
EndSplineSet
EndChar

StartChar: G
Encoding: 71 71 72
Width: 575
VWidth: 0
Flags: W
LayerCount: 2
Fore
SplineSet
192 480 m 1,0,-1
 192 576 l 1,1,-1
 479 576 l 1,2,-1
 479 480 l 1,3,-1
 288 480 l 1,4,-1
 287 480 l 1,5,-1
 287 96 l 1,6,-1
 288 96 l 1,7,-1
 384 96 l 1,8,-1
 384 96 l 1,9,-1
 384 288 l 1,10,-1
 479 288 l 1,11,-1
 479 0 l 1,12,-1
 192 0 l 1,13,-1
 192 96 l 1,14,-1
 192 96 l 1,15,-1
 96 96 l 1,16,-1
 96 480 l 1,17,-1
 192 480 l 1,18,-1
 192 480 l 1,0,-1
EndSplineSet
EndChar

StartChar: H
Encoding: 72 72 73
Width: 574
VWidth: 0
Flags: W
LayerCount: 2
Fore
SplineSet
96 0 m 1,0,-1
 96 576 l 1,1,-1
 287 576 l 1,2,-1
 287 288 l 1,3,-1
 287 288 l 1,4,-1
 383 288 l 1,5,-1
 383 288 l 1,6,-1
 383 576 l 1,7,-1
 478 576 l 1,8,-1
 478 0 l 1,9,-1
 383 0 l 1,10,-1
 383 192 l 1,11,-1
 383 192 l 1,12,-1
 287 192 l 1,13,-1
 287 192 l 1,14,-1
 287 0 l 1,15,-1
 96 0 l 1,0,-1
EndSplineSet
EndChar

StartChar: I
Encoding: 73 73 74
Width: 575
VWidth: 0
Flags: W
LayerCount: 2
Fore
SplineSet
192 0 m 1,0,-1
 192 576 l 1,1,-1
 383 576 l 1,2,-1
 383 0 l 1,3,-1
 192 0 l 1,0,-1
EndSplineSet
EndChar

StartChar: J
Encoding: 74 74 75
Width: 575
VWidth: 0
Flags: W
LayerCount: 2
Fore
SplineSet
288 96 m 1,0,-1
 288 576 l 1,1,-1
 479 576 l 1,2,-1
 479 96 l 1,3,-1
 384 96 l 1,4,-1
 383 96 l 1,5,-1
 383 0 l 1,6,-1
 96 0 l 1,7,-1
 96 96 l 1,8,-1
 288 96 l 1,9,-1
 288 96 l 1,0,-1
EndSplineSet
EndChar

StartChar: K
Encoding: 75 75 76
Width: 574
VWidth: 0
Flags: W
LayerCount: 2
Fore
SplineSet
574 480 m 1,0,-1
 479 480 l 1,1,-1
 479 576 l 1,2,-1
 574 576 l 1,3,-1
 574 480 l 1,0,-1
383 480 m 1,4,-1
 478 480 l 1,5,-1
 478 384 l 1,6,-1
 383 384 l 1,7,-1
 383 480 l 1,4,-1
479 0 m 1,8,-1
 479 96 l 1,9,-1
 574 96 l 1,10,-1
 574 0 l 1,11,-1
 479 0 l 1,8,-1
478 192 m 1,12,-1
 478 96 l 1,13,-1
 383 96 l 1,14,-1
 383 192 l 1,15,-1
 478 192 l 1,12,-1
383 384 m 1,16,-1
 383 192 l 1,17,-1
 287 192 l 1,18,-1
 287 192 l 1,19,-1
 287 0 l 1,20,-1
 96 0 l 1,21,-1
 96 576 l 1,22,-1
 287 576 l 1,23,-1
 287 384 l 1,24,-1
 287 384 l 1,25,-1
 383 384 l 1,16,-1
EndSplineSet
EndChar

StartChar: L
Encoding: 76 76 77
Width: 575
VWidth: 0
Flags: W
LayerCount: 2
Fore
SplineSet
96 0 m 1,0,-1
 96 576 l 1,1,-1
 287 576 l 1,2,-1
 287 96 l 1,3,-1
 288 96 l 1,4,-1
 479 96 l 1,5,-1
 479 0 l 1,6,-1
 96 0 l 1,0,-1
EndSplineSet
EndChar

StartChar: M
Encoding: 77 77 78
Width: 574
VWidth: 0
Flags: W
LayerCount: 2
Fore
SplineSet
478 480 m 1,0,-1
 383 480 l 1,1,-1
 383 576 l 1,2,-1
 574 576 l 1,3,-1
 574 0 l 1,4,-1
 479 0 l 1,5,-1
 479 480 l 1,6,-1
 478 480 l 1,0,-1
288 480 m 1,7,-1
 382 480 l 1,8,-1
 382 288 l 1,9,-1
 288 288 l 1,10,-1
 288 480 l 1,7,-1
287 576 m 1,11,-1
 287 480 l 1,12,-1
 192 480 l 1,13,-1
 191 480 l 1,14,-1
 191 0 l 1,15,-1
 0 0 l 1,16,-1
 0 576 l 1,17,-1
 287 576 l 1,11,-1
EndSplineSet
EndChar

StartChar: N
Encoding: 78 78 79
Width: 574
VWidth: 0
Flags: W
LayerCount: 2
Fore
SplineSet
383 192 m 1,0,-1
 383 288 l 1,1,-1
 479 288 l 1,2,-1
 479 288 l 1,3,-1
 479 576 l 1,4,-1
 574 576 l 1,5,-1
 574 0 l 1,6,-1
 479 0 l 1,7,-1
 479 192 l 1,8,-1
 479 192 l 1,9,-1
 383 192 l 1,0,-1
383 384 m 1,10,-1
 383 288 l 1,11,-1
 287 288 l 1,12,-1
 287 288 l 1,13,-1
 287 0 l 1,14,-1
 96 0 l 1,15,-1
 96 576 l 1,16,-1
 287 576 l 1,17,-1
 287 384 l 1,18,-1
 287 384 l 1,19,-1
 383 384 l 1,10,-1
EndSplineSet
EndChar

StartChar: O
Encoding: 79 79 80
Width: 575
VWidth: 0
Flags: W
LayerCount: 2
Fore
SplineSet
479 96 m 1,0,-1
 384 96 l 1,1,-1
 384 480 l 1,2,-1
 479 480 l 1,3,-1
 479 96 l 1,0,-1
288 96 m 1,4,-1
 383 96 l 1,5,-1
 383 0 l 1,6,-1
 192 0 l 1,7,-1
 192 96 l 1,8,-1
 192 96 l 1,9,-1
 96 96 l 1,10,-1
 96 480 l 1,11,-1
 192 480 l 1,12,-1
 192 480 l 1,13,-1
 192 576 l 1,14,-1
 383 576 l 1,15,-1
 383 480 l 1,16,-1
 288 480 l 1,17,-1
 287 480 l 1,18,-1
 287 96 l 1,19,-1
 288 96 l 1,4,-1
EndSplineSet
EndChar

StartChar: P
Encoding: 80 80 81
Width: 575
VWidth: 0
Flags: W
LayerCount: 2
Fore
SplineSet
479 288 m 1,0,-1
 384 288 l 1,1,-1
 384 480 l 1,2,-1
 479 480 l 1,3,-1
 479 288 l 1,0,-1
288 288 m 1,4,-1
 383 288 l 1,5,-1
 383 192 l 1,6,-1
 288 192 l 1,7,-1
 287 192 l 1,8,-1
 287 0 l 1,9,-1
 96 0 l 1,10,-1
 96 576 l 1,11,-1
 383 576 l 1,12,-1
 383 480 l 1,13,-1
 288 480 l 1,14,-1
 287 480 l 1,15,-1
 287 288 l 1,16,-1
 288 288 l 1,4,-1
EndSplineSet
EndChar

StartChar: Q
Encoding: 81 81 82
Width: 575
VWidth: 0
Flags: W
LayerCount: 2
Fore
SplineSet
479 96 m 1,0,-1
 384 96 l 1,1,-1
 384 480 l 1,2,-1
 479 480 l 1,3,-1
 479 96 l 1,0,-1
288 95 m 1,4,-1
 383 95 l 1,5,-1
 383 0 l 1,6,-1
 383 -1 l 1,7,-1
 384 -1 l 1,8,-1
 479 -1 l 1,9,-1
 479 -96 l 1,10,-1
 288 -96 l 1,11,-1
 288 0 l 1,12,-1
 288 0 l 1,13,-1
 192 0 l 1,14,-1
 192 96 l 1,15,-1
 192 96 l 1,16,-1
 96 96 l 1,17,-1
 96 479 l 1,18,-1
 192 479 l 1,19,-1
 192 480 l 1,20,-1
 192 575 l 1,21,-1
 383 575 l 1,22,-1
 383 480 l 1,23,-1
 288 480 l 1,24,-1
 287 480 l 1,25,-1
 287 96 l 1,26,-1
 287 95 l 1,27,-1
 288 95 l 1,4,-1
EndSplineSet
EndChar

StartChar: R
Encoding: 82 82 83
Width: 574
VWidth: 0
Flags: W
LayerCount: 2
Fore
SplineSet
478 288 m 1,0,-1
 383 288 l 1,1,-1
 383 480 l 1,2,-1
 478 480 l 1,3,-1
 478 288 l 1,0,-1
383 0 m 1,4,-1
 383 96 l 1,5,-1
 478 96 l 1,6,-1
 478 0 l 1,7,-1
 383 0 l 1,4,-1
382 288 m 1,8,-1
 382 96 l 1,9,-1
 287 96 l 1,10,-1
 287 96 l 1,11,-1
 287 0 l 1,12,-1
 96 0 l 1,13,-1
 96 576 l 1,14,-1
 382 576 l 1,15,-1
 382 480 l 1,16,-1
 287 480 l 1,17,-1
 287 480 l 1,18,-1
 287 288 l 1,19,-1
 287 288 l 1,20,-1
 382 288 l 1,8,-1
EndSplineSet
EndChar

StartChar: S
Encoding: 83 83 84
Width: 575
VWidth: 0
Flags: W
LayerCount: 2
Fore
SplineSet
96 384 m 1,0,-1
 96 480 l 1,1,-1
 192 480 l 1,2,-1
 192 480 l 1,3,-1
 192 576 l 1,4,-1
 479 576 l 1,5,-1
 479 480 l 1,6,-1
 288 480 l 1,7,-1
 287 480 l 1,8,-1
 287 384 l 1,9,-1
 288 384 l 1,10,-1
 383 384 l 1,11,-1
 383 288 l 1,12,-1
 384 288 l 1,13,-1
 479 288 l 1,14,-1
 479 96 l 1,15,-1
 384 96 l 1,16,-1
 383 96 l 1,17,-1
 383 0 l 1,18,-1
 96 0 l 1,19,-1
 96 96 l 1,20,-1
 288 96 l 1,21,-1
 288 96 l 1,22,-1
 288 288 l 1,23,-1
 288 288 l 1,24,-1
 192 288 l 1,25,-1
 192 384 l 1,26,-1
 192 384 l 1,27,-1
 96 384 l 1,0,-1
EndSplineSet
EndChar

StartChar: T
Encoding: 84 84 85
Width: 574
VWidth: 0
Flags: W
LayerCount: 2
Fore
SplineSet
0 480 m 1,0,-1
 0 576 l 1,1,-1
 574 576 l 1,2,-1
 574 480 l 1,3,-1
 383 480 l 1,4,-1
 382 480 l 1,5,-1
 382 0 l 1,6,-1
 191 0 l 1,7,-1
 192 480 l 1,8,-1
 191 480 l 1,9,-1
 0 480 l 1,0,-1
EndSplineSet
EndChar

StartChar: U
Encoding: 85 85 86
Width: 574
VWidth: 0
Flags: W
LayerCount: 2
Fore
SplineSet
96 96 m 1,0,-1
 96 576 l 1,1,-1
 287 576 l 1,2,-1
 287 96 l 1,3,-1
 287 96 l 1,4,-1
 383 96 l 1,5,-1
 383 96 l 1,6,-1
 383 576 l 1,7,-1
 478 576 l 1,8,-1
 478 0 l 1,9,-1
 192 0 l 1,10,-1
 192 96 l 1,11,-1
 192 96 l 1,12,-1
 96 96 l 1,0,-1
EndSplineSet
EndChar

StartChar: V
Encoding: 86 86 87
Width: 574
VWidth: 0
Flags: W
LayerCount: 2
Fore
SplineSet
478 192 m 1,0,-1
 383 192 l 1,1,-1
 383 576 l 1,2,-1
 478 576 l 1,3,-1
 478 192 l 1,0,-1
191 192 m 1,4,-1
 382 192 l 1,5,-1
 382 96 l 1,6,-1
 287 96 l 1,7,-1
 287 96 l 1,8,-1
 287 0 l 1,9,-1
 96 0 l 1,10,-1
 96 192 l 1,11,-1
 96 192 l 1,12,-1
 0 192 l 1,13,-1
 0 576 l 1,14,-1
 191 576 l 1,15,-1
 191 192 l 1,16,-1
 191 192 l 1,4,-1
EndSplineSet
EndChar

StartChar: W
Encoding: 87 87 88
Width: 574
VWidth: 0
Flags: W
LayerCount: 2
Fore
SplineSet
574 96 m 1,0,-1
 479 96 l 1,1,-1
 479 576 l 1,2,-1
 574 576 l 1,3,-1
 574 96 l 1,0,-1
383 96 m 1,4,-1
 478 96 l 1,5,-1
 478 0 l 1,6,-1
 96 0 l 1,7,-1
 96 96 l 1,8,-1
 96 96 l 1,9,-1
 0 96 l 1,10,-1
 0 576 l 1,11,-1
 191 576 l 1,12,-1
 191 96 l 1,13,-1
 191 96 l 1,14,-1
 287 96 l 1,15,-1
 288 96 l 1,16,-1
 288 288 l 1,17,-1
 382 288 l 1,18,-1
 382 96 l 1,19,-1
 383 96 l 1,4,-1
EndSplineSet
EndChar

StartChar: X
Encoding: 88 88 89
Width: 574
VWidth: 0
Flags: W
LayerCount: 2
Fore
SplineSet
478 384 m 1,0,-1
 383 384 l 1,1,-1
 383 576 l 1,2,-1
 478 576 l 1,3,-1
 478 384 l 1,0,-1
0 192 m 1,4,-1
 95 192 l 1,5,-1
 95 0 l 1,6,-1
 0 0 l 1,7,-1
 0 192 l 1,4,-1
287 192 m 1,8,-1
 96 192 l 1,9,-1
 96 384 l 1,10,-1
 96 384 l 1,11,-1
 0 384 l 1,12,-1
 0 576 l 1,13,-1
 191 576 l 1,14,-1
 191 384 l 1,15,-1
 191 384 l 1,16,-1
 382 384 l 1,17,-1
 382 192 l 1,18,-1
 383 192 l 1,19,-1
 478 192 l 1,20,-1
 478 0 l 1,21,-1
 287 0 l 1,22,-1
 287 192 l 1,23,-1
 287 192 l 1,8,-1
EndSplineSet
EndChar

StartChar: Y
Encoding: 89 89 90
Width: 574
VWidth: 0
Flags: W
LayerCount: 2
Fore
SplineSet
574 384 m 1,0,-1
 479 384 l 1,1,-1
 479 576 l 1,2,-1
 574 576 l 1,3,-1
 574 384 l 1,0,-1
383 384 m 1,4,-1
 478 384 l 1,5,-1
 478 288 l 1,6,-1
 383 288 l 1,7,-1
 383 384 l 1,4,-1
287 288 m 1,8,-1
 382 288 l 1,9,-1
 382 0 l 1,10,-1
 192 0 l 1,11,-1
 192 288 l 1,12,-1
 191 288 l 1,13,-1
 96 288 l 1,14,-1
 96 384 l 1,15,-1
 96 384 l 1,16,-1
 0 384 l 1,17,-1
 0 576 l 1,18,-1
 191 576 l 1,19,-1
 191 384 l 1,20,-1
 191 384 l 1,21,-1
 287 384 l 1,22,-1
 287 288 l 1,23,-1
 287 288 l 1,8,-1
EndSplineSet
EndChar

StartChar: Z
Encoding: 90 90 91
Width: 575
VWidth: 0
Flags: W
LayerCount: 2
Fore
SplineSet
96 480 m 1,0,-1
 96 576 l 1,1,-1
 479 576 l 1,2,-1
 479 384 l 1,3,-1
 384 384 l 1,4,-1
 383 384 l 1,5,-1
 383 288 l 1,6,-1
 288 288 l 1,7,-1
 287 288 l 1,8,-1
 287 96 l 1,9,-1
 288 96 l 1,10,-1
 479 96 l 1,11,-1
 479 0 l 1,12,-1
 96 0 l 1,13,-1
 96 288 l 1,14,-1
 192 288 l 1,15,-1
 192 288 l 1,16,-1
 192 384 l 1,17,-1
 288 384 l 1,18,-1
 288 384 l 1,19,-1
 288 480 l 1,20,-1
 288 480 l 1,21,-1
 96 480 l 1,0,-1
EndSplineSet
EndChar

StartChar: bracketleft
Encoding: 91 91 92
Width: 576
VWidth: 0
Flags: W
LayerCount: 2
Fore
SplineSet
96 672 m 1,0,-1
 384 672 l 1,1,-1
 384 576 l 1,2,-1
 288 576 l 1,3,-1
 288 576 l 1,4,-1
 288 96 l 1,5,-1
 288 96 l 1,6,-1
 384 96 l 1,7,-1
 384 0 l 1,8,-1
 96 0 l 1,9,-1
 96 672 l 1,0,-1
EndSplineSet
EndChar

StartChar: backslash
Encoding: 92 92 93
Width: 576
VWidth: 0
Flags: W
LayerCount: 2
Fore
SplineSet
96 672 m 1,0,-1
 288 672 l 1,1,-1
 288 480 l 1,2,-1
 288 480 l 1,3,-1
 384 480 l 1,4,-1
 384 288 l 1,5,-1
 384 288 l 1,6,-1
 480 288 l 1,7,-1
 480 96 l 1,8,-1
 480 96 l 1,9,-1
 576 96 l 1,10,-1
 576 -96 l 1,11,-1
 384 -96 l 1,12,-1
 384 96 l 1,13,-1
 384 96 l 1,14,-1
 288 96 l 1,15,-1
 288 288 l 1,16,-1
 288 288 l 1,17,-1
 192 288 l 1,18,-1
 192 480 l 1,19,-1
 192 480 l 1,20,-1
 96 480 l 1,21,-1
 96 672 l 1,0,-1
EndSplineSet
EndChar

StartChar: bracketright
Encoding: 93 93 94
Width: 576
VWidth: 0
Flags: W
LayerCount: 2
Fore
SplineSet
192 672 m 1,0,-1
 480 672 l 1,1,-1
 480 0 l 1,2,-1
 192 0 l 1,3,-1
 192 96 l 1,4,-1
 288 96 l 1,5,-1
 288 96 l 1,6,-1
 288 576 l 1,7,-1
 288 576 l 1,8,-1
 192 576 l 1,9,-1
 192 672 l 1,0,-1
EndSplineSet
EndChar

StartChar: asciicircum
Encoding: 94 94 95
Width: 576
VWidth: 0
Flags: W
LayerCount: 2
Fore
SplineSet
480 480 m 1,0,-1
 576 480 l 1,1,-1
 576 384 l 1,2,-1
 480 384 l 1,3,-1
 480 480 l 1,0,-1
480 480 m 1,4,-1
 384 480 l 1,5,-1
 384 576 l 1,6,-1
 480 576 l 1,7,-1
 480 480 l 1,4,-1
384 576 m 1,8,-1
 288 576 l 1,9,-1
 288 576 l 1,10,-1
 288 480 l 1,11,-1
 192 480 l 1,12,-1
 192 480 l 1,13,-1
 192 384 l 1,14,-1
 0 384 l 1,15,-1
 0 480 l 1,16,-1
 96 480 l 1,17,-1
 96 480 l 1,18,-1
 96 576 l 1,19,-1
 192 576 l 1,20,-1
 192 576 l 1,21,-1
 192 672 l 1,22,-1
 384 672 l 1,23,-1
 384 576 l 1,8,-1
EndSplineSet
EndChar

StartChar: underscore
Encoding: 95 95 96
Width: 576
VWidth: 0
Flags: W
LayerCount: 2
Fore
SplineSet
96 0 m 1,0,-1
 576 0 l 1,1,-1
 576 -96 l 1,2,-1
 96 -96 l 1,3,-1
 96 0 l 1,0,-1
EndSplineSet
EndChar

StartChar: grave
Encoding: 96 96 97
Width: 576
VWidth: 0
Flags: W
LayerCount: 2
Fore
SplineSet
96 672 m 1,0,-1
 288 672 l 1,1,-1
 288 480 l 1,2,-1
 288 480 l 1,3,-1
 384 480 l 1,4,-1
 384 384 l 1,5,-1
 192 384 l 1,6,-1
 192 480 l 1,7,-1
 192 480 l 1,8,-1
 96 480 l 1,9,-1
 96 672 l 1,0,-1
EndSplineSet
EndChar

StartChar: a
Encoding: 97 97 98
Width: 574
VWidth: 0
Flags: W
LayerCount: 2
Fore
SplineSet
479 0 m 1,0,-1
 479 96 l 1,1,-1
 574 96 l 1,2,-1
 574 0 l 1,3,-1
 479 0 l 1,0,-1
96 384 m 1,4,-1
 191 384 l 1,5,-1
 191 96 l 1,6,-1
 96 96 l 1,7,-1
 96 384 l 1,4,-1
288 384 m 1,8,-1
 192 384 l 1,9,-1
 192 480 l 1,10,-1
 478 480 l 1,11,-1
 478 96 l 1,12,-1
 383 96 l 1,13,-1
 383 96 l 1,14,-1
 383 0 l 1,15,-1
 192 0 l 1,16,-1
 192 96 l 1,17,-1
 288 96 l 1,18,-1
 288 96 l 1,19,-1
 288 384 l 1,20,-1
 288 384 l 1,8,-1
EndSplineSet
EndChar

StartChar: b
Encoding: 98 98 99
Width: 575
VWidth: 0
Flags: W
LayerCount: 2
Fore
SplineSet
479 96 m 1,0,-1
 384 96 l 1,1,-1
 384 384 l 1,2,-1
 479 384 l 1,3,-1
 479 96 l 1,0,-1
288 96 m 1,4,-1
 383 96 l 1,5,-1
 383 1 l 1,6,-1
 96 1 l 1,7,-1
 96 672 l 1,8,-1
 287 672 l 1,9,-1
 287 480 l 1,10,-1
 288 480 l 1,11,-1
 383 480 l 1,12,-1
 383 385 l 1,13,-1
 288 385 l 1,14,-1
 287 385 l 1,15,-1
 287 384 l 1,16,-1
 287 96 l 1,17,-1
 288 96 l 1,4,-1
EndSplineSet
EndChar

StartChar: c
Encoding: 99 99 100
Width: 575
VWidth: 0
Flags: W
LayerCount: 2
Fore
SplineSet
96 96 m 1,0,-1
 96 384 l 1,1,-1
 192 384 l 1,2,-1
 192 384 l 1,3,-1
 192 480 l 1,4,-1
 479 480 l 1,5,-1
 479 384 l 1,6,-1
 288 384 l 1,7,-1
 287 384 l 1,8,-1
 287 96 l 1,9,-1
 288 96 l 1,10,-1
 479 96 l 1,11,-1
 479 0 l 1,12,-1
 192 0 l 1,13,-1
 192 96 l 1,14,-1
 192 96 l 1,15,-1
 96 96 l 1,0,-1
EndSplineSet
EndChar

StartChar: d
Encoding: 100 100 101
Width: 575
VWidth: 0
Flags: W
LayerCount: 2
Fore
SplineSet
96 384 m 1,0,-1
 191 384 l 1,1,-1
 191 96 l 1,2,-1
 96 96 l 1,3,-1
 96 384 l 1,0,-1
288 385 m 1,4,-1
 192 385 l 1,5,-1
 192 480 l 1,6,-1
 288 480 l 1,7,-1
 288 480 l 1,8,-1
 288 672 l 1,9,-1
 479 672 l 1,10,-1
 479 1 l 1,11,-1
 192 1 l 1,12,-1
 192 96 l 1,13,-1
 288 96 l 1,14,-1
 288 96 l 1,15,-1
 288 384 l 1,16,-1
 288 385 l 1,4,-1
EndSplineSet
EndChar

StartChar: e
Encoding: 101 101 102
Width: 575
VWidth: 0
Flags: W
LayerCount: 2
Fore
SplineSet
192 384 m 1,0,-1
 192 480 l 1,1,-1
 383 480 l 1,2,-1
 383 384 l 1,3,-1
 288 384 l 1,4,-1
 287 384 l 1,5,-1
 287 288 l 1,6,-1
 288 288 l 1,7,-1
 384 288 l 1,8,-1
 384 288 l 1,9,-1
 384 384 l 1,10,-1
 479 384 l 1,11,-1
 479 192 l 1,12,-1
 288 192 l 1,13,-1
 287 192 l 1,14,-1
 287 96 l 1,15,-1
 288 96 l 1,16,-1
 479 96 l 1,17,-1
 479 0 l 1,18,-1
 192 0 l 1,19,-1
 192 96 l 1,20,-1
 192 96 l 1,21,-1
 96 96 l 1,22,-1
 96 384 l 1,23,-1
 192 384 l 1,24,-1
 192 384 l 1,0,-1
EndSplineSet
EndChar

StartChar: f
Encoding: 102 102 103
Width: 575
VWidth: 0
Flags: W
LayerCount: 2
Fore
SplineSet
96 1 m 1,0,-1
 96 576 l 1,1,-1
 192 576 l 1,2,-1
 192 576 l 1,3,-1
 192 672 l 1,4,-1
 479 672 l 1,5,-1
 479 577 l 1,6,-1
 288 577 l 1,7,-1
 287 577 l 1,8,-1
 287 576 l 1,9,-1
 287 480 l 1,10,-1
 288 480 l 1,11,-1
 479 480 l 1,12,-1
 479 385 l 1,13,-1
 288 385 l 1,14,-1
 287 385 l 1,15,-1
 287 384 l 1,16,-1
 287 1 l 1,17,-1
 96 1 l 1,0,-1
EndSplineSet
EndChar

StartChar: g
Encoding: 103 103 104
Width: 575
VWidth: 0
Flags: W
LayerCount: 2
Fore
SplineSet
288 384 m 1,0,-1
 192 384 l 1,1,-1
 192 480 l 1,2,-1
 479 480 l 1,3,-1
 479 -96 l 5,4,-1
 384 -96 l 5,5,-1
 383 -96 l 5,6,-1
 383 -192 l 5,7,-1
 96 -192 l 5,8,-1
 96 -97 l 5,9,-1
 288 -97 l 5,10,-1
 288 -96 l 5,11,-1
 288 0 l 5,12,-1
 288 0 l 5,13,-1
 192 0 l 5,14,-1
 192 96 l 5,15,-1
 288 96 l 5,16,-1
 288 96 l 5,17,-1
 288 384 l 1,18,-1
 288 384 l 1,0,-1
96 384 m 1,19,-1
 191 384 l 1,20,-1
 191 96 l 5,21,-1
 96 96 l 5,22,-1
 96 384 l 1,19,-1
EndSplineSet
EndChar

StartChar: h
Encoding: 104 104 105
Width: 574
VWidth: 0
Flags: W
LayerCount: 2
Fore
SplineSet
383 0 m 1,0,-1
 383 384 l 1,1,-1
 478 384 l 1,2,-1
 478 0 l 1,3,-1
 383 0 l 1,0,-1
382 480 m 1,4,-1
 382 385 l 1,5,-1
 287 385 l 1,6,-1
 287 384 l 1,7,-1
 287 1 l 1,8,-1
 96 1 l 1,9,-1
 96 672 l 1,10,-1
 287 672 l 1,11,-1
 287 480 l 1,12,-1
 287 480 l 1,13,-1
 382 480 l 1,4,-1
EndSplineSet
EndChar

StartChar: i
Encoding: 105 105 106
Width: 575
VWidth: 0
Flags: W
LayerCount: 2
Fore
SplineSet
192 0 m 1,0,-1
 192 480 l 1,1,-1
 383 480 l 1,2,-1
 383 0 l 1,3,-1
 192 0 l 1,0,-1
192 577 m 1,4,-1
 192 672 l 1,5,-1
 383 672 l 1,6,-1
 383 577 l 1,7,-1
 192 577 l 1,4,-1
EndSplineSet
EndChar

StartChar: j
Encoding: 106 106 107
Width: 575
VWidth: 0
Flags: W
LayerCount: 2
Fore
SplineSet
192 0 m 1,0,-1
 192 479 l 1,1,-1
 383 479 l 1,2,-1
 383 0 l 1,3,-1
 288 0 l 1,4,-1
 287 0 l 1,5,-1
 287 -96 l 1,6,-1
 96 -96 l 1,7,-1
 96 -1 l 1,8,-1
 192 -1 l 1,9,-1
 192 0 l 1,0,-1
192 577 m 1,10,-1
 192 672 l 1,11,-1
 383 672 l 1,12,-1
 383 577 l 1,13,-1
 192 577 l 1,10,-1
EndSplineSet
EndChar

StartChar: k
Encoding: 107 107 108
Width: 575
VWidth: 0
Flags: W
LayerCount: 2
Fore
SplineSet
575 384 m 1,0,-1
 480 384 l 1,1,-1
 480 480 l 1,2,-1
 575 480 l 1,3,-1
 575 384 l 1,0,-1
384 384 m 1,4,-1
 479 384 l 1,5,-1
 479 288 l 1,6,-1
 384 288 l 1,7,-1
 384 384 l 1,4,-1
480 0 m 1,8,-1
 480 96 l 1,9,-1
 575 96 l 1,10,-1
 575 0 l 1,11,-1
 480 0 l 1,8,-1
479 192 m 1,12,-1
 479 96 l 1,13,-1
 384 96 l 1,14,-1
 384 192 l 1,15,-1
 479 192 l 1,12,-1
383 288 m 1,16,-1
 383 192 l 1,17,-1
 288 192 l 1,18,-1
 287 192 l 1,19,-1
 287 0 l 1,20,-1
 96 0 l 1,21,-1
 96 672 l 1,22,-1
 287 672 l 1,23,-1
 287 288 l 1,24,-1
 288 288 l 1,25,-1
 383 288 l 1,16,-1
EndSplineSet
EndChar

StartChar: l
Encoding: 108 108 109
Width: 575
VWidth: 0
Flags: W
LayerCount: 2
Fore
SplineSet
96 97 m 1,0,-1
 96 672 l 1,1,-1
 287 672 l 1,2,-1
 287 96 l 1,3,-1
 288 96 l 1,4,-1
 479 96 l 1,5,-1
 479 1 l 1,6,-1
 192 1 l 1,7,-1
 192 96 l 1,8,-1
 192 97 l 1,9,-1
 96 97 l 1,0,-1
EndSplineSet
EndChar

StartChar: m
Encoding: 109 109 110
Width: 574
VWidth: 0
Flags: W
LayerCount: 2
Fore
SplineSet
479 0 m 1,0,-1
 479 384 l 1,1,-1
 574 384 l 1,2,-1
 574 0 l 1,3,-1
 479 0 l 1,0,-1
478 480 m 1,4,-1
 478 384 l 1,5,-1
 383 384 l 1,6,-1
 382 384 l 1,7,-1
 382 96 l 1,8,-1
 288 96 l 1,9,-1
 288 384 l 1,10,-1
 287 384 l 1,11,-1
 191 384 l 1,12,-1
 191 384 l 1,13,-1
 191 0 l 1,14,-1
 0 0 l 1,15,-1
 0 480 l 1,16,-1
 478 480 l 1,4,-1
EndSplineSet
EndChar

StartChar: n
Encoding: 110 110 111
Width: 574
VWidth: 0
Flags: W
LayerCount: 2
Fore
SplineSet
383 0 m 1,0,-1
 383 384 l 1,1,-1
 478 384 l 1,2,-1
 478 0 l 1,3,-1
 383 0 l 1,0,-1
382 480 m 1,4,-1
 382 384 l 1,5,-1
 287 384 l 1,6,-1
 287 384 l 1,7,-1
 287 0 l 1,8,-1
 96 0 l 1,9,-1
 96 480 l 1,10,-1
 382 480 l 1,4,-1
EndSplineSet
EndChar

StartChar: o
Encoding: 111 111 112
Width: 575
VWidth: 0
Flags: W
LayerCount: 2
Fore
SplineSet
479 96 m 1,0,-1
 384 96 l 1,1,-1
 384 384 l 1,2,-1
 479 384 l 1,3,-1
 479 96 l 1,0,-1
288 96 m 1,4,-1
 383 96 l 1,5,-1
 383 0 l 1,6,-1
 192 0 l 1,7,-1
 192 96 l 1,8,-1
 192 96 l 1,9,-1
 96 96 l 1,10,-1
 96 384 l 1,11,-1
 192 384 l 1,12,-1
 192 384 l 1,13,-1
 192 480 l 1,14,-1
 383 480 l 1,15,-1
 383 384 l 1,16,-1
 288 384 l 1,17,-1
 287 384 l 1,18,-1
 287 96 l 1,19,-1
 288 96 l 1,4,-1
EndSplineSet
EndChar

StartChar: p
Encoding: 112 112 113
Width: 575
VWidth: 0
Flags: W
LayerCount: 2
Fore
SplineSet
478 96 m 5,0,-1
 383 96 l 5,1,-1
 384 384 l 1,2,-1
 479 384 l 1,3,-1
 478 96 l 5,0,-1
287 96 m 5,4,-1
 382 96 l 5,5,-1
 382 0 l 5,6,-1
 287 0 l 5,7,-1
 286 0 l 5,8,-1
 286 -192 l 5,9,-1
 95 -192 l 5,10,-1
 96 480 l 1,11,-1
 383 480 l 1,12,-1
 383 384 l 1,13,-1
 288 384 l 1,14,-1
 287 384 l 1,15,-1
 286 96 l 5,16,-1
 287 96 l 5,4,-1
EndSplineSet
EndChar

StartChar: q
Encoding: 113 113 114
Width: 575
VWidth: 0
Flags: W
LayerCount: 2
Fore
SplineSet
288 384 m 1,0,-1
 192 384 l 1,1,-1
 192 480 l 1,2,-1
 479 480 l 1,3,-1
 479 -192 l 5,4,-1
 288 -192 l 5,5,-1
 288 0 l 5,6,-1
 288 0 l 5,7,-1
 192 0 l 5,8,-1
 192 96 l 5,9,-1
 288 96 l 5,10,-1
 288 96 l 5,11,-1
 288 384 l 1,12,-1
 288 384 l 1,0,-1
96 384 m 1,13,-1
 191 384 l 1,14,-1
 191 96 l 5,15,-1
 96 96 l 5,16,-1
 96 384 l 1,13,-1
EndSplineSet
EndChar

StartChar: r
Encoding: 114 114 115
Width: 575
VWidth: 0
Flags: W
LayerCount: 2
Fore
SplineSet
192 384 m 1,0,-1
 192 480 l 1,1,-1
 479 480 l 1,2,-1
 479 384 l 1,3,-1
 288 384 l 1,4,-1
 287 384 l 1,5,-1
 287 0 l 1,6,-1
 96 0 l 1,7,-1
 96 384 l 1,8,-1
 192 384 l 1,9,-1
 192 384 l 1,0,-1
EndSplineSet
EndChar

StartChar: s
Encoding: 115 115 116
Width: 575
VWidth: 0
Flags: W
LayerCount: 2
Fore
SplineSet
192 384 m 1,0,-1
 192 480 l 1,1,-1
 479 480 l 1,2,-1
 479 384 l 1,3,-1
 288 384 l 1,4,-1
 287 384 l 1,5,-1
 287 288 l 1,6,-1
 288 288 l 1,7,-1
 383 288 l 1,8,-1
 383 192 l 1,9,-1
 384 192 l 1,10,-1
 479 192 l 1,11,-1
 479 96 l 1,12,-1
 384 96 l 1,13,-1
 383 96 l 1,14,-1
 383 0 l 1,15,-1
 96 0 l 1,16,-1
 96 96 l 1,17,-1
 288 96 l 1,18,-1
 288 96 l 1,19,-1
 288 192 l 1,20,-1
 288 192 l 1,21,-1
 192 192 l 1,22,-1
 192 288 l 1,23,-1
 192 288 l 1,24,-1
 96 288 l 1,25,-1
 96 384 l 1,26,-1
 192 384 l 1,27,-1
 192 384 l 1,0,-1
EndSplineSet
EndChar

StartChar: t
Encoding: 116 116 117
Width: 575
VWidth: 0
Flags: W
LayerCount: 2
Fore
SplineSet
96 97 m 1,0,-1
 96 672 l 1,1,-1
 287 672 l 1,2,-1
 287 480 l 1,3,-1
 288 480 l 1,4,-1
 479 480 l 1,5,-1
 479 385 l 1,6,-1
 288 385 l 1,7,-1
 287 385 l 1,8,-1
 287 384 l 1,9,-1
 287 96 l 1,10,-1
 288 96 l 1,11,-1
 479 96 l 1,12,-1
 479 1 l 1,13,-1
 192 1 l 1,14,-1
 192 96 l 1,15,-1
 192 97 l 1,16,-1
 96 97 l 1,0,-1
EndSplineSet
EndChar

StartChar: u
Encoding: 117 117 118
Width: 574
VWidth: 0
Flags: W
LayerCount: 2
Fore
SplineSet
192 0 m 1,0,-1
 192 96 l 1,1,-1
 287 96 l 1,2,-1
 287 96 l 1,3,-1
 287 480 l 1,4,-1
 478 480 l 1,5,-1
 478 0 l 1,6,-1
 192 0 l 1,0,-1
191 480 m 1,7,-1
 191 96 l 1,8,-1
 96 96 l 1,9,-1
 96 480 l 1,10,-1
 191 480 l 1,7,-1
EndSplineSet
EndChar

StartChar: v
Encoding: 118 118 119
Width: 574
VWidth: 0
Flags: W
LayerCount: 2
Fore
SplineSet
478 192 m 1,0,-1
 383 192 l 1,1,-1
 383 480 l 1,2,-1
 478 480 l 1,3,-1
 478 192 l 1,0,-1
191 192 m 1,4,-1
 382 192 l 1,5,-1
 382 0 l 1,6,-1
 96 0 l 1,7,-1
 96 192 l 1,8,-1
 96 192 l 1,9,-1
 0 192 l 1,10,-1
 0 480 l 1,11,-1
 191 480 l 1,12,-1
 191 192 l 1,13,-1
 191 192 l 1,4,-1
EndSplineSet
EndChar

StartChar: w
Encoding: 119 119 120
Width: 574
VWidth: 0
Flags: W
LayerCount: 2
Fore
SplineSet
0 96 m 1,0,-1
 0 480 l 1,1,-1
 191 480 l 1,2,-1
 191 96 l 1,3,-1
 191 96 l 1,4,-1
 287 96 l 1,5,-1
 288 96 l 1,6,-1
 288 384 l 1,7,-1
 382 384 l 1,8,-1
 382 96 l 1,9,-1
 383 96 l 1,10,-1
 479 96 l 1,11,-1
 479 96 l 1,12,-1
 479 480 l 1,13,-1
 574 480 l 1,14,-1
 574 0 l 1,15,-1
 96 0 l 1,16,-1
 96 96 l 1,17,-1
 96 96 l 1,18,-1
 0 96 l 1,0,-1
EndSplineSet
EndChar

StartChar: x
Encoding: 120 120 121
Width: 574
VWidth: 0
Flags: W
LayerCount: 2
Fore
SplineSet
478 288 m 1,0,-1
 383 288 l 1,1,-1
 383 480 l 1,2,-1
 478 480 l 1,3,-1
 478 288 l 1,0,-1
96 192 m 1,4,-1
 191 192 l 1,5,-1
 191 0 l 1,6,-1
 96 0 l 1,7,-1
 96 192 l 1,4,-1
287 192 m 1,8,-1
 192 192 l 1,9,-1
 192 288 l 1,10,-1
 192 288 l 1,11,-1
 96 288 l 1,12,-1
 96 480 l 1,13,-1
 287 480 l 1,14,-1
 287 288 l 1,15,-1
 287 288 l 1,16,-1
 382 288 l 1,17,-1
 382 192 l 1,18,-1
 383 192 l 1,19,-1
 478 192 l 1,20,-1
 478 0 l 1,21,-1
 288 0 l 1,22,-1
 288 192 l 1,23,-1
 287 192 l 1,8,-1
EndSplineSet
EndChar

StartChar: y
Encoding: 121 121 122
Width: 574
VWidth: 0
Flags: W
LayerCount: 2
Fore
SplineSet
192 96 m 1,0,-1
 192 192 l 1,1,-1
 287 192 l 1,2,-1
 287 192 l 1,3,-1
 287 480 l 1,4,-1
 478 480 l 1,5,-1
 478 0 l 1,6,-1
 382 0 l 1,7,-1
 382 0 l 1,8,-1
 382 -96 l 1,9,-1
 192 -96 l 1,10,-1
 192 -1 l 1,11,-1
 287 -1 l 1,12,-1
 287 0 l 1,13,-1
 287 96 l 1,14,-1
 287 96 l 1,15,-1
 192 96 l 1,0,-1
191 480 m 1,16,-1
 191 192 l 1,17,-1
 96 192 l 1,18,-1
 96 480 l 1,19,-1
 191 480 l 1,16,-1
EndSplineSet
EndChar

StartChar: z
Encoding: 122 122 123
Width: 575
VWidth: 0
Flags: W
LayerCount: 2
Fore
SplineSet
96 384 m 1,0,-1
 96 480 l 1,1,-1
 479 480 l 1,2,-1
 479 288 l 1,3,-1
 384 288 l 1,4,-1
 383 288 l 1,5,-1
 383 192 l 1,6,-1
 288 192 l 1,7,-1
 287 192 l 1,8,-1
 287 96 l 1,9,-1
 288 96 l 1,10,-1
 479 96 l 1,11,-1
 479 0 l 1,12,-1
 96 0 l 1,13,-1
 96 192 l 1,14,-1
 192 192 l 1,15,-1
 192 192 l 1,16,-1
 192 288 l 1,17,-1
 288 288 l 1,18,-1
 288 288 l 1,19,-1
 288 384 l 1,20,-1
 288 384 l 1,21,-1
 96 384 l 1,0,-1
EndSplineSet
EndChar

StartChar: braceleft
Encoding: 123 123 124
Width: 576
VWidth: 0
Flags: W
LayerCount: 2
Fore
SplineSet
96 384 m 1,0,-1
 192 384 l 1,1,-1
 192 384 l 1,2,-1
 192 576 l 1,3,-1
 288 576 l 1,4,-1
 288 576 l 1,5,-1
 288 672 l 1,6,-1
 480 672 l 1,7,-1
 480 576 l 1,8,-1
 384 576 l 1,9,-1
 384 576 l 1,10,-1
 384 384 l 1,11,-1
 288 384 l 1,12,-1
 288 384 l 1,13,-1
 288 288 l 1,14,-1
 288 288 l 1,15,-1
 384 288 l 1,16,-1
 384 96 l 1,17,-1
 384 96 l 1,18,-1
 480 96 l 1,19,-1
 480 0 l 1,20,-1
 288 0 l 1,21,-1
 288 96 l 1,22,-1
 288 96 l 1,23,-1
 192 96 l 1,24,-1
 192 288 l 1,25,-1
 192 288 l 1,26,-1
 96 288 l 1,27,-1
 96 384 l 1,0,-1
EndSplineSet
EndChar

StartChar: bar
Encoding: 124 124 125
Width: 576
VWidth: 0
Flags: W
LayerCount: 2
Fore
SplineSet
192 576 m 1,0,-1
 384 576 l 1,1,-1
 384 -96 l 1,2,-1
 192 -96 l 1,3,-1
 192 576 l 1,0,-1
EndSplineSet
EndChar

StartChar: braceright
Encoding: 125 125 126
Width: 576
VWidth: 0
Flags: W
LayerCount: 2
Fore
SplineSet
96 672 m 1,0,-1
 288 672 l 1,1,-1
 288 576 l 1,2,-1
 288 576 l 1,3,-1
 384 576 l 1,4,-1
 384 384 l 1,5,-1
 384 384 l 1,6,-1
 480 384 l 1,7,-1
 480 288 l 1,8,-1
 384 288 l 1,9,-1
 384 288 l 1,10,-1
 384 96 l 1,11,-1
 288 96 l 1,12,-1
 288 96 l 1,13,-1
 288 0 l 1,14,-1
 96 0 l 1,15,-1
 96 96 l 1,16,-1
 192 96 l 1,17,-1
 192 96 l 1,18,-1
 192 288 l 1,19,-1
 288 288 l 1,20,-1
 288 288 l 1,21,-1
 288 384 l 1,22,-1
 288 384 l 1,23,-1
 192 384 l 1,24,-1
 192 576 l 1,25,-1
 192 576 l 1,26,-1
 96 576 l 1,27,-1
 96 672 l 1,0,-1
EndSplineSet
EndChar

StartChar: asciitilde
Encoding: 126 126 127
Width: 576
VWidth: 0
Flags: W
LayerCount: 2
Fore
SplineSet
480 288 m 1,0,-1
 480 384 l 1,1,-1
 576 384 l 1,2,-1
 576 288 l 1,3,-1
 480 288 l 1,0,-1
480 288 m 1,4,-1
 480 192 l 1,5,-1
 288 192 l 1,6,-1
 288 288 l 1,7,-1
 288 288 l 1,8,-1
 192 288 l 1,9,-1
 192 384 l 1,10,-1
 384 384 l 1,11,-1
 384 288 l 1,12,-1
 384 288 l 1,13,-1
 480 288 l 1,4,-1
192 288 m 1,14,-1
 192 192 l 1,15,-1
 96 192 l 1,16,-1
 96 288 l 1,17,-1
 192 288 l 1,14,-1
EndSplineSet
EndChar

StartChar: Euro
Encoding: 8364 8364 165
Width: 576
VWidth: 0
Flags: W
LayerCount: 2
Fore
SplineSet
0 0 m 1,0,-1
 0 96 l 1,1,-1
 96 96 l 1,2,-1
 96 0 l 1,3,-1
 0 0 l 1,0,-1
EndSplineSet
EndChar

StartChar: questiondown
Encoding: 191 191 192
Width: 576
VWidth: 0
Flags: W
LayerCount: 2
Fore
SplineSet
384 0 m 1,0,-1
 384 96 l 1,1,-1
 480 96 l 1,2,-1
 480 0 l 1,3,-1
 384 0 l 1,0,-1
384 0 m 1,4,-1
 384 -96 l 1,5,-1
 192 -96 l 1,6,-1
 192 0 l 1,7,-1
 384 0 l 1,4,-1
192 0 m 1,8,-1
 96 0 l 1,9,-1
 96 192 l 1,10,-1
 192 192 l 1,11,-1
 192 0 l 1,8,-1
192 192 m 1,12,-1
 192 288 l 1,13,-1
 288 288 l 1,14,-1
 288 192 l 1,15,-1
 192 192 l 1,12,-1
288 288 m 1,16,-1
 288 384 l 1,17,-1
 384 384 l 1,18,-1
 384 288 l 1,19,-1
 288 288 l 1,16,-1
288 576 m 1,20,-1
 384 576 l 1,21,-1
 384 480 l 1,22,-1
 288 480 l 1,23,-1
 288 576 l 1,20,-1
EndSplineSet
EndChar

StartChar: Agrave
Encoding: 192 192 193
Width: 574
VWidth: 0
Flags: W
LayerCount: 2
Fore
SplineSet
288 577 m 1,0,-1
 288 672 l 1,1,-1
 382 672 l 1,2,-1
 382 577 l 1,3,-1
 288 577 l 1,0,-1
287 768 m 1,4,-1
 287 673 l 1,5,-1
 192 673 l 1,6,-1
 192 768 l 1,7,-1
 287 768 l 1,4,-1
96 0 m 1,8,-1
 96 480 l 1,9,-1
 192 480 l 1,10,-1
 192 480 l 1,11,-1
 192 576 l 1,12,-1
 382 576 l 1,13,-1
 382 480 l 1,14,-1
 287 480 l 1,15,-1
 287 480 l 1,16,-1
 287 288 l 1,17,-1
 287 288 l 1,18,-1
 383 288 l 1,19,-1
 383 288 l 1,20,-1
 383 480 l 1,21,-1
 478 480 l 1,22,-1
 478 0 l 1,23,-1
 383 0 l 1,24,-1
 383 192 l 1,25,-1
 383 192 l 1,26,-1
 287 192 l 1,27,-1
 287 192 l 1,28,-1
 287 0 l 1,29,-1
 96 0 l 1,8,-1
EndSplineSet
EndChar

StartChar: Aacute
Encoding: 193 193 194
Width: 574
VWidth: 0
Flags: W
LayerCount: 2
Fore
SplineSet
382 673 m 1,0,-1
 288 673 l 1,1,-1
 288 768 l 1,2,-1
 382 768 l 1,3,-1
 382 673 l 1,0,-1
192 672 m 1,4,-1
 287 672 l 1,5,-1
 287 577 l 1,6,-1
 192 577 l 1,7,-1
 192 672 l 1,4,-1
96 0 m 1,8,-1
 96 480 l 1,9,-1
 192 480 l 1,10,-1
 192 480 l 1,11,-1
 192 576 l 1,12,-1
 382 576 l 1,13,-1
 382 480 l 1,14,-1
 287 480 l 1,15,-1
 287 480 l 1,16,-1
 287 288 l 1,17,-1
 287 288 l 1,18,-1
 383 288 l 1,19,-1
 383 288 l 1,20,-1
 383 480 l 1,21,-1
 478 480 l 1,22,-1
 478 0 l 1,23,-1
 383 0 l 1,24,-1
 383 192 l 1,25,-1
 383 192 l 1,26,-1
 287 192 l 1,27,-1
 287 192 l 1,28,-1
 287 0 l 1,29,-1
 96 0 l 1,8,-1
EndSplineSet
EndChar

StartChar: Acircumflex
Encoding: 194 194 195
Width: 574
VWidth: 0
Flags: W
LayerCount: 2
Fore
SplineSet
383 577 m 1,0,-1
 383 672 l 1,1,-1
 478 672 l 1,2,-1
 478 577 l 1,3,-1
 383 577 l 1,0,-1
382 768 m 1,4,-1
 382 673 l 1,5,-1
 192 673 l 1,6,-1
 192 768 l 1,7,-1
 382 768 l 1,4,-1
96 672 m 1,8,-1
 191 672 l 1,9,-1
 191 577 l 1,10,-1
 96 577 l 1,11,-1
 96 672 l 1,8,-1
96 0 m 1,12,-1
 96 480 l 1,13,-1
 192 480 l 1,14,-1
 192 480 l 1,15,-1
 192 576 l 1,16,-1
 382 576 l 1,17,-1
 382 480 l 1,18,-1
 287 480 l 1,19,-1
 287 480 l 1,20,-1
 287 288 l 1,21,-1
 287 288 l 1,22,-1
 383 288 l 1,23,-1
 383 288 l 1,24,-1
 383 480 l 1,25,-1
 478 480 l 1,26,-1
 478 0 l 1,27,-1
 383 0 l 1,28,-1
 383 192 l 1,29,-1
 383 192 l 1,30,-1
 287 192 l 1,31,-1
 287 192 l 1,32,-1
 287 0 l 1,33,-1
 96 0 l 1,12,-1
EndSplineSet
EndChar

StartChar: Atilde
Encoding: 195 195 196
Width: 574
VWidth: 0
Flags: W
LayerCount: 2
Fore
SplineSet
97 0 m 1,0,-1
 97 480 l 1,1,-1
 192 480 l 1,2,-1
 193 480 l 1,3,-1
 193 576 l 1,4,-1
 383 576 l 1,5,-1
 383 480 l 1,6,-1
 288 480 l 1,7,-1
 288 480 l 1,8,-1
 288 288 l 1,9,-1
 288 288 l 1,10,-1
 384 288 l 1,11,-1
 384 288 l 1,12,-1
 384 480 l 1,13,-1
 479 480 l 1,14,-1
 479 0 l 1,15,-1
 384 0 l 1,16,-1
 384 192 l 1,17,-1
 384 192 l 1,18,-1
 288 192 l 1,19,-1
 288 192 l 1,20,-1
 288 0 l 1,21,-1
 97 0 l 1,0,-1
97 672 m 1,22,-1
 192 672 l 1,23,-1
 192 577 l 1,24,-1
 97 577 l 1,25,-1
 97 672 l 1,22,-1
288 768 m 1,26,-1
 288 673 l 1,27,-1
 193 673 l 1,28,-1
 193 768 l 1,29,-1
 288 768 l 1,26,-1
289 672 m 1,30,-1
 383 672 l 1,31,-1
 383 577 l 1,32,-1
 289 577 l 1,33,-1
 289 672 l 1,30,-1
479 673 m 1,34,-1
 384 673 l 1,35,-1
 384 768 l 1,36,-1
 479 768 l 1,37,-1
 479 673 l 1,34,-1
96 672 m 1,38,-1
 96 673 l 1,39,-1
 97 673 l 1,40,-1
 97 672 l 1,41,-1
 96 672 l 1,38,-1
EndSplineSet
EndChar

StartChar: null.dup1
Encoding: 196 196 197
Width: 574
VWidth: 0
Flags: W
LayerCount: 2
Fore
SplineSet
478 673 m 1,0,-1
 383 673 l 1,1,-1
 383 768 l 1,2,-1
 478 768 l 1,3,-1
 478 673 l 1,0,-1
287 673 m 1,4,-1
 192 673 l 1,5,-1
 192 768 l 1,6,-1
 287 768 l 1,7,-1
 287 673 l 1,4,-1
96 0 m 1,8,-1
 96 480 l 1,9,-1
 192 480 l 1,10,-1
 192 480 l 1,11,-1
 192 576 l 1,12,-1
 382 576 l 1,13,-1
 382 480 l 1,14,-1
 287 480 l 1,15,-1
 287 480 l 1,16,-1
 287 288 l 1,17,-1
 287 288 l 1,18,-1
 383 288 l 1,19,-1
 383 288 l 1,20,-1
 383 480 l 1,21,-1
 478 480 l 1,22,-1
 478 0 l 1,23,-1
 383 0 l 1,24,-1
 383 192 l 1,25,-1
 383 192 l 1,26,-1
 287 192 l 1,27,-1
 287 192 l 1,28,-1
 287 0 l 1,29,-1
 96 0 l 1,8,-1
EndSplineSet
EndChar

StartChar: Aring
Encoding: 197 197 198
Width: 574
VWidth: 0
Flags: W
LayerCount: 2
Fore
SplineSet
382 675 m 5,0,-1
 288 675 l 5,1,-1
 288 770 l 5,2,-1
 382 770 l 5,3,-1
 382 675 l 5,0,-1
192 674 m 5,4,-1
 287 674 l 5,5,-1
 287 579 l 5,6,-1
 192 579 l 5,7,-1
 192 674 l 5,4,-1
478 579 m 5,8,-1
 383 579 l 5,9,-1
 383 674 l 5,10,-1
 478 674 l 5,11,-1
 478 579 l 5,8,-1
288 578 m 5,12,-1
 382 578 l 5,13,-1
 382 386 l 5,14,-1
 287 386 l 5,15,-1
 287 386 l 5,16,-1
 287 290 l 5,17,-1
 287 290 l 5,18,-1
 383 290 l 5,19,-1
 383 290 l 5,20,-1
 383 386 l 5,21,-1
 478 386 l 5,22,-1
 478 0 l 1,23,-1
 383 0 l 1,24,-1
 383 192 l 1,25,-1
 383 192 l 1,26,-1
 287 192 l 1,27,-1
 287 192 l 1,28,-1
 287 0 l 1,29,-1
 96 0 l 1,30,-1
 96 386 l 5,31,-1
 192 386 l 5,32,-1
 192 386 l 5,33,-1
 192 482 l 5,34,-1
 287 482 l 5,35,-1
 288 482 l 5,36,-1
 288 578 l 5,12,-1
EndSplineSet
EndChar

StartChar: AE
Encoding: 198 198 199
Width: 574
VWidth: 0
Flags: W
LayerCount: 2
Fore
SplineSet
95 0 m 1,0,-1
 0 0 l 1,1,-1
 0 384 l 1,2,-1
 0 480 l 1,3,-1
 95 480 l 1,4,-1
 95 288 l 1,5,-1
 95 288 l 1,6,-1
 191 288 l 1,7,-1
 191 288 l 1,8,-1
 191 480 l 1,9,-1
 191 480 l 1,10,-1
 96 480 l 1,11,-1
 96 576 l 1,12,-1
 478 576 l 1,13,-1
 478 480 l 1,14,-1
 382 480 l 1,15,-1
 382 480 l 1,16,-1
 382 288 l 1,17,-1
 382 288 l 1,18,-1
 478 288 l 1,19,-1
 478 192 l 1,20,-1
 382 192 l 1,21,-1
 382 192 l 1,22,-1
 382 96 l 1,23,-1
 382 96 l 1,24,-1
 478 96 l 1,25,-1
 478 0 l 1,26,-1
 191 0 l 1,27,-1
 191 192 l 1,28,-1
 191 192 l 1,29,-1
 95 192 l 1,30,-1
 95 192 l 1,31,-1
 95 0 l 1,0,-1
EndSplineSet
EndChar

StartChar: Ccedilla
Encoding: 199 199 200
Width: 575
VWidth: 0
Flags: W
LayerCount: 2
Fore
SplineSet
383 -96 m 1,0,-1
 288 -96 l 1,1,-1
 288 -1 l 1,2,-1
 383 -1 l 1,3,-1
 383 -96 l 1,0,-1
192 -97 m 1,4,-1
 287 -97 l 1,5,-1
 287 -192 l 1,6,-1
 192 -192 l 1,7,-1
 192 -97 l 1,4,-1
192 480 m 1,8,-1
 192 576 l 1,9,-1
 479 576 l 1,10,-1
 479 480 l 1,11,-1
 288 480 l 1,12,-1
 287 480 l 1,13,-1
 287 96 l 1,14,-1
 288 96 l 1,15,-1
 479 96 l 1,16,-1
 479 0 l 1,17,-1
 192 0 l 1,18,-1
 192 96 l 1,19,-1
 192 96 l 1,20,-1
 96 96 l 1,21,-1
 96 480 l 1,22,-1
 192 480 l 1,23,-1
 192 480 l 1,8,-1
EndSplineSet
EndChar

StartChar: Egrave
Encoding: 200 200 201
Width: 575
VWidth: 0
Flags: W
LayerCount: 2
Fore
SplineSet
288 577 m 1,0,-1
 288 672 l 1,1,-1
 383 672 l 1,2,-1
 383 577 l 1,3,-1
 288 577 l 1,0,-1
287 768 m 1,4,-1
 287 673 l 1,5,-1
 192 673 l 1,6,-1
 192 768 l 1,7,-1
 287 768 l 1,4,-1
96 0 m 1,8,-1
 96 576 l 1,9,-1
 479 576 l 1,10,-1
 479 480 l 1,11,-1
 288 480 l 1,12,-1
 287 480 l 1,13,-1
 287 384 l 1,14,-1
 288 384 l 1,15,-1
 383 384 l 1,16,-1
 383 288 l 1,17,-1
 288 288 l 1,18,-1
 287 288 l 1,19,-1
 287 96 l 1,20,-1
 288 96 l 1,21,-1
 479 96 l 1,22,-1
 479 0 l 1,23,-1
 96 0 l 1,8,-1
EndSplineSet
EndChar

StartChar: Eacute
Encoding: 201 201 202
Width: 575
VWidth: 0
Flags: W
LayerCount: 2
Fore
SplineSet
383 673 m 1,0,-1
 288 673 l 1,1,-1
 288 768 l 1,2,-1
 383 768 l 1,3,-1
 383 673 l 1,0,-1
192 672 m 1,4,-1
 287 672 l 1,5,-1
 287 577 l 1,6,-1
 192 577 l 1,7,-1
 192 672 l 1,4,-1
96 0 m 1,8,-1
 96 576 l 1,9,-1
 192 576 l 1,10,-1
 479 576 l 1,11,-1
 479 480 l 1,12,-1
 288 480 l 1,13,-1
 287 480 l 1,14,-1
 287 384 l 1,15,-1
 288 384 l 1,16,-1
 383 384 l 1,17,-1
 383 288 l 1,18,-1
 288 288 l 1,19,-1
 287 288 l 1,20,-1
 287 96 l 1,21,-1
 288 96 l 1,22,-1
 479 96 l 1,23,-1
 479 0 l 1,24,-1
 96 0 l 1,8,-1
EndSplineSet
EndChar

StartChar: Ecircumflex
Encoding: 202 202 203
Width: 575
VWidth: 0
Flags: W
LayerCount: 2
Fore
SplineSet
384 577 m 1,0,-1
 384 672 l 1,1,-1
 479 672 l 1,2,-1
 479 577 l 1,3,-1
 384 577 l 1,0,-1
383 768 m 1,4,-1
 383 673 l 1,5,-1
 192 673 l 1,6,-1
 192 768 l 1,7,-1
 383 768 l 1,4,-1
96 672 m 1,8,-1
 191 672 l 1,9,-1
 191 577 l 1,10,-1
 96 577 l 1,11,-1
 96 672 l 1,8,-1
96 0 m 1,12,-1
 96 576 l 1,13,-1
 479 576 l 1,14,-1
 479 480 l 1,15,-1
 288 480 l 1,16,-1
 287 480 l 1,17,-1
 287 384 l 1,18,-1
 288 384 l 1,19,-1
 383 384 l 1,20,-1
 383 288 l 1,21,-1
 288 288 l 1,22,-1
 287 288 l 1,23,-1
 287 96 l 1,24,-1
 288 96 l 1,25,-1
 479 96 l 1,26,-1
 479 0 l 1,27,-1
 96 0 l 1,12,-1
EndSplineSet
EndChar

StartChar: Edieresis
Encoding: 203 203 204
Width: 575
VWidth: 0
Flags: W
LayerCount: 2
Fore
SplineSet
479 673 m 1,0,-1
 384 673 l 1,1,-1
 384 768 l 1,2,-1
 479 768 l 1,3,-1
 479 673 l 1,0,-1
287 673 m 1,4,-1
 192 673 l 1,5,-1
 192 768 l 1,6,-1
 287 768 l 1,7,-1
 287 673 l 1,4,-1
96 0 m 1,8,-1
 96 576 l 1,9,-1
 479 576 l 1,10,-1
 479 480 l 1,11,-1
 288 480 l 1,12,-1
 287 480 l 1,13,-1
 287 384 l 1,14,-1
 288 384 l 1,15,-1
 383 384 l 1,16,-1
 383 288 l 1,17,-1
 288 288 l 1,18,-1
 287 288 l 1,19,-1
 287 96 l 1,20,-1
 288 96 l 1,21,-1
 479 96 l 1,22,-1
 479 0 l 1,23,-1
 96 0 l 1,8,-1
EndSplineSet
EndChar

StartChar: Igrave
Encoding: 204 204 205
Width: 575
VWidth: 0
Flags: W
LayerCount: 2
Fore
SplineSet
288 577 m 5,0,-1
 288 672 l 5,1,-1
 383 672 l 5,2,-1
 383 577 l 5,3,-1
 288 577 l 5,0,-1
287 768 m 5,4,-1
 287 673 l 5,5,-1
 192 673 l 5,6,-1
 192 768 l 5,7,-1
 287 768 l 5,4,-1
192 0 m 1,8,-1
 192 480 l 5,9,-1
 383 480 l 5,10,-1
 383 0 l 1,11,-1
 192 0 l 1,8,-1
EndSplineSet
EndChar

StartChar: Iacute
Encoding: 205 205 206
Width: 575
VWidth: 0
Flags: W
LayerCount: 2
Fore
SplineSet
383 673 m 5,0,-1
 288 673 l 5,1,-1
 288 768 l 5,2,-1
 383 768 l 5,3,-1
 383 673 l 5,0,-1
192 672 m 5,4,-1
 287 672 l 5,5,-1
 287 577 l 5,6,-1
 192 577 l 5,7,-1
 192 672 l 5,4,-1
192 0 m 1,8,-1
 192 480 l 5,9,-1
 383 480 l 5,10,-1
 383 0 l 1,11,-1
 192 0 l 1,8,-1
EndSplineSet
EndChar

StartChar: Icircumflex
Encoding: 206 206 207
Width: 575
VWidth: 0
Flags: W
LayerCount: 2
Fore
SplineSet
385 576 m 5,0,-1
 385 671 l 5,1,-1
 480 671 l 5,2,-1
 480 576 l 5,3,-1
 385 576 l 5,0,-1
384 767 m 5,4,-1
 384 672 l 5,5,-1
 193 672 l 5,6,-1
 193 767 l 5,7,-1
 384 767 l 5,4,-1
97 671 m 5,8,-1
 192 671 l 5,9,-1
 192 576 l 5,10,-1
 97 576 l 5,11,-1
 97 671 l 5,8,-1
192 0 m 1,12,-1
 193 479 l 5,13,-1
 384 479 l 5,14,-1
 383 0 l 1,15,-1
 192 0 l 1,12,-1
EndSplineSet
EndChar

StartChar: Idieresis
Encoding: 207 207 208
Width: 575
VWidth: 0
Flags: W
LayerCount: 2
Fore
SplineSet
479 672 m 5,0,-1
 384 672 l 5,1,-1
 384 767 l 5,2,-1
 479 767 l 5,3,-1
 479 672 l 5,0,-1
287 672 m 5,4,-1
 192 672 l 5,5,-1
 192 767 l 5,6,-1
 287 767 l 5,7,-1
 287 672 l 5,4,-1
192 0 m 1,8,-1
 192 575 l 5,9,-1
 383 575 l 5,10,-1
 383 0 l 1,11,-1
 192 0 l 1,8,-1
EndSplineSet
EndChar

StartChar: Eth
Encoding: 208 208 209
Width: 575
VWidth: 0
Flags: W
LayerCount: 2
Fore
SplineSet
575 96 m 1,0,-1
 480 96 l 1,1,-1
 480 480 l 1,2,-1
 575 480 l 1,3,-1
 575 96 l 1,0,-1
288 96 m 1,4,-1
 479 96 l 1,5,-1
 479 0 l 1,6,-1
 96 0 l 1,7,-1
 96 288 l 1,8,-1
 96 288 l 1,9,-1
 0 288 l 1,10,-1
 0 384 l 1,11,-1
 96 384 l 1,12,-1
 96 384 l 1,13,-1
 96 576 l 1,14,-1
 479 576 l 1,15,-1
 479 480 l 1,16,-1
 288 480 l 1,17,-1
 287 480 l 1,18,-1
 287 384 l 1,19,-1
 288 384 l 1,20,-1
 383 384 l 1,21,-1
 383 288 l 1,22,-1
 288 288 l 1,23,-1
 287 288 l 1,24,-1
 287 96 l 1,25,-1
 288 96 l 1,4,-1
EndSplineSet
EndChar

StartChar: Ntilde
Encoding: 209 209 210
Width: 574
VWidth: 0
Flags: W
LayerCount: 2
Fore
SplineSet
574 673 m 1,0,-1
 479 673 l 1,1,-1
 479 768 l 1,2,-1
 574 768 l 1,3,-1
 574 673 l 1,0,-1
383 672 m 1,4,-1
 478 672 l 1,5,-1
 478 577 l 1,6,-1
 383 577 l 1,7,-1
 383 672 l 1,4,-1
383 768 m 1,8,-1
 383 673 l 1,9,-1
 288 673 l 1,10,-1
 288 768 l 1,11,-1
 383 768 l 1,8,-1
192 672 m 1,12,-1
 287 672 l 1,13,-1
 287 577 l 1,14,-1
 192 577 l 1,15,-1
 192 672 l 1,12,-1
383 192 m 1,16,-1
 383 288 l 1,17,-1
 479 288 l 1,18,-1
 479 288 l 1,19,-1
 479 576 l 1,20,-1
 574 576 l 1,21,-1
 574 0 l 1,22,-1
 479 0 l 1,23,-1
 479 192 l 1,24,-1
 479 192 l 1,25,-1
 383 192 l 1,16,-1
383 384 m 1,26,-1
 383 288 l 1,27,-1
 287 288 l 1,28,-1
 287 288 l 1,29,-1
 287 0 l 1,30,-1
 96 0 l 1,31,-1
 96 576 l 1,32,-1
 287 576 l 1,33,-1
 287 384 l 1,34,-1
 287 384 l 1,35,-1
 383 384 l 1,26,-1
EndSplineSet
EndChar

StartChar: Ograve
Encoding: 210 210 211
Width: 575
VWidth: 0
Flags: W
LayerCount: 2
Fore
SplineSet
288 577 m 1,0,-1
 288 672 l 1,1,-1
 383 672 l 1,2,-1
 383 577 l 1,3,-1
 288 577 l 1,0,-1
287 768 m 1,4,-1
 287 673 l 1,5,-1
 192 673 l 1,6,-1
 192 768 l 1,7,-1
 287 768 l 1,4,-1
479 96 m 1,8,-1
 384 96 l 1,9,-1
 384 480 l 1,10,-1
 479 480 l 1,11,-1
 479 96 l 1,8,-1
288 96 m 1,12,-1
 383 96 l 1,13,-1
 383 0 l 1,14,-1
 192 0 l 1,15,-1
 192 96 l 1,16,-1
 192 96 l 1,17,-1
 96 96 l 1,18,-1
 96 480 l 1,19,-1
 192 480 l 1,20,-1
 192 480 l 1,21,-1
 192 576 l 1,22,-1
 383 576 l 1,23,-1
 383 480 l 1,24,-1
 288 480 l 1,25,-1
 287 480 l 1,26,-1
 287 96 l 1,27,-1
 288 96 l 1,12,-1
EndSplineSet
EndChar

StartChar: Oacute
Encoding: 211 211 212
Width: 575
VWidth: 0
Flags: W
LayerCount: 2
Fore
SplineSet
383 673 m 1,0,-1
 288 673 l 1,1,-1
 288 768 l 1,2,-1
 383 768 l 1,3,-1
 383 673 l 1,0,-1
192 672 m 1,4,-1
 287 672 l 1,5,-1
 287 577 l 1,6,-1
 192 577 l 1,7,-1
 192 672 l 1,4,-1
479 96 m 1,8,-1
 384 96 l 1,9,-1
 384 480 l 1,10,-1
 479 480 l 1,11,-1
 479 96 l 1,8,-1
288 96 m 1,12,-1
 383 96 l 1,13,-1
 383 0 l 1,14,-1
 192 0 l 1,15,-1
 192 96 l 1,16,-1
 192 96 l 1,17,-1
 96 96 l 1,18,-1
 96 480 l 1,19,-1
 192 480 l 1,20,-1
 192 480 l 1,21,-1
 192 576 l 1,22,-1
 383 576 l 1,23,-1
 383 480 l 1,24,-1
 288 480 l 1,25,-1
 287 480 l 1,26,-1
 287 96 l 1,27,-1
 288 96 l 1,12,-1
EndSplineSet
EndChar

StartChar: Ocircumflex
Encoding: 212 212 213
Width: 575
VWidth: 0
Flags: W
LayerCount: 2
Fore
SplineSet
384 577 m 1,0,-1
 384 672 l 1,1,-1
 479 672 l 1,2,-1
 479 577 l 1,3,-1
 384 577 l 1,0,-1
383 768 m 1,4,-1
 383 673 l 1,5,-1
 192 673 l 1,6,-1
 192 768 l 1,7,-1
 383 768 l 1,4,-1
96 672 m 1,8,-1
 191 672 l 1,9,-1
 191 577 l 1,10,-1
 96 577 l 1,11,-1
 96 672 l 1,8,-1
479 96 m 1,12,-1
 384 96 l 1,13,-1
 384 480 l 1,14,-1
 479 480 l 1,15,-1
 479 96 l 1,12,-1
288 96 m 1,16,-1
 383 96 l 1,17,-1
 383 0 l 1,18,-1
 192 0 l 1,19,-1
 192 96 l 1,20,-1
 192 96 l 1,21,-1
 96 96 l 1,22,-1
 96 480 l 1,23,-1
 192 480 l 1,24,-1
 192 480 l 1,25,-1
 192 576 l 1,26,-1
 383 576 l 1,27,-1
 383 480 l 1,28,-1
 288 480 l 1,29,-1
 287 480 l 1,30,-1
 287 96 l 1,31,-1
 288 96 l 1,16,-1
EndSplineSet
EndChar

StartChar: Otilde
Encoding: 213 213 214
Width: 575
VWidth: 0
Flags: W
LayerCount: 2
Fore
SplineSet
479 673 m 1,0,-1
 384 673 l 1,1,-1
 384 768 l 1,2,-1
 479 768 l 1,3,-1
 479 673 l 1,0,-1
288 672 m 1,4,-1
 383 672 l 1,5,-1
 383 577 l 1,6,-1
 288 577 l 1,7,-1
 288 672 l 1,4,-1
287 768 m 1,8,-1
 287 673 l 1,9,-1
 192 673 l 1,10,-1
 192 768 l 1,11,-1
 287 768 l 1,8,-1
96 672 m 1,12,-1
 191 672 l 1,13,-1
 191 577 l 1,14,-1
 96 577 l 1,15,-1
 96 672 l 1,12,-1
479 96 m 1,16,-1
 384 96 l 1,17,-1
 384 480 l 1,18,-1
 479 480 l 1,19,-1
 479 96 l 1,16,-1
288 96 m 1,20,-1
 383 96 l 1,21,-1
 383 0 l 1,22,-1
 192 0 l 1,23,-1
 192 96 l 1,24,-1
 192 96 l 1,25,-1
 96 96 l 1,26,-1
 96 480 l 1,27,-1
 192 480 l 1,28,-1
 192 480 l 1,29,-1
 192 576 l 1,30,-1
 383 576 l 1,31,-1
 383 480 l 1,32,-1
 288 480 l 1,33,-1
 287 480 l 1,34,-1
 287 96 l 1,35,-1
 288 96 l 1,20,-1
EndSplineSet
EndChar

StartChar: Odieresis
Encoding: 214 214 215
Width: 575
VWidth: 0
Flags: W
LayerCount: 2
Fore
SplineSet
384 673 m 1,0,-1
 384 768 l 1,1,-1
 479 768 l 1,2,-1
 479 673 l 1,3,-1
 384 673 l 1,0,-1
192 673 m 1,4,-1
 192 768 l 1,5,-1
 287 768 l 1,6,-1
 287 673 l 1,7,-1
 192 673 l 1,4,-1
479 96 m 1,8,-1
 384 96 l 1,9,-1
 384 480 l 1,10,-1
 479 480 l 1,11,-1
 479 96 l 1,8,-1
288 96 m 1,12,-1
 383 96 l 1,13,-1
 383 0 l 1,14,-1
 192 0 l 1,15,-1
 192 96 l 1,16,-1
 192 96 l 1,17,-1
 96 96 l 1,18,-1
 96 480 l 1,19,-1
 192 480 l 1,20,-1
 192 480 l 1,21,-1
 192 576 l 1,22,-1
 383 576 l 1,23,-1
 383 480 l 1,24,-1
 288 480 l 1,25,-1
 287 480 l 1,26,-1
 287 96 l 1,27,-1
 288 96 l 1,12,-1
EndSplineSet
EndChar

StartChar: multiply
Encoding: 215 215 216
Width: 574
VWidth: 0
Flags: W
LayerCount: 2
Fore
SplineSet
382 288 m 1,0,-1
 288 288 l 1,1,-1
 288 384 l 1,2,-1
 382 384 l 1,3,-1
 382 288 l 1,0,-1
478 384 m 1,4,-1
 383 384 l 1,5,-1
 383 480 l 1,6,-1
 478 480 l 1,7,-1
 478 384 l 1,4,-1
383 192 m 1,8,-1
 383 288 l 1,9,-1
 478 288 l 1,10,-1
 478 192 l 1,11,-1
 383 192 l 1,8,-1
192 288 m 1,12,-1
 287 288 l 1,13,-1
 287 192 l 1,14,-1
 192 192 l 1,15,-1
 192 288 l 1,12,-1
287 480 m 1,16,-1
 287 384 l 1,17,-1
 192 384 l 1,18,-1
 192 480 l 1,19,-1
 287 480 l 1,16,-1
EndSplineSet
EndChar

StartChar: Oslash
Encoding: 216 216 217
Width: 574
VWidth: 0
Flags: W
LayerCount: 2
Fore
SplineSet
574 480 m 1,0,-1
 479 480 l 1,1,-1
 479 576 l 1,2,-1
 574 576 l 1,3,-1
 574 480 l 1,0,-1
384 480 m 1,4,-1
 478 480 l 1,5,-1
 479 96 l 1,6,-1
 384 96 l 1,7,-1
 384 288 l 1,8,-1
 383 288 l 1,9,-1
 288 288 l 1,10,-1
 287 288 l 1,11,-1
 287 96 l 1,12,-1
 288 96 l 1,13,-1
 383 96 l 1,14,-1
 383 0 l 1,15,-1
 192 0 l 1,16,-1
 192 96 l 1,17,-1
 192 96 l 1,18,-1
 96 96 l 1,19,-1
 96 480 l 1,20,-1
 192 480 l 1,21,-1
 192 480 l 1,22,-1
 192 576 l 1,23,-1
 383 576 l 1,24,-1
 383 480 l 1,25,-1
 288 480 l 1,26,-1
 287 480 l 1,27,-1
 287 384 l 1,28,-1
 288 384 l 1,29,-1
 383 384 l 1,30,-1
 384 384 l 1,31,-1
 384 480 l 1,4,-1
0 96 m 1,32,-1
 95 96 l 1,33,-1
 95 0 l 1,34,-1
 0 0 l 1,35,-1
 0 96 l 1,32,-1
EndSplineSet
EndChar

StartChar: Ugrave
Encoding: 217 217 218
Width: 574
VWidth: 0
Flags: W
LayerCount: 2
Fore
SplineSet
288 577 m 1,0,-1
 288 672 l 1,1,-1
 382 672 l 1,2,-1
 382 577 l 1,3,-1
 288 577 l 1,0,-1
287 768 m 1,4,-1
 287 673 l 1,5,-1
 192 673 l 1,6,-1
 192 768 l 1,7,-1
 287 768 l 1,4,-1
96 96 m 1,8,-1
 96 576 l 1,9,-1
 287 576 l 1,10,-1
 287 96 l 1,11,-1
 287 96 l 1,12,-1
 383 96 l 1,13,-1
 383 96 l 1,14,-1
 383 576 l 1,15,-1
 478 576 l 1,16,-1
 478 0 l 1,17,-1
 192 0 l 1,18,-1
 192 96 l 1,19,-1
 192 96 l 1,20,-1
 96 96 l 1,8,-1
EndSplineSet
EndChar

StartChar: Uacute
Encoding: 218 218 219
Width: 574
VWidth: 0
Flags: W
LayerCount: 2
Fore
SplineSet
382 673 m 1,0,-1
 288 673 l 1,1,-1
 288 768 l 1,2,-1
 382 768 l 1,3,-1
 382 673 l 1,0,-1
192 672 m 1,4,-1
 287 672 l 1,5,-1
 287 577 l 1,6,-1
 192 577 l 1,7,-1
 192 672 l 1,4,-1
96 96 m 1,8,-1
 96 576 l 1,9,-1
 287 576 l 1,10,-1
 287 96 l 1,11,-1
 287 96 l 1,12,-1
 383 96 l 1,13,-1
 383 96 l 1,14,-1
 383 576 l 1,15,-1
 478 576 l 1,16,-1
 478 0 l 1,17,-1
 192 0 l 1,18,-1
 192 96 l 1,19,-1
 192 96 l 1,20,-1
 96 96 l 1,8,-1
EndSplineSet
EndChar

StartChar: Ucircumflex
Encoding: 219 219 220
Width: 574
VWidth: 0
Flags: W
LayerCount: 2
Fore
SplineSet
383 577 m 1,0,-1
 383 672 l 1,1,-1
 478 672 l 1,2,-1
 478 577 l 1,3,-1
 383 577 l 1,0,-1
382 768 m 1,4,-1
 382 673 l 1,5,-1
 192 673 l 1,6,-1
 192 768 l 1,7,-1
 382 768 l 1,4,-1
96 672 m 1,8,-1
 191 672 l 1,9,-1
 191 577 l 1,10,-1
 96 577 l 1,11,-1
 96 672 l 1,8,-1
96 96 m 1,12,-1
 96 576 l 1,13,-1
 287 576 l 1,14,-1
 287 96 l 1,15,-1
 287 96 l 1,16,-1
 383 96 l 1,17,-1
 383 96 l 1,18,-1
 383 576 l 1,19,-1
 478 576 l 1,20,-1
 478 0 l 1,21,-1
 192 0 l 1,22,-1
 192 96 l 1,23,-1
 192 96 l 1,24,-1
 96 96 l 1,12,-1
EndSplineSet
EndChar

StartChar: Udieresis
Encoding: 220 220 221
Width: 574
VWidth: 0
Flags: W
LayerCount: 2
Fore
SplineSet
478 673 m 1,0,-1
 383 673 l 1,1,-1
 383 768 l 1,2,-1
 478 768 l 1,3,-1
 478 673 l 1,0,-1
287 673 m 1,4,-1
 192 673 l 1,5,-1
 192 768 l 1,6,-1
 287 768 l 1,7,-1
 287 673 l 1,4,-1
96 96 m 1,8,-1
 96 576 l 1,9,-1
 287 576 l 1,10,-1
 287 96 l 1,11,-1
 287 96 l 1,12,-1
 383 96 l 1,13,-1
 383 96 l 1,14,-1
 383 576 l 1,15,-1
 478 576 l 1,16,-1
 478 0 l 1,17,-1
 192 0 l 1,18,-1
 192 96 l 1,19,-1
 192 96 l 1,20,-1
 96 96 l 1,8,-1
EndSplineSet
EndChar

StartChar: Yacute
Encoding: 221 221 222
Width: 574
VWidth: 0
Flags: W
LayerCount: 2
Fore
SplineSet
478 673 m 1,0,-1
 383 673 l 1,1,-1
 383 768 l 1,2,-1
 478 768 l 1,3,-1
 478 673 l 1,0,-1
288 672 m 1,4,-1
 382 672 l 1,5,-1
 382 577 l 1,6,-1
 288 577 l 1,7,-1
 288 672 l 1,4,-1
574 384 m 1,8,-1
 479 384 l 1,9,-1
 479 576 l 1,10,-1
 574 576 l 1,11,-1
 574 384 l 1,8,-1
383 384 m 1,12,-1
 478 384 l 1,13,-1
 478 288 l 1,14,-1
 383 288 l 1,15,-1
 383 384 l 1,12,-1
287 288 m 1,16,-1
 382 288 l 1,17,-1
 382 0 l 1,18,-1
 192 0 l 1,19,-1
 192 288 l 1,20,-1
 191 288 l 1,21,-1
 96 288 l 1,22,-1
 96 384 l 1,23,-1
 96 384 l 1,24,-1
 0 384 l 1,25,-1
 0 576 l 1,26,-1
 191 576 l 1,27,-1
 191 384 l 1,28,-1
 191 384 l 1,29,-1
 287 384 l 1,30,-1
 287 288 l 1,31,-1
 287 288 l 1,16,-1
EndSplineSet
EndChar

StartChar: Thorn
Encoding: 222 222 223
Width: 575
VWidth: 0
Flags: W
LayerCount: 2
Fore
SplineSet
479 192 m 1,0,-1
 384 192 l 1,1,-1
 384 384 l 1,2,-1
 479 384 l 1,3,-1
 479 192 l 1,0,-1
288 192 m 1,4,-1
 383 192 l 1,5,-1
 383 96 l 1,6,-1
 288 96 l 1,7,-1
 287 96 l 1,8,-1
 287 -96 l 1,9,-1
 96 -96 l 1,10,-1
 96 672 l 1,11,-1
 287 672 l 1,12,-1
 287 480 l 1,13,-1
 288 480 l 1,14,-1
 383 480 l 1,15,-1
 383 384 l 1,16,-1
 288 384 l 1,17,-1
 287 384 l 1,18,-1
 287 192 l 1,19,-1
 288 192 l 1,4,-1
EndSplineSet
EndChar

StartChar: germandbls
Encoding: 223 223 224
Width: 575
VWidth: 0
Flags: W
LayerCount: 2
Fore
SplineSet
288 96 m 1,0,-1
 383 96 l 1,1,-1
 383 0 l 1,2,-1
 288 0 l 1,3,-1
 288 96 l 1,0,-1
479 96 m 1,4,-1
 384 96 l 1,5,-1
 384 384 l 1,6,-1
 479 384 l 1,7,-1
 479 96 l 1,4,-1
383 672 m 1,8,-1
 383 385 l 1,9,-1
 288 385 l 1,10,-1
 287 385 l 1,11,-1
 287 384 l 1,12,-1
 287 96 l 1,13,-1
 287 0 l 1,14,-1
 287 -96 l 1,15,-1
 96 -96 l 1,16,-1
 96 576 l 1,17,-1
 192 576 l 1,18,-1
 192 576 l 1,19,-1
 192 672 l 1,20,-1
 383 672 l 1,8,-1
EndSplineSet
EndChar

StartChar: agrave
Encoding: 224 224 225
Width: 574
VWidth: 0
Flags: W
LayerCount: 2
Fore
SplineSet
288 577 m 1,0,-1
 288 672 l 1,1,-1
 383 672 l 1,2,-1
 383 577 l 1,3,-1
 288 577 l 1,0,-1
287 768 m 1,4,-1
 287 673 l 1,5,-1
 192 673 l 1,6,-1
 192 768 l 1,7,-1
 287 768 l 1,4,-1
479 0 m 1,8,-1
 479 96 l 1,9,-1
 574 96 l 1,10,-1
 574 0 l 1,11,-1
 479 0 l 1,8,-1
96 384 m 1,12,-1
 191 384 l 1,13,-1
 191 96 l 1,14,-1
 96 96 l 1,15,-1
 96 384 l 1,12,-1
288 384 m 1,16,-1
 192 384 l 1,17,-1
 192 480 l 1,18,-1
 478 480 l 1,19,-1
 478 96 l 1,20,-1
 383 96 l 1,21,-1
 383 96 l 1,22,-1
 383 0 l 1,23,-1
 192 0 l 1,24,-1
 192 96 l 1,25,-1
 288 96 l 1,26,-1
 288 96 l 1,27,-1
 288 384 l 1,28,-1
 288 384 l 1,16,-1
EndSplineSet
EndChar

StartChar: aacute
Encoding: 225 225 226
Width: 574
VWidth: 0
Flags: W
LayerCount: 2
Fore
SplineSet
383 673 m 1,0,-1
 288 673 l 1,1,-1
 288 768 l 1,2,-1
 383 768 l 1,3,-1
 383 673 l 1,0,-1
192 672 m 1,4,-1
 287 672 l 1,5,-1
 287 577 l 1,6,-1
 192 577 l 1,7,-1
 192 672 l 1,4,-1
479 0 m 1,8,-1
 479 96 l 1,9,-1
 574 96 l 1,10,-1
 574 0 l 1,11,-1
 479 0 l 1,8,-1
96 384 m 1,12,-1
 191 384 l 1,13,-1
 191 96 l 1,14,-1
 96 96 l 1,15,-1
 96 384 l 1,12,-1
288 384 m 1,16,-1
 192 384 l 1,17,-1
 192 480 l 1,18,-1
 478 480 l 1,19,-1
 478 96 l 1,20,-1
 383 96 l 1,21,-1
 383 96 l 1,22,-1
 383 0 l 1,23,-1
 192 0 l 1,24,-1
 192 96 l 1,25,-1
 288 96 l 1,26,-1
 288 96 l 1,27,-1
 288 384 l 1,28,-1
 288 384 l 1,16,-1
EndSplineSet
EndChar

StartChar: acircumflex
Encoding: 226 226 227
Width: 574
VWidth: 0
Flags: W
LayerCount: 2
Fore
SplineSet
384 577 m 1,0,-1
 384 672 l 1,1,-1
 478 672 l 1,2,-1
 478 577 l 1,3,-1
 384 577 l 1,0,-1
383 768 m 1,4,-1
 383 673 l 1,5,-1
 192 673 l 1,6,-1
 192 768 l 1,7,-1
 383 768 l 1,4,-1
96 672 m 1,8,-1
 191 672 l 1,9,-1
 191 577 l 1,10,-1
 96 577 l 1,11,-1
 96 672 l 1,8,-1
479 0 m 1,12,-1
 479 96 l 1,13,-1
 574 96 l 1,14,-1
 574 0 l 1,15,-1
 479 0 l 1,12,-1
96 384 m 1,16,-1
 191 384 l 1,17,-1
 191 96 l 1,18,-1
 96 96 l 1,19,-1
 96 384 l 1,16,-1
288 384 m 1,20,-1
 192 384 l 1,21,-1
 192 480 l 1,22,-1
 478 480 l 1,23,-1
 478 96 l 1,24,-1
 383 96 l 1,25,-1
 383 96 l 1,26,-1
 383 0 l 1,27,-1
 192 0 l 1,28,-1
 192 96 l 1,29,-1
 288 96 l 1,30,-1
 288 96 l 1,31,-1
 288 384 l 1,32,-1
 288 384 l 1,20,-1
EndSplineSet
EndChar

StartChar: atilde
Encoding: 227 227 228
Width: 574
VWidth: 0
Flags: W
LayerCount: 2
Fore
SplineSet
478 673 m 1,0,-1
 384 673 l 1,1,-1
 384 768 l 1,2,-1
 478 768 l 1,3,-1
 478 673 l 1,0,-1
288 672 m 1,4,-1
 383 672 l 1,5,-1
 383 577 l 1,6,-1
 288 577 l 1,7,-1
 288 672 l 1,4,-1
287 768 m 1,8,-1
 287 673 l 1,9,-1
 192 673 l 1,10,-1
 192 768 l 1,11,-1
 287 768 l 1,8,-1
96 672 m 1,12,-1
 191 672 l 1,13,-1
 191 577 l 1,14,-1
 96 577 l 1,15,-1
 96 672 l 1,12,-1
479 0 m 1,16,-1
 479 96 l 1,17,-1
 574 96 l 1,18,-1
 574 0 l 1,19,-1
 479 0 l 1,16,-1
96 384 m 1,20,-1
 191 384 l 1,21,-1
 191 96 l 1,22,-1
 96 96 l 1,23,-1
 96 384 l 1,20,-1
288 384 m 1,24,-1
 192 384 l 1,25,-1
 192 480 l 1,26,-1
 478 480 l 1,27,-1
 478 96 l 1,28,-1
 383 96 l 1,29,-1
 383 96 l 1,30,-1
 383 0 l 1,31,-1
 192 0 l 1,32,-1
 192 96 l 1,33,-1
 288 96 l 1,34,-1
 288 96 l 1,35,-1
 288 384 l 1,36,-1
 288 384 l 1,24,-1
EndSplineSet
EndChar

StartChar: adieresis
Encoding: 228 228 229
Width: 574
VWidth: 0
Flags: W
LayerCount: 2
Fore
SplineSet
478 577 m 1,0,-1
 384 577 l 1,1,-1
 384 672 l 1,2,-1
 478 672 l 1,3,-1
 478 577 l 1,0,-1
287 577 m 1,4,-1
 192 577 l 1,5,-1
 192 672 l 1,6,-1
 287 672 l 1,7,-1
 287 577 l 1,4,-1
479 0 m 1,8,-1
 479 96 l 1,9,-1
 574 96 l 1,10,-1
 574 0 l 1,11,-1
 479 0 l 1,8,-1
96 384 m 1,12,-1
 191 384 l 1,13,-1
 191 96 l 1,14,-1
 96 96 l 1,15,-1
 96 384 l 1,12,-1
288 384 m 1,16,-1
 192 384 l 1,17,-1
 192 480 l 1,18,-1
 478 480 l 1,19,-1
 478 96 l 1,20,-1
 383 96 l 1,21,-1
 383 96 l 1,22,-1
 383 0 l 1,23,-1
 192 0 l 1,24,-1
 192 96 l 1,25,-1
 288 96 l 1,26,-1
 288 96 l 1,27,-1
 288 384 l 1,28,-1
 288 384 l 1,16,-1
EndSplineSet
EndChar

StartChar: aring
Encoding: 229 229 230
Width: 574
VWidth: 0
Flags: W
LayerCount: 2
Fore
SplineSet
384 577 m 1,0,-1
 384 672 l 1,1,-1
 478 672 l 1,2,-1
 478 577 l 1,3,-1
 384 577 l 1,0,-1
383 768 m 1,4,-1
 383 673 l 1,5,-1
 288 673 l 1,6,-1
 288 768 l 1,7,-1
 383 768 l 1,4,-1
288 481 m 1,8,-1
 288 576 l 1,9,-1
 383 576 l 1,10,-1
 383 481 l 1,11,-1
 288 481 l 1,8,-1
287 672 m 1,12,-1
 287 577 l 1,13,-1
 192 577 l 1,14,-1
 192 672 l 1,15,-1
 287 672 l 1,12,-1
479 0 m 1,16,-1
 479 96 l 1,17,-1
 574 96 l 1,18,-1
 574 0 l 1,19,-1
 479 0 l 1,16,-1
96 384 m 1,20,-1
 191 384 l 1,21,-1
 191 96 l 1,22,-1
 96 96 l 1,23,-1
 96 384 l 1,20,-1
288 384 m 1,24,-1
 192 384 l 1,25,-1
 192 480 l 1,26,-1
 478 480 l 1,27,-1
 478 96 l 1,28,-1
 383 96 l 1,29,-1
 383 96 l 1,30,-1
 383 0 l 1,31,-1
 192 0 l 1,32,-1
 192 96 l 1,33,-1
 288 96 l 1,34,-1
 288 96 l 1,35,-1
 288 384 l 1,36,-1
 288 384 l 1,24,-1
EndSplineSet
EndChar

StartChar: ae
Encoding: 230 230 231
Width: 574
VWidth: 0
Flags: W
LayerCount: 2
Fore
SplineSet
383 0 m 1,0,-1
 383 96 l 1,1,-1
 574 96 l 1,2,-1
 574 0 l 1,3,-1
 383 0 l 1,0,-1
0 192 m 1,4,-1
 95 192 l 1,5,-1
 95 96 l 1,6,-1
 0 96 l 1,7,-1
 0 192 l 1,4,-1
192 192 m 1,8,-1
 96 192 l 1,9,-1
 96 288 l 1,10,-1
 192 288 l 1,11,-1
 192 288 l 1,12,-1
 192 384 l 1,13,-1
 192 384 l 1,14,-1
 96 384 l 1,15,-1
 96 480 l 1,16,-1
 478 480 l 1,17,-1
 478 384 l 1,18,-1
 383 384 l 1,19,-1
 382 384 l 1,20,-1
 382 288 l 1,21,-1
 383 288 l 1,22,-1
 478 288 l 1,23,-1
 479 288 l 1,24,-1
 479 384 l 1,25,-1
 574 384 l 1,26,-1
 574 192 l 1,27,-1
 383 192 l 1,28,-1
 382 192 l 1,29,-1
 382 96 l 1,30,-1
 287 96 l 1,31,-1
 287 96 l 1,32,-1
 287 0 l 1,33,-1
 96 0 l 1,34,-1
 96 96 l 1,35,-1
 192 96 l 1,36,-1
 192 96 l 1,37,-1
 192 192 l 1,38,-1
 192 192 l 1,8,-1
EndSplineSet
EndChar

StartChar: ccedilla
Encoding: 231 231 232
Width: 575
VWidth: 0
Flags: W
LayerCount: 2
Fore
SplineSet
383 -96 m 1,0,-1
 288 -96 l 1,1,-1
 288 -1 l 1,2,-1
 383 -1 l 1,3,-1
 383 -96 l 1,0,-1
192 -97 m 1,4,-1
 287 -97 l 1,5,-1
 287 -192 l 1,6,-1
 192 -192 l 1,7,-1
 192 -97 l 1,4,-1
96 96 m 1,8,-1
 96 384 l 1,9,-1
 192 384 l 1,10,-1
 192 384 l 1,11,-1
 192 480 l 1,12,-1
 479 480 l 1,13,-1
 479 384 l 1,14,-1
 288 384 l 1,15,-1
 287 384 l 1,16,-1
 287 96 l 1,17,-1
 288 96 l 1,18,-1
 479 96 l 1,19,-1
 479 0 l 1,20,-1
 192 0 l 1,21,-1
 192 96 l 1,22,-1
 192 96 l 1,23,-1
 96 96 l 1,8,-1
EndSplineSet
EndChar

StartChar: egrave
Encoding: 232 232 233
Width: 575
VWidth: 0
Flags: W
LayerCount: 2
Fore
SplineSet
288 577 m 1,0,-1
 288 672 l 1,1,-1
 383 672 l 1,2,-1
 383 577 l 1,3,-1
 288 577 l 1,0,-1
287 768 m 1,4,-1
 287 673 l 1,5,-1
 192 673 l 1,6,-1
 192 768 l 1,7,-1
 287 768 l 1,4,-1
192 384 m 1,8,-1
 192 480 l 1,9,-1
 383 480 l 1,10,-1
 383 384 l 1,11,-1
 288 384 l 1,12,-1
 287 384 l 1,13,-1
 287 288 l 1,14,-1
 288 288 l 1,15,-1
 384 288 l 1,16,-1
 384 288 l 1,17,-1
 384 384 l 1,18,-1
 479 384 l 1,19,-1
 479 192 l 1,20,-1
 288 192 l 1,21,-1
 287 192 l 1,22,-1
 287 96 l 1,23,-1
 288 96 l 1,24,-1
 479 96 l 1,25,-1
 479 0 l 1,26,-1
 192 0 l 1,27,-1
 192 96 l 1,28,-1
 192 96 l 1,29,-1
 96 96 l 1,30,-1
 96 384 l 1,31,-1
 192 384 l 1,32,-1
 192 384 l 1,8,-1
EndSplineSet
EndChar

StartChar: eacute
Encoding: 233 233 234
Width: 575
VWidth: 0
Flags: W
LayerCount: 2
Fore
SplineSet
383 673 m 1,0,-1
 288 673 l 1,1,-1
 288 768 l 1,2,-1
 383 768 l 1,3,-1
 383 673 l 1,0,-1
192 672 m 1,4,-1
 287 672 l 1,5,-1
 287 577 l 1,6,-1
 192 577 l 1,7,-1
 192 672 l 1,4,-1
192 384 m 1,8,-1
 192 480 l 1,9,-1
 383 480 l 1,10,-1
 383 384 l 1,11,-1
 288 384 l 1,12,-1
 287 384 l 1,13,-1
 287 288 l 1,14,-1
 288 288 l 1,15,-1
 384 288 l 1,16,-1
 384 288 l 1,17,-1
 384 384 l 1,18,-1
 479 384 l 1,19,-1
 479 192 l 1,20,-1
 288 192 l 1,21,-1
 287 192 l 1,22,-1
 287 96 l 1,23,-1
 288 96 l 1,24,-1
 479 96 l 1,25,-1
 479 0 l 1,26,-1
 192 0 l 1,27,-1
 192 96 l 1,28,-1
 192 96 l 1,29,-1
 96 96 l 1,30,-1
 96 384 l 1,31,-1
 192 384 l 1,32,-1
 192 384 l 1,8,-1
EndSplineSet
EndChar

StartChar: ecircumflex
Encoding: 234 234 235
Width: 575
VWidth: 0
Flags: W
LayerCount: 2
Fore
SplineSet
384 577 m 1,0,-1
 384 672 l 1,1,-1
 479 672 l 1,2,-1
 479 577 l 1,3,-1
 384 577 l 1,0,-1
383 768 m 1,4,-1
 383 673 l 1,5,-1
 192 673 l 1,6,-1
 192 768 l 1,7,-1
 383 768 l 1,4,-1
96 672 m 1,8,-1
 191 672 l 1,9,-1
 191 577 l 1,10,-1
 96 577 l 1,11,-1
 96 672 l 1,8,-1
192 384 m 1,12,-1
 192 480 l 1,13,-1
 383 480 l 1,14,-1
 383 384 l 1,15,-1
 288 384 l 1,16,-1
 287 384 l 1,17,-1
 287 288 l 1,18,-1
 288 288 l 1,19,-1
 384 288 l 1,20,-1
 384 288 l 1,21,-1
 384 384 l 1,22,-1
 479 384 l 1,23,-1
 479 192 l 1,24,-1
 288 192 l 1,25,-1
 287 192 l 1,26,-1
 287 96 l 1,27,-1
 288 96 l 1,28,-1
 479 96 l 1,29,-1
 479 0 l 1,30,-1
 192 0 l 1,31,-1
 192 96 l 1,32,-1
 192 96 l 1,33,-1
 96 96 l 1,34,-1
 96 384 l 1,35,-1
 192 384 l 1,36,-1
 192 384 l 1,12,-1
EndSplineSet
EndChar

StartChar: edieresis
Encoding: 235 235 236
Width: 575
VWidth: 0
Flags: W
LayerCount: 2
Fore
SplineSet
479 577 m 1,0,-1
 384 577 l 1,1,-1
 384 672 l 1,2,-1
 479 672 l 1,3,-1
 479 577 l 1,0,-1
287 577 m 1,4,-1
 192 577 l 1,5,-1
 192 672 l 1,6,-1
 287 672 l 1,7,-1
 287 577 l 1,4,-1
192 384 m 1,8,-1
 192 480 l 1,9,-1
 383 480 l 1,10,-1
 383 384 l 1,11,-1
 288 384 l 1,12,-1
 287 384 l 1,13,-1
 287 288 l 1,14,-1
 288 288 l 1,15,-1
 384 288 l 1,16,-1
 384 288 l 1,17,-1
 384 384 l 1,18,-1
 479 384 l 1,19,-1
 479 192 l 1,20,-1
 288 192 l 1,21,-1
 287 192 l 1,22,-1
 287 96 l 1,23,-1
 288 96 l 1,24,-1
 479 96 l 1,25,-1
 479 0 l 1,26,-1
 192 0 l 1,27,-1
 192 96 l 1,28,-1
 192 96 l 1,29,-1
 96 96 l 1,30,-1
 96 384 l 1,31,-1
 192 384 l 1,32,-1
 192 384 l 1,8,-1
EndSplineSet
EndChar

StartChar: igrave
Encoding: 236 236 237
Width: 575
VWidth: 0
Flags: W
LayerCount: 2
Fore
SplineSet
288 577 m 1,0,-1
 288 672 l 1,1,-1
 383 672 l 1,2,-1
 383 577 l 1,3,-1
 288 577 l 1,0,-1
287 768 m 1,4,-1
 287 673 l 1,5,-1
 192 673 l 1,6,-1
 192 768 l 1,7,-1
 287 768 l 1,4,-1
192 0 m 1,8,-1
 192 480 l 1,9,-1
 383 480 l 1,10,-1
 383 0 l 1,11,-1
 192 0 l 1,8,-1
EndSplineSet
EndChar

StartChar: iacute
Encoding: 237 237 238
Width: 575
VWidth: 0
Flags: W
LayerCount: 2
Fore
SplineSet
383 673 m 1,0,-1
 288 673 l 1,1,-1
 288 768 l 1,2,-1
 383 768 l 1,3,-1
 383 673 l 1,0,-1
192 672 m 1,4,-1
 287 672 l 1,5,-1
 287 577 l 1,6,-1
 192 577 l 1,7,-1
 192 672 l 1,4,-1
192 0 m 1,8,-1
 192 480 l 1,9,-1
 383 480 l 1,10,-1
 383 0 l 1,11,-1
 192 0 l 1,8,-1
EndSplineSet
EndChar

StartChar: icircumflex
Encoding: 238 238 239
Width: 575
VWidth: 0
Flags: W
LayerCount: 2
Fore
SplineSet
384 577 m 1,0,-1
 384 672 l 1,1,-1
 479 672 l 1,2,-1
 479 577 l 1,3,-1
 384 577 l 1,0,-1
383 768 m 1,4,-1
 383 673 l 1,5,-1
 192 673 l 1,6,-1
 192 768 l 1,7,-1
 383 768 l 1,4,-1
96 672 m 1,8,-1
 191 672 l 1,9,-1
 191 577 l 1,10,-1
 96 577 l 1,11,-1
 96 672 l 1,8,-1
192 0 m 1,12,-1
 192 480 l 1,13,-1
 383 480 l 1,14,-1
 383 0 l 1,15,-1
 192 0 l 1,12,-1
EndSplineSet
EndChar

StartChar: idieresis
Encoding: 239 239 240
Width: 575
VWidth: 0
Flags: W
LayerCount: 2
Fore
SplineSet
479 577 m 1,0,-1
 384 577 l 1,1,-1
 384 672 l 1,2,-1
 479 672 l 1,3,-1
 479 577 l 1,0,-1
191 577 m 1,4,-1
 96 577 l 1,5,-1
 96 672 l 1,6,-1
 191 672 l 1,7,-1
 191 577 l 1,4,-1
192 0 m 1,8,-1
 192 480 l 1,9,-1
 383 480 l 1,10,-1
 383 0 l 1,11,-1
 192 0 l 1,8,-1
EndSplineSet
EndChar

StartChar: eth
Encoding: 240 240 241
Width: 575
VWidth: 0
Flags: W
LayerCount: 2
Fore
SplineSet
96 0 m 1,0,-1
 96 96 l 1,1,-1
 287 96 l 1,2,-1
 383 96 l 1,3,-1
 383 0 l 1,4,-1
 96 0 l 1,0,-1
95 192 m 1,5,-1
 95 96 l 1,6,-1
 0 96 l 1,7,-1
 0 192 l 1,8,-1
 95 192 l 1,5,-1
288 192 m 1,9,-1
 96 192 l 1,10,-1
 96 288 l 1,11,-1
 288 288 l 1,12,-1
 288 288 l 1,13,-1
 288 384 l 1,14,-1
 288 385 l 1,15,-1
 192 385 l 1,16,-1
 192 480 l 1,17,-1
 288 480 l 1,18,-1
 288 480 l 1,19,-1
 288 576 l 1,20,-1
 479 576 l 1,21,-1
 479 480 l 1,22,-1
 479 288 l 1,23,-1
 479 96 l 1,24,-1
 384 96 l 1,25,-1
 288 96 l 1,26,-1
 288 192 l 1,27,-1
 288 192 l 1,9,-1
287 672 m 1,28,-1
 287 577 l 1,29,-1
 192 577 l 1,30,-1
 192 672 l 1,31,-1
 287 672 l 1,28,-1
EndSplineSet
EndChar

StartChar: ntilde
Encoding: 241 241 242
Width: 574
VWidth: 0
Flags: W
LayerCount: 2
Fore
SplineSet
478 673 m 1,0,-1
 383 673 l 1,1,-1
 383 768 l 1,2,-1
 478 768 l 1,3,-1
 478 673 l 1,0,-1
288 672 m 1,4,-1
 382 672 l 1,5,-1
 382 577 l 1,6,-1
 288 577 l 1,7,-1
 288 672 l 1,4,-1
287 768 m 1,8,-1
 287 673 l 1,9,-1
 192 673 l 1,10,-1
 192 768 l 1,11,-1
 287 768 l 1,8,-1
96 672 m 1,12,-1
 191 672 l 1,13,-1
 191 577 l 1,14,-1
 96 577 l 1,15,-1
 96 672 l 1,12,-1
383 0 m 1,16,-1
 383 384 l 1,17,-1
 478 384 l 1,18,-1
 478 0 l 1,19,-1
 383 0 l 1,16,-1
382 480 m 1,20,-1
 382 384 l 1,21,-1
 287 384 l 1,22,-1
 287 384 l 1,23,-1
 287 0 l 1,24,-1
 96 0 l 1,25,-1
 96 480 l 1,26,-1
 382 480 l 1,20,-1
EndSplineSet
EndChar

StartChar: ograve
Encoding: 242 242 243
Width: 575
VWidth: 0
Flags: W
LayerCount: 2
Fore
SplineSet
288 577 m 1,0,-1
 288 672 l 1,1,-1
 383 672 l 1,2,-1
 383 577 l 1,3,-1
 288 577 l 1,0,-1
287 768 m 1,4,-1
 287 673 l 1,5,-1
 192 673 l 1,6,-1
 192 768 l 1,7,-1
 287 768 l 1,4,-1
479 96 m 1,8,-1
 384 96 l 1,9,-1
 384 384 l 1,10,-1
 479 384 l 1,11,-1
 479 96 l 1,8,-1
288 96 m 1,12,-1
 383 96 l 1,13,-1
 383 0 l 1,14,-1
 192 0 l 1,15,-1
 192 96 l 1,16,-1
 192 96 l 1,17,-1
 96 96 l 1,18,-1
 96 384 l 1,19,-1
 192 384 l 1,20,-1
 192 384 l 1,21,-1
 192 480 l 1,22,-1
 383 480 l 1,23,-1
 383 384 l 1,24,-1
 288 384 l 1,25,-1
 287 384 l 1,26,-1
 287 96 l 1,27,-1
 288 96 l 1,12,-1
EndSplineSet
EndChar

StartChar: oacute
Encoding: 243 243 244
Width: 575
VWidth: 0
Flags: W
LayerCount: 2
Fore
SplineSet
383 673 m 1,0,-1
 288 673 l 1,1,-1
 288 768 l 1,2,-1
 383 768 l 1,3,-1
 383 673 l 1,0,-1
192 672 m 1,4,-1
 287 672 l 1,5,-1
 287 577 l 1,6,-1
 192 577 l 1,7,-1
 192 672 l 1,4,-1
479 96 m 1,8,-1
 384 96 l 1,9,-1
 384 384 l 1,10,-1
 479 384 l 1,11,-1
 479 96 l 1,8,-1
288 96 m 1,12,-1
 383 96 l 1,13,-1
 383 0 l 1,14,-1
 192 0 l 1,15,-1
 192 96 l 1,16,-1
 192 96 l 1,17,-1
 96 96 l 1,18,-1
 96 384 l 1,19,-1
 192 384 l 1,20,-1
 192 384 l 1,21,-1
 192 480 l 1,22,-1
 383 480 l 1,23,-1
 383 384 l 1,24,-1
 288 384 l 1,25,-1
 287 384 l 1,26,-1
 287 96 l 1,27,-1
 288 96 l 1,12,-1
EndSplineSet
EndChar

StartChar: ocircumflex
Encoding: 244 244 245
Width: 575
VWidth: 0
Flags: W
LayerCount: 2
Fore
SplineSet
384 577 m 1,0,-1
 384 672 l 1,1,-1
 479 672 l 1,2,-1
 479 577 l 1,3,-1
 384 577 l 1,0,-1
383 768 m 1,4,-1
 383 673 l 1,5,-1
 192 673 l 1,6,-1
 192 768 l 1,7,-1
 383 768 l 1,4,-1
96 672 m 1,8,-1
 191 672 l 1,9,-1
 191 577 l 1,10,-1
 96 577 l 1,11,-1
 96 672 l 1,8,-1
479 96 m 1,12,-1
 384 96 l 1,13,-1
 384 384 l 1,14,-1
 479 384 l 1,15,-1
 479 96 l 1,12,-1
288 96 m 1,16,-1
 383 96 l 1,17,-1
 383 0 l 1,18,-1
 192 0 l 1,19,-1
 192 96 l 1,20,-1
 192 96 l 1,21,-1
 96 96 l 1,22,-1
 96 384 l 1,23,-1
 192 384 l 1,24,-1
 192 384 l 1,25,-1
 192 480 l 1,26,-1
 383 480 l 1,27,-1
 383 384 l 1,28,-1
 288 384 l 1,29,-1
 287 384 l 1,30,-1
 287 96 l 1,31,-1
 288 96 l 1,16,-1
EndSplineSet
EndChar

StartChar: otilde
Encoding: 245 245 246
Width: 575
VWidth: 0
Flags: W
LayerCount: 2
Fore
SplineSet
479 673 m 1,0,-1
 384 673 l 1,1,-1
 384 768 l 1,2,-1
 479 768 l 1,3,-1
 479 673 l 1,0,-1
288 672 m 1,4,-1
 383 672 l 1,5,-1
 383 577 l 1,6,-1
 288 577 l 1,7,-1
 288 672 l 1,4,-1
287 768 m 1,8,-1
 287 673 l 1,9,-1
 192 673 l 1,10,-1
 192 768 l 1,11,-1
 287 768 l 1,8,-1
96 672 m 1,12,-1
 191 672 l 1,13,-1
 191 577 l 1,14,-1
 96 577 l 1,15,-1
 96 672 l 1,12,-1
479 96 m 1,16,-1
 384 96 l 1,17,-1
 384 384 l 1,18,-1
 479 384 l 1,19,-1
 479 96 l 1,16,-1
288 96 m 1,20,-1
 383 96 l 1,21,-1
 383 0 l 1,22,-1
 192 0 l 1,23,-1
 192 96 l 1,24,-1
 192 96 l 1,25,-1
 96 96 l 1,26,-1
 96 384 l 1,27,-1
 192 384 l 1,28,-1
 192 384 l 1,29,-1
 192 480 l 1,30,-1
 383 480 l 1,31,-1
 383 384 l 1,32,-1
 288 384 l 1,33,-1
 287 384 l 1,34,-1
 287 96 l 1,35,-1
 288 96 l 1,20,-1
EndSplineSet
EndChar

StartChar: odieresis
Encoding: 246 246 247
Width: 575
VWidth: 0
Flags: W
LayerCount: 2
Fore
SplineSet
479 577 m 1,0,-1
 384 577 l 1,1,-1
 384 672 l 1,2,-1
 479 672 l 1,3,-1
 479 577 l 1,0,-1
287 577 m 1,4,-1
 192 577 l 1,5,-1
 192 672 l 1,6,-1
 287 672 l 1,7,-1
 287 577 l 1,4,-1
479 96 m 1,8,-1
 384 96 l 1,9,-1
 384 384 l 1,10,-1
 479 384 l 1,11,-1
 479 96 l 1,8,-1
288 96 m 1,12,-1
 383 96 l 1,13,-1
 383 0 l 1,14,-1
 192 0 l 1,15,-1
 192 96 l 1,16,-1
 192 96 l 1,17,-1
 96 96 l 1,18,-1
 96 384 l 1,19,-1
 192 384 l 1,20,-1
 192 384 l 1,21,-1
 192 480 l 1,22,-1
 383 480 l 1,23,-1
 383 384 l 1,24,-1
 288 384 l 1,25,-1
 287 384 l 1,26,-1
 287 96 l 1,27,-1
 288 96 l 1,12,-1
EndSplineSet
EndChar

StartChar: divide
Encoding: 247 247 248
Width: 575
VWidth: 0
Flags: W
LayerCount: 2
Fore
SplineSet
288 96 m 1,0,-1
 288 192 l 1,1,-1
 383 192 l 1,2,-1
 383 96 l 1,3,-1
 288 96 l 1,0,-1
96 288 m 1,4,-1
 96 384 l 1,5,-1
 575 384 l 1,6,-1
 575 288 l 1,7,-1
 96 288 l 1,4,-1
288 480 m 1,8,-1
 288 576 l 1,9,-1
 383 576 l 1,10,-1
 383 480 l 1,11,-1
 288 480 l 1,8,-1
EndSplineSet
EndChar

StartChar: oslash
Encoding: 248 248 249
Width: 574
VWidth: 0
Flags: W
LayerCount: 2
Fore
SplineSet
574 384 m 1,0,-1
 479 384 l 1,1,-1
 479 480 l 1,2,-1
 574 480 l 1,3,-1
 574 384 l 1,0,-1
384 384 m 1,4,-1
 478 384 l 1,5,-1
 479 96 l 1,6,-1
 384 96 l 1,7,-1
 384 192 l 1,8,-1
 384 192 l 1,9,-1
 288 192 l 1,10,-1
 287 192 l 1,11,-1
 287 96 l 1,12,-1
 288 96 l 1,13,-1
 383 96 l 1,14,-1
 383 0 l 1,15,-1
 192 0 l 1,16,-1
 192 96 l 1,17,-1
 192 96 l 1,18,-1
 96 96 l 1,19,-1
 96 384 l 1,20,-1
 192 384 l 1,21,-1
 192 384 l 1,22,-1
 192 480 l 1,23,-1
 383 480 l 1,24,-1
 383 384 l 1,25,-1
 288 384 l 1,26,-1
 287 384 l 1,27,-1
 287 288 l 1,28,-1
 288 288 l 1,29,-1
 383 288 l 1,30,-1
 384 288 l 1,31,-1
 384 384 l 1,4,-1
0 96 m 1,32,-1
 95 96 l 1,33,-1
 95 0 l 1,34,-1
 0 0 l 1,35,-1
 0 96 l 1,32,-1
EndSplineSet
EndChar

StartChar: ugrave
Encoding: 249 249 250
Width: 574
VWidth: 0
Flags: W
LayerCount: 2
Fore
SplineSet
287 577 m 1,0,-1
 287 672 l 1,1,-1
 382 672 l 1,2,-1
 382 577 l 1,3,-1
 287 577 l 1,0,-1
286 768 m 1,4,-1
 286 673 l 1,5,-1
 192 673 l 1,6,-1
 192 768 l 1,7,-1
 286 768 l 1,4,-1
192 0 m 1,8,-1
 192 96 l 1,9,-1
 287 96 l 1,10,-1
 287 96 l 1,11,-1
 287 480 l 1,12,-1
 478 480 l 1,13,-1
 478 0 l 1,14,-1
 192 0 l 1,8,-1
191 480 m 1,15,-1
 191 96 l 1,16,-1
 96 96 l 1,17,-1
 96 480 l 1,18,-1
 191 480 l 1,15,-1
EndSplineSet
EndChar

StartChar: uacute
Encoding: 250 250 251
Width: 574
VWidth: 0
Flags: W
LayerCount: 2
Fore
SplineSet
382 673 m 1,0,-1
 287 673 l 1,1,-1
 287 768 l 1,2,-1
 382 768 l 1,3,-1
 382 673 l 1,0,-1
192 672 m 1,4,-1
 286 672 l 1,5,-1
 286 577 l 1,6,-1
 192 577 l 1,7,-1
 192 672 l 1,4,-1
192 0 m 1,8,-1
 192 96 l 1,9,-1
 287 96 l 1,10,-1
 287 96 l 1,11,-1
 287 480 l 1,12,-1
 478 480 l 1,13,-1
 478 0 l 1,14,-1
 192 0 l 1,8,-1
191 480 m 1,15,-1
 191 96 l 1,16,-1
 96 96 l 1,17,-1
 96 480 l 1,18,-1
 191 480 l 1,15,-1
EndSplineSet
EndChar

StartChar: ucircumflex
Encoding: 251 251 252
Width: 574
VWidth: 0
Flags: W
LayerCount: 2
Fore
SplineSet
383 577 m 1,0,-1
 383 672 l 1,1,-1
 478 672 l 1,2,-1
 478 577 l 1,3,-1
 383 577 l 1,0,-1
382 768 m 1,4,-1
 382 673 l 1,5,-1
 192 673 l 1,6,-1
 192 768 l 1,7,-1
 382 768 l 1,4,-1
96 672 m 1,8,-1
 191 672 l 1,9,-1
 191 577 l 1,10,-1
 96 577 l 1,11,-1
 96 672 l 1,8,-1
192 0 m 1,12,-1
 192 96 l 1,13,-1
 287 96 l 1,14,-1
 287 96 l 1,15,-1
 287 480 l 1,16,-1
 478 480 l 1,17,-1
 478 0 l 1,18,-1
 192 0 l 1,12,-1
191 480 m 1,19,-1
 191 96 l 1,20,-1
 96 96 l 1,21,-1
 96 480 l 1,22,-1
 191 480 l 1,19,-1
EndSplineSet
EndChar

StartChar: udieresis
Encoding: 252 252 253
Width: 574
VWidth: 0
Flags: W
LayerCount: 2
Fore
SplineSet
382 577 m 1,0,-1
 287 577 l 1,1,-1
 287 672 l 1,2,-1
 382 672 l 1,3,-1
 382 577 l 1,0,-1
191 577 m 1,4,-1
 96 577 l 1,5,-1
 96 672 l 1,6,-1
 191 672 l 1,7,-1
 191 577 l 1,4,-1
192 0 m 1,8,-1
 192 96 l 1,9,-1
 287 96 l 1,10,-1
 287 96 l 1,11,-1
 287 480 l 1,12,-1
 478 480 l 1,13,-1
 478 0 l 1,14,-1
 192 0 l 1,8,-1
191 480 m 1,15,-1
 191 96 l 1,16,-1
 96 96 l 1,17,-1
 96 480 l 1,18,-1
 191 480 l 1,15,-1
EndSplineSet
EndChar

StartChar: yacute
Encoding: 253 253 254
Width: 574
VWidth: 0
Flags: W
LayerCount: 2
Fore
SplineSet
382 673 m 1,0,-1
 287 673 l 1,1,-1
 287 768 l 1,2,-1
 382 768 l 1,3,-1
 382 673 l 1,0,-1
192 672 m 1,4,-1
 286 672 l 1,5,-1
 286 577 l 1,6,-1
 192 577 l 1,7,-1
 192 672 l 1,4,-1
192 96 m 1,8,-1
 192 192 l 1,9,-1
 287 192 l 1,10,-1
 287 192 l 1,11,-1
 287 480 l 1,12,-1
 478 480 l 1,13,-1
 478 0 l 1,14,-1
 382 0 l 1,15,-1
 382 0 l 1,16,-1
 382 -96 l 1,17,-1
 192 -96 l 1,18,-1
 192 -1 l 1,19,-1
 287 -1 l 1,20,-1
 287 0 l 1,21,-1
 287 96 l 1,22,-1
 287 96 l 1,23,-1
 192 96 l 1,8,-1
191 480 m 1,24,-1
 191 192 l 1,25,-1
 96 192 l 1,26,-1
 96 480 l 1,27,-1
 191 480 l 1,24,-1
EndSplineSet
EndChar

StartChar: thorn
Encoding: 254 254 255
Width: 575
VWidth: 0
Flags: W
LayerCount: 2
Fore
SplineSet
479 192 m 1,0,-1
 384 192 l 1,1,-1
 384 288 l 1,2,-1
 479 288 l 1,3,-1
 479 192 l 1,0,-1
288 192 m 1,4,-1
 383 192 l 1,5,-1
 383 96 l 1,6,-1
 288 96 l 1,7,-1
 287 96 l 1,8,-1
 287 -96 l 1,9,-1
 96 -96 l 1,10,-1
 96 576 l 1,11,-1
 287 576 l 1,12,-1
 287 384 l 1,13,-1
 288 384 l 1,14,-1
 383 384 l 1,15,-1
 383 288 l 1,16,-1
 288 288 l 1,17,-1
 287 288 l 1,18,-1
 287 192 l 1,19,-1
 288 192 l 1,4,-1
EndSplineSet
EndChar

StartChar: ydieresis
Encoding: 255 255 256
Width: 574
VWidth: 0
Flags: W
LayerCount: 2
Fore
SplineSet
382 577 m 1,0,-1
 287 577 l 1,1,-1
 287 672 l 1,2,-1
 382 672 l 1,3,-1
 382 577 l 1,0,-1
191 577 m 1,4,-1
 96 577 l 1,5,-1
 96 672 l 1,6,-1
 191 672 l 1,7,-1
 191 577 l 1,4,-1
192 96 m 1,8,-1
 192 192 l 1,9,-1
 287 192 l 1,10,-1
 287 192 l 1,11,-1
 287 480 l 1,12,-1
 478 480 l 1,13,-1
 478 0 l 1,14,-1
 382 0 l 1,15,-1
 382 0 l 1,16,-1
 382 -96 l 1,17,-1
 192 -96 l 1,18,-1
 192 -1 l 1,19,-1
 287 -1 l 1,20,-1
 287 0 l 1,21,-1
 287 96 l 1,22,-1
 287 96 l 1,23,-1
 192 96 l 1,8,-1
191 480 m 1,24,-1
 191 192 l 1,25,-1
 96 192 l 1,26,-1
 96 480 l 1,27,-1
 191 480 l 1,24,-1
EndSplineSet
EndChar

StartChar: currency
Encoding: 164 164 257
Width: 576
VWidth: 0
Flags: W
LayerCount: 2
Fore
SplineSet
192 384 m 1,0,-1
 192 192 l 1,1,-1
 192 192 l 1,2,-1
 384 192 l 1,3,-1
 384 192 l 1,4,-1
 384 384 l 1,5,-1
 384 384 l 1,6,-1
 192 384 l 1,7,-1
 192 384 l 1,0,-1
97 96 m 1,8,-1
 96 480 l 1,9,-1
 479 480 l 1,10,-1
 480 96 l 1,11,-1
 97 96 l 1,8,-1
480 480 m 1,12,-1
 480 576 l 1,13,-1
 576 576 l 1,14,-1
 576 480 l 1,15,-1
 480 480 l 1,12,-1
480 96 m 1,16,-1
 576 96 l 1,17,-1
 576 0 l 1,18,-1
 480 0 l 1,19,-1
 480 96 l 1,16,-1
96 96 m 1,20,-1
 96 0 l 1,21,-1
 0 0 l 1,22,-1
 0 96 l 1,23,-1
 96 96 l 1,20,-1
96 480 m 1,24,-1
 0 480 l 1,25,-1
 0 576 l 1,26,-1
 96 576 l 1,27,-1
 96 480 l 1,24,-1
EndSplineSet
EndChar

StartChar: brokenbar
Encoding: 166 166 258
Width: 576
VWidth: 0
Flags: W
LayerCount: 2
Fore
SplineSet
288 576 m 1,0,-1
 384 576 l 1,1,-1
 384 -96 l 1,2,-1
 288 -96 l 1,3,-1
 288 576 l 1,0,-1
EndSplineSet
EndChar

StartChar: dieresis
Encoding: 168 168 259
Width: 576
VWidth: 0
Flags: W
LayerCount: 2
Fore
SplineSet
480 576 m 1,0,-1
 576 576 l 1,1,-1
 576 480 l 1,2,-1
 480 480 l 1,3,-1
 480 576 l 1,0,-1
192 576 m 1,4,-1
 288 576 l 1,5,-1
 288 480 l 1,6,-1
 192 480 l 1,7,-1
 192 576 l 1,4,-1
EndSplineSet
EndChar

StartChar: acute
Encoding: 180 180 260
Width: 576
VWidth: 0
Flags: W
LayerCount: 2
Fore
SplineSet
288 480 m 1,0,-1
 288 384 l 1,1,-1
 192 384 l 1,2,-1
 192 480 l 1,3,-1
 288 480 l 1,0,-1
288 480 m 1,4,-1
 288 672 l 1,5,-1
 384 672 l 1,6,-1
 384 480 l 1,7,-1
 288 480 l 1,4,-1
EndSplineSet
EndChar

StartChar: cedilla
Encoding: 184 184 261
Width: 576
VWidth: 0
Flags: W
LayerCount: 2
Fore
SplineSet
384 0 m 1,0,-1
 480 0 l 1,1,-1
 480 -192 l 1,2,-1
 192 -192 l 1,3,-1
 192 -96 l 1,4,-1
 384 -96 l 1,5,-1
 384 -96 l 1,6,-1
 384 0 l 1,0,-1
384 0 m 1,7,-1
 288 0 l 1,8,-1
 288 96 l 1,9,-1
 384 96 l 1,10,-1
 384 0 l 1,7,-1
EndSplineSet
EndChar

StartChar: onequarter
Encoding: 188 188 262
Width: 576
VWidth: 0
Flags: W
LayerCount: 2
Fore
SplineSet
384 385 m 1,0,-1
 288 384 l 1,1,-1
 288 480 l 1,2,-1
 383 480 l 1,3,-1
 384 385 l 1,0,-1
193 288 m 1,4,-1
 192 384 l 1,5,-1
 287 384 l 1,6,-1
 288 288 l 1,7,-1
 193 288 l 1,4,-1
384 480 m 1,8,-1
 384 576 l 1,9,-1
 480 576 l 1,10,-1
 480 480 l 1,11,-1
 384 480 l 1,8,-1
384 384 m 1,12,-1
 480 384 l 1,13,-1
 480 96 l 1,14,-1
 480 96 l 1,15,-1
 576 96 l 1,16,-1
 576 0 l 1,17,-1
 480 0 l 1,18,-1
 480 0 l 1,19,-1
 480 -96 l 1,20,-1
 384 -96 l 1,21,-1
 384 0 l 1,22,-1
 384 0 l 1,23,-1
 192 0 l 1,24,-1
 192 192 l 1,25,-1
 288 192 l 1,26,-1
 288 96 l 1,27,-1
 288 96 l 1,28,-1
 384 96 l 1,29,-1
 384 96 l 1,30,-1
 384 192 l 1,31,-1
 384 192 l 1,32,-1
 288 192 l 1,33,-1
 288 288 l 1,34,-1
 384 288 l 1,35,-1
 384 288 l 1,36,-1
 384 384 l 1,12,-1
96 192 m 1,37,-1
 96 96 l 1,38,-1
 0 96 l 1,39,-1
 0 192 l 1,40,-1
 96 192 l 1,37,-1
96 192 m 1,41,-1
 96 288 l 1,42,-1
 192 288 l 1,43,-1
 192 192 l 1,44,-1
 96 192 l 1,41,-1
192 384 m 1,45,-1
 96 384 l 1,46,-1
 96 576 l 1,47,-1
 96 576 l 1,48,-1
 0 576 l 1,49,-1
 0 672 l 1,50,-1
 96 672 l 1,51,-1
 96 672 l 1,52,-1
 96 768 l 1,53,-1
 192 768 l 1,54,-1
 192 384 l 1,45,-1
EndSplineSet
EndChar

StartChar: onehalf
Encoding: 189 189 263
Width: 576
VWidth: 0
Flags: W
LayerCount: 2
Fore
SplineSet
193 288 m 1,0,-1
 192 384 l 1,1,-1
 288 384 l 1,2,-1
 288 480 l 1,3,-1
 383 480 l 1,4,-1
 384 384 l 1,5,-1
 480 384 l 1,6,-1
 480 288 l 1,7,-1
 193 288 l 1,0,-1
384 480 m 1,8,-1
 384 576 l 1,9,-1
 480 576 l 1,10,-1
 480 480 l 1,11,-1
 384 480 l 1,8,-1
480 192 m 1,12,-1
 480 96 l 1,13,-1
 480 96 l 1,14,-1
 576 96 l 1,15,-1
 576 0 l 1,16,-1
 288 0 l 1,17,-1
 288 96 l 1,18,-1
 384 96 l 1,19,-1
 384 96 l 1,20,-1
 384 192 l 1,21,-1
 480 192 l 1,12,-1
480 192 m 1,22,-1
 480 288 l 1,23,-1
 576 288 l 1,24,-1
 576 192 l 1,25,-1
 480 192 l 1,22,-1
96 192 m 1,26,-1
 96 96 l 1,27,-1
 0 96 l 1,28,-1
 0 192 l 1,29,-1
 96 192 l 1,26,-1
96 192 m 1,30,-1
 96 288 l 1,31,-1
 192 288 l 1,32,-1
 192 192 l 1,33,-1
 96 192 l 1,30,-1
192 384 m 1,34,-1
 96 384 l 1,35,-1
 96 576 l 1,36,-1
 96 576 l 1,37,-1
 0 576 l 1,38,-1
 0 672 l 1,39,-1
 96 672 l 1,40,-1
 96 672 l 1,41,-1
 96 768 l 1,42,-1
 192 768 l 1,43,-1
 192 384 l 1,34,-1
EndSplineSet
EndChar

StartChar: threequarters
Encoding: 190 190 264
Width: 576
VWidth: 0
Flags: W
LayerCount: 2
Fore
SplineSet
193 288 m 1,0,-1
 192 384 l 1,1,-1
 0 384 l 1,2,-1
 0 480 l 1,3,-1
 192 480 l 1,4,-1
 192 576 l 1,5,-1
 96 576 l 1,6,-1
 96 672 l 1,7,-1
 0 672 l 1,8,-1
 0 768 l 1,9,-1
 288 768 l 1,10,-1
 288 480 l 1,11,-1
 384 480 l 1,12,-1
 384 385 l 1,13,-1
 288 384 l 1,14,-1
 288 288 l 1,15,-1
 193 288 l 1,0,-1
384 480 m 1,16,-1
 384 576 l 1,17,-1
 480 576 l 1,18,-1
 480 480 l 1,19,-1
 384 480 l 1,16,-1
384 384 m 1,20,-1
 480 384 l 1,21,-1
 480 96 l 1,22,-1
 480 96 l 1,23,-1
 576 96 l 1,24,-1
 576 0 l 1,25,-1
 480 0 l 1,26,-1
 480 0 l 1,27,-1
 480 -96 l 1,28,-1
 384 -96 l 1,29,-1
 384 0 l 1,30,-1
 384 0 l 1,31,-1
 192 0 l 1,32,-1
 192 192 l 1,33,-1
 288 192 l 1,34,-1
 288 96 l 1,35,-1
 288 96 l 1,36,-1
 384 96 l 1,37,-1
 384 96 l 1,38,-1
 384 192 l 1,39,-1
 384 192 l 1,40,-1
 288 192 l 1,41,-1
 288 288 l 1,42,-1
 384 288 l 1,43,-1
 384 288 l 1,44,-1
 384 384 l 1,20,-1
96 192 m 1,45,-1
 96 96 l 1,46,-1
 0 96 l 1,47,-1
 0 192 l 1,48,-1
 96 192 l 1,45,-1
96 192 m 1,49,-1
 96 288 l 1,50,-1
 192 288 l 1,51,-1
 192 192 l 1,52,-1
 96 192 l 1,49,-1
EndSplineSet
EndChar

StartChar: pi
Encoding: 960 960 402
Width: 574
VWidth: 0
Flags: W
LayerCount: 2
Fore
SplineSet
383 0 m 1,0,-1
 383 96 l 1,1,-1
 478 96 l 1,2,-1
 478 0 l 1,3,-1
 383 0 l 1,0,-1
382 384 m 1,4,-1
 382 96 l 1,5,-1
 287 96 l 1,6,-1
 287 384 l 1,7,-1
 287 384 l 1,8,-1
 191 384 l 1,9,-1
 191 384 l 1,10,-1
 191 0 l 1,11,-1
 96 0 l 1,12,-1
 96 384 l 1,13,-1
 96 384 l 1,14,-1
 0 384 l 1,15,-1
 0 480 l 1,16,-1
 478 480 l 1,17,-1
 478 384 l 1,18,-1
 383 384 l 1,19,-1
 382 384 l 1,4,-1
EndSplineSet
EndChar

StartChar: arrowup
Encoding: 8593 8593 403
Width: 576
VWidth: 0
Flags: W
LayerCount: 2
Fore
SplineSet
480 480 m 1,0,-1
 576 480 l 1,1,-1
 576 384 l 1,2,-1
 480 384 l 1,3,-1
 480 480 l 1,0,-1
480 480 m 1,4,-1
 384 480 l 1,5,-1
 384 480 l 1,6,-1
 384 0 l 1,7,-1
 288 0 l 1,8,-1
 288 480 l 1,9,-1
 288 480 l 1,10,-1
 192 480 l 1,11,-1
 192 576 l 1,12,-1
 288 576 l 1,13,-1
 288 576 l 1,14,-1
 288 672 l 1,15,-1
 384 672 l 1,16,-1
 384 576 l 1,17,-1
 384 576 l 1,18,-1
 480 576 l 1,19,-1
 480 480 l 1,4,-1
192 480 m 1,20,-1
 192 384 l 1,21,-1
 96 384 l 1,22,-1
 96 480 l 1,23,-1
 192 480 l 1,20,-1
EndSplineSet
EndChar

StartChar: arrowdown
Encoding: 8595 8595 404
Width: 576
VWidth: 0
Flags: W
LayerCount: 2
Fore
SplineSet
480 192 m 1,0,-1
 480 288 l 1,1,-1
 576 288 l 1,2,-1
 576 192 l 1,3,-1
 480 192 l 1,0,-1
192 192 m 1,4,-1
 96 192 l 1,5,-1
 96 288 l 1,6,-1
 192 288 l 1,7,-1
 192 192 l 1,4,-1
192 192 m 1,8,-1
 288 192 l 1,9,-1
 288 192 l 1,10,-1
 288 672 l 1,11,-1
 384 672 l 1,12,-1
 384 192 l 1,13,-1
 384 192 l 1,14,-1
 480 192 l 1,15,-1
 480 96 l 1,16,-1
 384 96 l 1,17,-1
 384 96 l 1,18,-1
 384 0 l 1,19,-1
 288 0 l 1,20,-1
 288 96 l 1,21,-1
 288 96 l 1,22,-1
 192 96 l 1,23,-1
 192 192 l 1,8,-1
EndSplineSet
EndChar

StartChar: lessequal
Encoding: 8804 8804 405
Width: 576
VWidth: 0
Flags: W
LayerCount: 2
Fore
SplineSet
192 -96 m 1,0,-1
 288 -96 l 1,1,-1
 288 -192 l 1,2,-1
 192 -192 l 1,3,-1
 192 -96 l 1,0,-1
192 -96 m 1,4,-1
 96 -96 l 1,5,-1
 96 0 l 1,6,-1
 192 0 l 1,7,-1
 192 -96 l 1,4,-1
96 0 m 1,8,-1
 0 0 l 1,9,-1
 0 96 l 1,10,-1
 96 96 l 1,11,-1
 96 0 l 1,8,-1
288 96 m 1,12,-1
 384 96 l 1,13,-1
 384 0 l 1,14,-1
 288 0 l 1,15,-1
 288 96 l 1,12,-1
288 96 m 1,16,-1
 192 96 l 1,17,-1
 192 192 l 1,18,-1
 288 192 l 1,19,-1
 288 96 l 1,16,-1
192 192 m 1,20,-1
 96 192 l 1,21,-1
 96 288 l 1,22,-1
 192 288 l 1,23,-1
 192 192 l 1,20,-1
96 288 m 1,24,-1
 0 288 l 1,25,-1
 0 384 l 1,26,-1
 96 384 l 1,27,-1
 96 288 l 1,24,-1
96 384 m 1,28,-1
 96 480 l 1,29,-1
 192 480 l 1,30,-1
 192 384 l 1,31,-1
 96 384 l 1,28,-1
192 480 m 1,32,-1
 192 576 l 1,33,-1
 288 576 l 1,34,-1
 288 480 l 1,35,-1
 192 480 l 1,32,-1
288 576 m 1,36,-1
 288 672 l 1,37,-1
 384 672 l 1,38,-1
 384 576 l 1,39,-1
 288 576 l 1,36,-1
EndSplineSet
EndChar

StartChar: greaterequal
Encoding: 8805 8805 406
Width: 576
VWidth: 0
Flags: W
LayerCount: 2
Fore
SplineSet
288 -96 m 1,0,-1
 288 -192 l 1,1,-1
 192 -192 l 1,2,-1
 192 -96 l 1,3,-1
 288 -96 l 1,0,-1
288 -96 m 1,4,-1
 288 0 l 1,5,-1
 384 0 l 1,6,-1
 384 -96 l 1,7,-1
 288 -96 l 1,4,-1
384 0 m 1,8,-1
 384 96 l 1,9,-1
 480 96 l 1,10,-1
 480 0 l 1,11,-1
 384 0 l 1,8,-1
192 96 m 1,12,-1
 192 0 l 1,13,-1
 96 0 l 1,14,-1
 96 96 l 1,15,-1
 192 96 l 1,12,-1
192 96 m 1,16,-1
 192 192 l 1,17,-1
 288 192 l 1,18,-1
 288 96 l 1,19,-1
 192 96 l 1,16,-1
288 192 m 1,20,-1
 288 288 l 1,21,-1
 384 288 l 1,22,-1
 384 192 l 1,23,-1
 288 192 l 1,20,-1
384 288 m 1,24,-1
 384 384 l 1,25,-1
 480 384 l 1,26,-1
 480 288 l 1,27,-1
 384 288 l 1,24,-1
384 384 m 1,28,-1
 288 384 l 1,29,-1
 288 480 l 1,30,-1
 384 480 l 1,31,-1
 384 384 l 1,28,-1
288 480 m 1,32,-1
 192 480 l 1,33,-1
 192 576 l 1,34,-1
 288 576 l 1,35,-1
 288 480 l 1,32,-1
192 576 m 1,36,-1
 96 576 l 1,37,-1
 96 672 l 1,38,-1
 192 672 l 1,39,-1
 192 576 l 1,36,-1
EndSplineSet
EndChar

StartChar: SF100000
Encoding: 9472 9472 407
Width: 576
VWidth: 0
Flags: W
LayerCount: 2
Fore
SplineSet
0 384 m 1,0,-1
 576 384 l 1,1,-1
 576 288 l 1,2,-1
 0 288 l 1,3,-1
 0 384 l 1,0,-1
EndSplineSet
EndChar

StartChar: uni2501
Encoding: 9473 9473 408
Width: 576
VWidth: 0
Flags: W
LayerCount: 2
Fore
SplineSet
0 384 m 1,0,-1
 576 384 l 1,1,-1
 576 192 l 1,2,-1
 0 192 l 1,3,-1
 0 384 l 1,0,-1
EndSplineSet
EndChar

StartChar: SF110000
Encoding: 9474 9474 409
Width: 576
VWidth: 0
Flags: W
LayerCount: 2
Fore
SplineSet
192 768 m 1,0,-1
 288 768 l 1,1,-1
 288 -192 l 1,2,-1
 192 -192 l 1,3,-1
 192 768 l 1,0,-1
EndSplineSet
EndChar

StartChar: uni2503
Encoding: 9475 9475 410
Width: 576
VWidth: 0
Flags: W
LayerCount: 2
Fore
SplineSet
192 768 m 1,0,-1
 384 768 l 1,1,-1
 384 -192 l 1,2,-1
 192 -192 l 1,3,-1
 192 768 l 1,0,-1
EndSplineSet
EndChar

StartChar: uni2504
Encoding: 9476 9476 411
Width: 576
VWidth: 0
Flags: W
LayerCount: 2
Fore
SplineSet
480 288 m 1,0,-1
 384 288 l 1,1,-1
 384 384 l 1,2,-1
 480 384 l 1,3,-1
 480 288 l 1,0,-1
288 384 m 1,4,-1
 288 288 l 1,5,-1
 192 288 l 1,6,-1
 192 384 l 1,7,-1
 288 384 l 1,4,-1
0 384 m 1,8,-1
 96 384 l 1,9,-1
 96 288 l 1,10,-1
 0 288 l 1,11,-1
 0 384 l 1,8,-1
EndSplineSet
EndChar

StartChar: uni2505
Encoding: 9477 9477 412
Width: 576
VWidth: 0
Flags: W
LayerCount: 2
Fore
SplineSet
384 384 m 1,0,-1
 480 384 l 1,1,-1
 480 192 l 1,2,-1
 384 192 l 1,3,-1
 384 384 l 1,0,-1
192 384 m 1,4,-1
 288 384 l 1,5,-1
 288 192 l 1,6,-1
 192 192 l 1,7,-1
 192 384 l 1,4,-1
0 384 m 1,8,-1
 96 384 l 1,9,-1
 96 192 l 1,10,-1
 0 192 l 1,11,-1
 0 384 l 1,8,-1
EndSplineSet
EndChar

StartChar: uni2506
Encoding: 9478 9478 413
Width: 576
VWidth: 0
Flags: W
LayerCount: 2
Fore
SplineSet
192 0 m 1,0,-1
 288 0 l 1,1,-1
 288 -192 l 1,2,-1
 192 -192 l 1,3,-1
 192 0 l 1,0,-1
192 480 m 1,4,-1
 288 480 l 1,5,-1
 288 96 l 1,6,-1
 192 96 l 1,7,-1
 192 480 l 1,4,-1
192 768 m 1,8,-1
 288 768 l 1,9,-1
 288 576 l 1,10,-1
 192 576 l 1,11,-1
 192 768 l 1,8,-1
EndSplineSet
EndChar

StartChar: uni2507
Encoding: 9479 9479 414
Width: 576
VWidth: 0
Flags: W
LayerCount: 2
Fore
SplineSet
192 0 m 1,0,-1
 384 0 l 1,1,-1
 384 -192 l 1,2,-1
 192 -192 l 1,3,-1
 192 0 l 1,0,-1
192 480 m 1,4,-1
 384 480 l 1,5,-1
 384 96 l 1,6,-1
 192 96 l 1,7,-1
 192 480 l 1,4,-1
192 768 m 1,8,-1
 384 768 l 1,9,-1
 384 576 l 1,10,-1
 192 576 l 1,11,-1
 192 768 l 1,8,-1
EndSplineSet
EndChar

StartChar: uni2508
Encoding: 9480 9480 415
Width: 576
VWidth: 0
Flags: W
LayerCount: 2
Fore
SplineSet
384 384 m 1,0,-1
 480 384 l 1,1,-1
 480 288 l 1,2,-1
 384 288 l 1,3,-1
 384 384 l 1,0,-1
192 384 m 1,4,-1
 288 384 l 1,5,-1
 288 288 l 1,6,-1
 192 288 l 1,7,-1
 192 384 l 1,4,-1
0 384 m 1,8,-1
 96 384 l 1,9,-1
 96 288 l 1,10,-1
 0 288 l 1,11,-1
 0 384 l 1,8,-1
EndSplineSet
EndChar

StartChar: uni2509
Encoding: 9481 9481 416
Width: 576
VWidth: 0
Flags: W
LayerCount: 2
Fore
SplineSet
384 384 m 1,0,-1
 480 384 l 1,1,-1
 480 192 l 1,2,-1
 384 192 l 1,3,-1
 384 384 l 1,0,-1
192 384 m 1,4,-1
 288 384 l 1,5,-1
 288 192 l 1,6,-1
 192 192 l 1,7,-1
 192 384 l 1,4,-1
0 384 m 1,8,-1
 96 384 l 1,9,-1
 96 192 l 1,10,-1
 0 192 l 1,11,-1
 0 384 l 1,8,-1
EndSplineSet
EndChar

StartChar: uni250A
Encoding: 9482 9482 417
Width: 576
VWidth: 0
Flags: W
LayerCount: 2
Fore
SplineSet
192 -96 m 1,0,-1
 288 -96 l 1,1,-1
 288 -192 l 1,2,-1
 192 -192 l 1,3,-1
 192 -96 l 1,0,-1
192 192 m 1,4,-1
 288 192 l 1,5,-1
 288 0 l 1,6,-1
 192 0 l 1,7,-1
 192 192 l 1,4,-1
192 480 m 1,8,-1
 288 480 l 1,9,-1
 288 288 l 1,10,-1
 192 288 l 1,11,-1
 192 480 l 1,8,-1
192 768 m 1,12,-1
 288 768 l 1,13,-1
 288 576 l 1,14,-1
 192 576 l 1,15,-1
 192 768 l 1,12,-1
EndSplineSet
EndChar

StartChar: uni250B
Encoding: 9483 9483 418
Width: 576
VWidth: 0
Flags: W
LayerCount: 2
Fore
SplineSet
192 -96 m 1,0,-1
 384 -96 l 1,1,-1
 384 -192 l 1,2,-1
 192 -192 l 1,3,-1
 192 -96 l 1,0,-1
192 192 m 1,4,-1
 384 192 l 1,5,-1
 384 0 l 1,6,-1
 192 0 l 1,7,-1
 192 192 l 1,4,-1
192 480 m 1,8,-1
 384 480 l 1,9,-1
 384 288 l 1,10,-1
 192 288 l 1,11,-1
 192 480 l 1,8,-1
192 768 m 1,12,-1
 384 768 l 1,13,-1
 384 576 l 1,14,-1
 192 576 l 1,15,-1
 192 768 l 1,12,-1
EndSplineSet
EndChar

StartChar: SF010000
Encoding: 9484 9484 419
Width: 576
VWidth: 0
Flags: W
LayerCount: 2
Fore
SplineSet
192 384 m 1,0,-1
 576 384 l 1,1,-1
 576 288 l 1,2,-1
 288 288 l 1,3,-1
 288 288 l 1,4,-1
 288 -192 l 1,5,-1
 192 -192 l 1,6,-1
 192 384 l 1,0,-1
EndSplineSet
EndChar

StartChar: uni250D
Encoding: 9485 9485 420
Width: 576
VWidth: 0
Flags: W
LayerCount: 2
Fore
SplineSet
192 384 m 1,0,-1
 576 384 l 1,1,-1
 576 192 l 1,2,-1
 288 192 l 1,3,-1
 288 192 l 1,4,-1
 288 -192 l 1,5,-1
 192 -192 l 1,6,-1
 192 384 l 1,0,-1
EndSplineSet
EndChar

StartChar: uni250E
Encoding: 9486 9486 421
Width: 576
VWidth: 0
Flags: W
LayerCount: 2
Fore
SplineSet
192 384 m 1,0,-1
 576 384 l 1,1,-1
 576 288 l 1,2,-1
 384 288 l 1,3,-1
 384 288 l 1,4,-1
 384 -192 l 1,5,-1
 192 -192 l 1,6,-1
 192 384 l 1,0,-1
EndSplineSet
EndChar

StartChar: uni250F
Encoding: 9487 9487 422
Width: 576
VWidth: 0
Flags: W
LayerCount: 2
Fore
SplineSet
192 384 m 1,0,-1
 576 384 l 1,1,-1
 576 192 l 1,2,-1
 384 192 l 1,3,-1
 384 192 l 1,4,-1
 384 -192 l 1,5,-1
 192 -192 l 1,6,-1
 192 384 l 1,0,-1
EndSplineSet
EndChar

StartChar: SF030000
Encoding: 9488 9488 423
Width: 576
VWidth: 0
Flags: W
LayerCount: 2
Fore
SplineSet
0 384 m 1,0,-1
 288 384 l 1,1,-1
 288 -192 l 1,2,-1
 192 -192 l 1,3,-1
 192 288 l 1,4,-1
 192 288 l 1,5,-1
 0 288 l 1,6,-1
 0 384 l 1,0,-1
EndSplineSet
EndChar

StartChar: uni2511
Encoding: 9489 9489 424
Width: 576
VWidth: 0
Flags: W
LayerCount: 2
Fore
SplineSet
0 384 m 1,0,-1
 288 384 l 1,1,-1
 288 -192 l 1,2,-1
 192 -192 l 1,3,-1
 192 192 l 1,4,-1
 192 192 l 1,5,-1
 0 192 l 1,6,-1
 0 384 l 1,0,-1
EndSplineSet
EndChar

StartChar: uni2512
Encoding: 9490 9490 425
Width: 576
VWidth: 0
Flags: W
LayerCount: 2
Fore
SplineSet
0 384 m 1,0,-1
 384 384 l 1,1,-1
 384 -192 l 1,2,-1
 192 -192 l 1,3,-1
 192 288 l 1,4,-1
 192 288 l 1,5,-1
 0 288 l 1,6,-1
 0 384 l 1,0,-1
EndSplineSet
EndChar

StartChar: uni2513
Encoding: 9491 9491 426
Width: 576
VWidth: 0
Flags: W
LayerCount: 2
Fore
SplineSet
0 384 m 1,0,-1
 384 384 l 1,1,-1
 384 -192 l 1,2,-1
 192 -192 l 1,3,-1
 192 192 l 1,4,-1
 192 192 l 1,5,-1
 0 192 l 1,6,-1
 0 384 l 1,0,-1
EndSplineSet
EndChar

StartChar: SF020000
Encoding: 9492 9492 427
Width: 576
VWidth: 0
Flags: W
LayerCount: 2
Fore
SplineSet
192 768 m 1,0,-1
 288 768 l 1,1,-1
 288 384 l 1,2,-1
 288 384 l 1,3,-1
 576 384 l 1,4,-1
 576 288 l 1,5,-1
 192 288 l 1,6,-1
 192 768 l 1,0,-1
EndSplineSet
EndChar

StartChar: uni2515
Encoding: 9493 9493 428
Width: 576
VWidth: 0
Flags: W
LayerCount: 2
Fore
SplineSet
192 768 m 1,0,-1
 288 768 l 1,1,-1
 288 384 l 1,2,-1
 288 384 l 1,3,-1
 576 384 l 1,4,-1
 576 192 l 1,5,-1
 192 192 l 1,6,-1
 192 768 l 1,0,-1
EndSplineSet
EndChar

StartChar: uni2516
Encoding: 9494 9494 429
Width: 576
VWidth: 0
Flags: W
LayerCount: 2
Fore
SplineSet
192 768 m 1,0,-1
 384 768 l 1,1,-1
 384 384 l 1,2,-1
 384 384 l 1,3,-1
 576 384 l 1,4,-1
 576 288 l 1,5,-1
 192 288 l 1,6,-1
 192 768 l 1,0,-1
EndSplineSet
EndChar

StartChar: uni2517
Encoding: 9495 9495 430
Width: 576
VWidth: 0
Flags: W
LayerCount: 2
Fore
SplineSet
192 768 m 1,0,-1
 384 768 l 1,1,-1
 384 384 l 1,2,-1
 384 384 l 1,3,-1
 576 384 l 1,4,-1
 576 192 l 1,5,-1
 192 192 l 1,6,-1
 192 768 l 1,0,-1
EndSplineSet
EndChar

StartChar: SF040000
Encoding: 9496 9496 431
Width: 576
VWidth: 0
Flags: W
LayerCount: 2
Fore
SplineSet
192 768 m 1,0,-1
 288 768 l 1,1,-1
 288 288 l 1,2,-1
 0 288 l 1,3,-1
 0 384 l 1,4,-1
 192 384 l 1,5,-1
 192 384 l 1,6,-1
 192 768 l 1,0,-1
EndSplineSet
EndChar

StartChar: uni2519
Encoding: 9497 9497 432
Width: 576
VWidth: 0
Flags: W
LayerCount: 2
Fore
SplineSet
192 768 m 1,0,-1
 288 768 l 1,1,-1
 288 192 l 1,2,-1
 0 192 l 1,3,-1
 0 384 l 1,4,-1
 192 384 l 1,5,-1
 192 384 l 1,6,-1
 192 768 l 1,0,-1
EndSplineSet
EndChar

StartChar: uni251A
Encoding: 9498 9498 433
Width: 576
VWidth: 0
Flags: W
LayerCount: 2
Fore
SplineSet
192 768 m 1,0,-1
 384 768 l 1,1,-1
 384 288 l 1,2,-1
 0 288 l 1,3,-1
 0 384 l 1,4,-1
 192 384 l 1,5,-1
 192 384 l 1,6,-1
 192 768 l 1,0,-1
EndSplineSet
EndChar

StartChar: uni251B
Encoding: 9499 9499 434
Width: 576
VWidth: 0
Flags: W
LayerCount: 2
Fore
SplineSet
192 768 m 1,0,-1
 384 768 l 1,1,-1
 384 192 l 1,2,-1
 0 192 l 1,3,-1
 0 384 l 1,4,-1
 192 384 l 1,5,-1
 192 384 l 1,6,-1
 192 768 l 1,0,-1
EndSplineSet
EndChar

StartChar: SF080000
Encoding: 9500 9500 435
Width: 576
VWidth: 0
Flags: W
LayerCount: 2
Fore
SplineSet
192 768 m 1,0,-1
 288 768 l 1,1,-1
 288 384 l 1,2,-1
 288 384 l 1,3,-1
 576 384 l 1,4,-1
 576 288 l 1,5,-1
 288 288 l 1,6,-1
 288 288 l 1,7,-1
 288 -192 l 1,8,-1
 192 -192 l 1,9,-1
 192 768 l 1,0,-1
EndSplineSet
EndChar

StartChar: uni251D
Encoding: 9501 9501 436
Width: 576
VWidth: 0
Flags: W
LayerCount: 2
Fore
SplineSet
192 768 m 1,0,-1
 288 768 l 1,1,-1
 288 384 l 1,2,-1
 288 384 l 1,3,-1
 576 384 l 1,4,-1
 576 192 l 1,5,-1
 288 192 l 1,6,-1
 288 192 l 1,7,-1
 288 -192 l 1,8,-1
 192 -192 l 1,9,-1
 192 768 l 1,0,-1
EndSplineSet
EndChar

StartChar: uni251E
Encoding: 9502 9502 437
Width: 576
VWidth: 0
Flags: W
LayerCount: 2
Fore
SplineSet
192 768 m 1,0,-1
 384 768 l 1,1,-1
 384 384 l 1,2,-1
 384 384 l 1,3,-1
 576 384 l 1,4,-1
 576 288 l 1,5,-1
 288 288 l 1,6,-1
 288 288 l 1,7,-1
 288 -192 l 1,8,-1
 192 -192 l 1,9,-1
 192 768 l 1,0,-1
EndSplineSet
EndChar

StartChar: uni251F
Encoding: 9503 9503 438
Width: 576
VWidth: 0
Flags: W
LayerCount: 2
Fore
SplineSet
192 768 m 1,0,-1
 288 768 l 1,1,-1
 288 384 l 1,2,-1
 288 384 l 1,3,-1
 576 384 l 1,4,-1
 576 288 l 1,5,-1
 384 288 l 1,6,-1
 384 288 l 1,7,-1
 384 -192 l 1,8,-1
 192 -192 l 1,9,-1
 192 768 l 1,0,-1
EndSplineSet
EndChar

StartChar: uni2520
Encoding: 9504 9504 439
Width: 576
VWidth: 0
Flags: W
LayerCount: 2
Fore
SplineSet
192 768 m 1,0,-1
 384 768 l 1,1,-1
 384 384 l 1,2,-1
 384 384 l 1,3,-1
 576 384 l 1,4,-1
 576 288 l 1,5,-1
 384 288 l 1,6,-1
 384 288 l 1,7,-1
 384 -192 l 1,8,-1
 192 -192 l 1,9,-1
 192 768 l 1,0,-1
EndSplineSet
EndChar

StartChar: uni2521
Encoding: 9505 9505 440
Width: 576
VWidth: 0
Flags: W
LayerCount: 2
Fore
SplineSet
192 768 m 1,0,-1
 384 768 l 1,1,-1
 384 384 l 1,2,-1
 384 384 l 1,3,-1
 576 384 l 1,4,-1
 576 192 l 1,5,-1
 288 192 l 1,6,-1
 288 192 l 1,7,-1
 288 -192 l 1,8,-1
 192 -192 l 1,9,-1
 192 768 l 1,0,-1
EndSplineSet
EndChar

StartChar: uni2522
Encoding: 9506 9506 441
Width: 576
VWidth: 0
Flags: W
LayerCount: 2
Fore
SplineSet
192 768 m 1,0,-1
 288 768 l 1,1,-1
 288 384 l 1,2,-1
 288 384 l 1,3,-1
 576 384 l 1,4,-1
 576 192 l 1,5,-1
 384 192 l 1,6,-1
 384 192 l 1,7,-1
 384 -192 l 1,8,-1
 192 -192 l 1,9,-1
 192 768 l 1,0,-1
EndSplineSet
EndChar

StartChar: uni2523
Encoding: 9507 9507 442
Width: 576
VWidth: 0
Flags: W
LayerCount: 2
Fore
SplineSet
192 768 m 1,0,-1
 384 768 l 1,1,-1
 384 384 l 1,2,-1
 384 384 l 1,3,-1
 576 384 l 1,4,-1
 576 192 l 1,5,-1
 384 192 l 1,6,-1
 384 192 l 1,7,-1
 384 -192 l 1,8,-1
 192 -192 l 1,9,-1
 192 768 l 1,0,-1
EndSplineSet
EndChar

StartChar: SF090000
Encoding: 9508 9508 443
Width: 576
VWidth: 0
Flags: W
LayerCount: 2
Fore
SplineSet
192 768 m 1,0,-1
 288 768 l 1,1,-1
 288 -192 l 1,2,-1
 192 -192 l 1,3,-1
 192 288 l 1,4,-1
 192 288 l 1,5,-1
 0 288 l 1,6,-1
 0 384 l 1,7,-1
 192 384 l 1,8,-1
 192 384 l 1,9,-1
 192 768 l 1,0,-1
EndSplineSet
EndChar

StartChar: uni2525
Encoding: 9509 9509 444
Width: 576
VWidth: 0
Flags: W
LayerCount: 2
Fore
SplineSet
192 768 m 1,0,-1
 288 768 l 1,1,-1
 288 -192 l 1,2,-1
 192 -192 l 1,3,-1
 192 192 l 1,4,-1
 192 192 l 1,5,-1
 0 192 l 1,6,-1
 0 384 l 1,7,-1
 192 384 l 1,8,-1
 192 384 l 1,9,-1
 192 768 l 1,0,-1
EndSplineSet
EndChar

StartChar: uni2526
Encoding: 9510 9510 445
Width: 576
VWidth: 0
Flags: W
LayerCount: 2
Fore
SplineSet
192 768 m 1,0,-1
 384 768 l 1,1,-1
 384 384 l 1,2,-1
 288 384 l 1,3,-1
 288 384 l 1,4,-1
 288 -192 l 1,5,-1
 192 -192 l 1,6,-1
 192 288 l 1,7,-1
 192 288 l 1,8,-1
 0 288 l 1,9,-1
 0 384 l 1,10,-1
 192 384 l 1,11,-1
 192 384 l 1,12,-1
 192 768 l 1,0,-1
EndSplineSet
EndChar

StartChar: uni2527
Encoding: 9511 9511 446
Width: 576
VWidth: 0
Flags: W
LayerCount: 2
Fore
SplineSet
192 768 m 1,0,-1
 288 768 l 1,1,-1
 288 288 l 1,2,-1
 288 288 l 1,3,-1
 384 288 l 1,4,-1
 384 -192 l 1,5,-1
 192 -192 l 1,6,-1
 192 288 l 1,7,-1
 192 288 l 1,8,-1
 0 288 l 1,9,-1
 0 384 l 1,10,-1
 192 384 l 1,11,-1
 192 384 l 1,12,-1
 192 768 l 1,0,-1
EndSplineSet
EndChar

StartChar: uni2528
Encoding: 9512 9512 447
Width: 576
VWidth: 0
Flags: W
LayerCount: 2
Fore
SplineSet
192 768 m 1,0,-1
 384 768 l 1,1,-1
 384 -192 l 1,2,-1
 192 -192 l 1,3,-1
 192 288 l 1,4,-1
 192 288 l 1,5,-1
 0 288 l 1,6,-1
 0 384 l 1,7,-1
 192 384 l 1,8,-1
 192 384 l 1,9,-1
 192 768 l 1,0,-1
EndSplineSet
EndChar

StartChar: uni2529
Encoding: 9513 9513 448
Width: 576
VWidth: 0
Flags: W
LayerCount: 2
Fore
SplineSet
192 768 m 1,0,-1
 384 768 l 1,1,-1
 384 192 l 1,2,-1
 288 192 l 1,3,-1
 288 192 l 1,4,-1
 288 -192 l 1,5,-1
 192 -192 l 1,6,-1
 192 192 l 1,7,-1
 192 192 l 1,8,-1
 0 192 l 1,9,-1
 0 384 l 1,10,-1
 192 384 l 1,11,-1
 192 384 l 1,12,-1
 192 768 l 1,0,-1
EndSplineSet
EndChar

StartChar: uni252A
Encoding: 9514 9514 449
Width: 576
VWidth: 0
Flags: W
LayerCount: 2
Fore
SplineSet
192 768 m 1,0,-1
 288 768 l 1,1,-1
 288 384 l 1,2,-1
 288 384 l 1,3,-1
 384 384 l 1,4,-1
 384 -192 l 1,5,-1
 192 -192 l 1,6,-1
 192 192 l 1,7,-1
 192 192 l 1,8,-1
 0 192 l 1,9,-1
 0 384 l 1,10,-1
 192 384 l 1,11,-1
 192 384 l 1,12,-1
 192 768 l 1,0,-1
EndSplineSet
EndChar

StartChar: uni252B
Encoding: 9515 9515 450
Width: 576
VWidth: 0
Flags: W
LayerCount: 2
Fore
SplineSet
192 768 m 1,0,-1
 384 768 l 1,1,-1
 384 -192 l 1,2,-1
 192 -192 l 1,3,-1
 192 192 l 1,4,-1
 192 192 l 1,5,-1
 0 192 l 1,6,-1
 0 384 l 1,7,-1
 192 384 l 1,8,-1
 192 384 l 1,9,-1
 192 768 l 1,0,-1
EndSplineSet
EndChar

StartChar: SF060000
Encoding: 9516 9516 451
Width: 576
VWidth: 0
Flags: W
LayerCount: 2
Fore
SplineSet
0 384 m 1,0,-1
 576 384 l 1,1,-1
 576 288 l 1,2,-1
 288 288 l 1,3,-1
 288 288 l 1,4,-1
 288 -192 l 1,5,-1
 192 -192 l 1,6,-1
 192 288 l 1,7,-1
 192 288 l 1,8,-1
 0 288 l 1,9,-1
 0 384 l 1,0,-1
EndSplineSet
EndChar

StartChar: uni252D
Encoding: 9517 9517 452
Width: 576
VWidth: 0
Flags: W
LayerCount: 2
Fore
SplineSet
0 384 m 1,0,-1
 576 384 l 1,1,-1
 576 288 l 1,2,-1
 288 288 l 1,3,-1
 288 288 l 1,4,-1
 288 -192 l 1,5,-1
 192 -192 l 1,6,-1
 192 192 l 1,7,-1
 192 192 l 1,8,-1
 0 192 l 1,9,-1
 0 384 l 1,0,-1
EndSplineSet
EndChar

StartChar: uni252E
Encoding: 9518 9518 453
Width: 576
VWidth: 0
Flags: W
LayerCount: 2
Fore
SplineSet
0 384 m 1,0,-1
 576 384 l 1,1,-1
 576 192 l 1,2,-1
 288 192 l 1,3,-1
 288 192 l 1,4,-1
 288 -192 l 1,5,-1
 192 -192 l 1,6,-1
 192 288 l 1,7,-1
 192 288 l 1,8,-1
 0 288 l 1,9,-1
 0 384 l 1,0,-1
EndSplineSet
EndChar

StartChar: uni252F
Encoding: 9519 9519 454
Width: 576
VWidth: 0
Flags: W
LayerCount: 2
Fore
SplineSet
0 384 m 1,0,-1
 576 384 l 1,1,-1
 576 192 l 1,2,-1
 288 192 l 1,3,-1
 288 192 l 1,4,-1
 288 -192 l 1,5,-1
 192 -192 l 1,6,-1
 192 192 l 1,7,-1
 192 192 l 1,8,-1
 0 192 l 1,9,-1
 0 384 l 1,0,-1
EndSplineSet
EndChar

StartChar: uni2530
Encoding: 9520 9520 455
Width: 576
VWidth: 0
Flags: W
LayerCount: 2
Fore
SplineSet
0 384 m 1,0,-1
 576 384 l 1,1,-1
 576 288 l 1,2,-1
 384 288 l 1,3,-1
 384 288 l 1,4,-1
 384 -192 l 1,5,-1
 192 -192 l 1,6,-1
 192 288 l 1,7,-1
 192 288 l 1,8,-1
 0 288 l 1,9,-1
 0 384 l 1,0,-1
EndSplineSet
EndChar

StartChar: uni2531
Encoding: 9521 9521 456
Width: 576
VWidth: 0
Flags: W
LayerCount: 2
Fore
SplineSet
0 384 m 1,0,-1
 576 384 l 1,1,-1
 576 288 l 1,2,-1
 384 288 l 1,3,-1
 384 288 l 1,4,-1
 384 -192 l 1,5,-1
 192 -192 l 1,6,-1
 192 192 l 1,7,-1
 192 192 l 1,8,-1
 0 192 l 1,9,-1
 0 384 l 1,0,-1
EndSplineSet
EndChar

StartChar: uni2532
Encoding: 9522 9522 457
Width: 576
VWidth: 0
Flags: W
LayerCount: 2
Fore
SplineSet
0 384 m 1,0,-1
 576 384 l 1,1,-1
 576 192 l 1,2,-1
 384 192 l 1,3,-1
 384 192 l 1,4,-1
 384 -192 l 1,5,-1
 192 -192 l 1,6,-1
 192 288 l 1,7,-1
 192 288 l 1,8,-1
 0 288 l 1,9,-1
 0 384 l 1,0,-1
EndSplineSet
EndChar

StartChar: uni2533
Encoding: 9523 9523 458
Width: 576
VWidth: 0
Flags: W
LayerCount: 2
Fore
SplineSet
0 384 m 1,0,-1
 576 384 l 1,1,-1
 576 192 l 1,2,-1
 384 192 l 1,3,-1
 384 192 l 1,4,-1
 384 -192 l 1,5,-1
 192 -192 l 1,6,-1
 192 192 l 1,7,-1
 192 192 l 1,8,-1
 0 192 l 1,9,-1
 0 384 l 1,0,-1
EndSplineSet
EndChar

StartChar: SF070000
Encoding: 9524 9524 459
Width: 576
VWidth: 0
Flags: W
LayerCount: 2
Fore
SplineSet
0 384 m 1,0,-1
 192 384 l 1,1,-1
 192 384 l 1,2,-1
 192 768 l 1,3,-1
 288 768 l 1,4,-1
 288 384 l 1,5,-1
 288 384 l 1,6,-1
 576 384 l 1,7,-1
 576 288 l 1,8,-1
 0 288 l 1,9,-1
 0 384 l 1,0,-1
EndSplineSet
EndChar

StartChar: uni2535
Encoding: 9525 9525 460
Width: 576
VWidth: 0
Flags: W
LayerCount: 2
Fore
SplineSet
192 768 m 1,0,-1
 288 768 l 1,1,-1
 288 384 l 1,2,-1
 288 384 l 1,3,-1
 576 384 l 1,4,-1
 576 288 l 1,5,-1
 192 288 l 1,6,-1
 192 288 l 1,7,-1
 192 192 l 1,8,-1
 0 192 l 1,9,-1
 0 384 l 1,10,-1
 192 384 l 1,11,-1
 192 384 l 1,12,-1
 192 768 l 1,0,-1
EndSplineSet
EndChar

StartChar: uni2536
Encoding: 9526 9526 461
Width: 576
VWidth: 0
Flags: W
LayerCount: 2
Fore
SplineSet
192 768 m 1,0,-1
 288 768 l 1,1,-1
 288 384 l 1,2,-1
 288 384 l 1,3,-1
 576 384 l 1,4,-1
 576 192 l 1,5,-1
 288 192 l 1,6,-1
 288 288 l 1,7,-1
 288 288 l 1,8,-1
 0 288 l 1,9,-1
 0 384 l 1,10,-1
 192 384 l 1,11,-1
 192 384 l 1,12,-1
 192 768 l 1,0,-1
EndSplineSet
EndChar

StartChar: uni2537
Encoding: 9527 9527 462
Width: 576
VWidth: 0
Flags: W
LayerCount: 2
Fore
SplineSet
192 768 m 1,0,-1
 288 768 l 1,1,-1
 288 384 l 1,2,-1
 288 384 l 1,3,-1
 576 384 l 1,4,-1
 576 192 l 1,5,-1
 0 192 l 1,6,-1
 0 384 l 1,7,-1
 192 384 l 1,8,-1
 192 384 l 1,9,-1
 192 768 l 1,0,-1
EndSplineSet
EndChar

StartChar: uni2538
Encoding: 9528 9528 463
Width: 576
VWidth: 0
Flags: W
LayerCount: 2
Fore
SplineSet
192 768 m 1,0,-1
 384 768 l 1,1,-1
 384 384 l 1,2,-1
 384 384 l 1,3,-1
 576 384 l 1,4,-1
 576 288 l 1,5,-1
 0 288 l 1,6,-1
 0 384 l 1,7,-1
 192 384 l 1,8,-1
 192 384 l 1,9,-1
 192 768 l 1,0,-1
EndSplineSet
EndChar

StartChar: uni2539
Encoding: 9529 9529 464
Width: 576
VWidth: 0
Flags: W
LayerCount: 2
Fore
SplineSet
192 768 m 1,0,-1
 384 768 l 1,1,-1
 384 384 l 1,2,-1
 384 384 l 1,3,-1
 576 384 l 1,4,-1
 576 288 l 1,5,-1
 288 288 l 1,6,-1
 288 288 l 1,7,-1
 288 192 l 1,8,-1
 0 192 l 1,9,-1
 0 384 l 1,10,-1
 192 384 l 1,11,-1
 192 384 l 1,12,-1
 192 768 l 1,0,-1
EndSplineSet
EndChar

StartChar: uni253A
Encoding: 9530 9530 465
Width: 576
VWidth: 0
Flags: W
LayerCount: 2
Fore
SplineSet
192 768 m 1,0,-1
 384 768 l 1,1,-1
 384 384 l 1,2,-1
 384 384 l 1,3,-1
 576 384 l 1,4,-1
 576 192 l 1,5,-1
 288 192 l 1,6,-1
 288 288 l 1,7,-1
 288 288 l 1,8,-1
 0 288 l 1,9,-1
 0 384 l 1,10,-1
 192 384 l 1,11,-1
 192 384 l 1,12,-1
 192 768 l 1,0,-1
EndSplineSet
EndChar

StartChar: uni253B
Encoding: 9531 9531 466
Width: 576
VWidth: 0
Flags: W
LayerCount: 2
Fore
SplineSet
192 768 m 1,0,-1
 384 768 l 1,1,-1
 384 384 l 1,2,-1
 384 384 l 1,3,-1
 576 384 l 1,4,-1
 576 192 l 1,5,-1
 0 192 l 1,6,-1
 0 384 l 1,7,-1
 192 384 l 1,8,-1
 192 384 l 1,9,-1
 192 768 l 1,0,-1
EndSplineSet
EndChar

StartChar: SF050000
Encoding: 9532 9532 467
Width: 576
VWidth: 0
Flags: W
LayerCount: 2
Fore
SplineSet
192 768 m 1,0,-1
 288 768 l 1,1,-1
 288 384 l 1,2,-1
 288 384 l 1,3,-1
 576 384 l 1,4,-1
 576 288 l 1,5,-1
 288 288 l 1,6,-1
 288 288 l 1,7,-1
 288 -192 l 1,8,-1
 192 -192 l 1,9,-1
 192 288 l 1,10,-1
 192 288 l 1,11,-1
 0 288 l 1,12,-1
 0 384 l 1,13,-1
 192 384 l 1,14,-1
 192 384 l 1,15,-1
 192 768 l 1,0,-1
EndSplineSet
EndChar

StartChar: uni253D
Encoding: 9533 9533 468
Width: 576
VWidth: 0
Flags: W
LayerCount: 2
Fore
SplineSet
192 768 m 1,0,-1
 288 768 l 1,1,-1
 288 384 l 1,2,-1
 288 384 l 1,3,-1
 576 384 l 1,4,-1
 576 288 l 1,5,-1
 288 288 l 1,6,-1
 288 288 l 1,7,-1
 288 -192 l 1,8,-1
 192 -192 l 1,9,-1
 192 192 l 1,10,-1
 192 192 l 1,11,-1
 0 192 l 1,12,-1
 0 384 l 1,13,-1
 192 384 l 1,14,-1
 192 384 l 1,15,-1
 192 768 l 1,0,-1
EndSplineSet
EndChar

StartChar: uni253E
Encoding: 9534 9534 469
Width: 576
VWidth: 0
Flags: W
LayerCount: 2
Fore
SplineSet
192 768 m 1,0,-1
 288 768 l 1,1,-1
 288 384 l 1,2,-1
 288 384 l 1,3,-1
 576 384 l 1,4,-1
 576 192 l 1,5,-1
 288 192 l 1,6,-1
 288 192 l 1,7,-1
 288 -192 l 1,8,-1
 192 -192 l 1,9,-1
 192 288 l 1,10,-1
 192 288 l 1,11,-1
 0 288 l 1,12,-1
 0 384 l 1,13,-1
 192 384 l 1,14,-1
 192 384 l 1,15,-1
 192 768 l 1,0,-1
EndSplineSet
EndChar

StartChar: uni253F
Encoding: 9535 9535 470
Width: 576
VWidth: 0
Flags: W
LayerCount: 2
Fore
SplineSet
192 768 m 1,0,-1
 288 768 l 1,1,-1
 288 384 l 1,2,-1
 288 384 l 1,3,-1
 576 384 l 1,4,-1
 576 192 l 1,5,-1
 288 192 l 1,6,-1
 288 192 l 1,7,-1
 288 -192 l 1,8,-1
 192 -192 l 1,9,-1
 192 192 l 1,10,-1
 192 192 l 1,11,-1
 0 192 l 1,12,-1
 0 384 l 1,13,-1
 192 384 l 1,14,-1
 192 384 l 1,15,-1
 192 768 l 1,0,-1
EndSplineSet
EndChar

StartChar: uni2540
Encoding: 9536 9536 471
Width: 576
VWidth: 0
Flags: W
LayerCount: 2
Fore
SplineSet
192 768 m 1,0,-1
 384 768 l 1,1,-1
 384 384 l 1,2,-1
 384 384 l 1,3,-1
 576 384 l 1,4,-1
 576 288 l 1,5,-1
 288 288 l 1,6,-1
 288 288 l 1,7,-1
 288 -192 l 1,8,-1
 192 -192 l 1,9,-1
 192 288 l 1,10,-1
 192 288 l 1,11,-1
 0 288 l 1,12,-1
 0 384 l 1,13,-1
 192 384 l 1,14,-1
 192 384 l 1,15,-1
 192 768 l 1,0,-1
EndSplineSet
EndChar

StartChar: uni2541
Encoding: 9537 9537 472
Width: 576
VWidth: 0
Flags: W
LayerCount: 2
Fore
SplineSet
192 768 m 1,0,-1
 288 768 l 1,1,-1
 288 384 l 1,2,-1
 288 384 l 1,3,-1
 576 384 l 1,4,-1
 576 288 l 1,5,-1
 384 288 l 1,6,-1
 384 288 l 1,7,-1
 384 -192 l 1,8,-1
 192 -192 l 1,9,-1
 192 288 l 1,10,-1
 192 288 l 1,11,-1
 0 288 l 1,12,-1
 0 384 l 1,13,-1
 192 384 l 1,14,-1
 192 384 l 1,15,-1
 192 768 l 1,0,-1
EndSplineSet
EndChar

StartChar: uni2542
Encoding: 9538 9538 473
Width: 576
VWidth: 0
Flags: W
LayerCount: 2
Fore
SplineSet
192 768 m 1,0,-1
 384 768 l 1,1,-1
 384 384 l 1,2,-1
 384 384 l 1,3,-1
 576 384 l 1,4,-1
 576 288 l 1,5,-1
 384 288 l 1,6,-1
 384 288 l 1,7,-1
 384 -192 l 1,8,-1
 192 -192 l 1,9,-1
 192 288 l 1,10,-1
 192 288 l 1,11,-1
 0 288 l 1,12,-1
 0 384 l 1,13,-1
 192 384 l 1,14,-1
 192 384 l 1,15,-1
 192 768 l 1,0,-1
EndSplineSet
EndChar

StartChar: uni2543
Encoding: 9539 9539 474
Width: 576
VWidth: 0
Flags: W
LayerCount: 2
Fore
SplineSet
192 768 m 1,0,-1
 384 768 l 1,1,-1
 384 384 l 1,2,-1
 384 384 l 1,3,-1
 576 384 l 1,4,-1
 576 288 l 1,5,-1
 288 288 l 1,6,-1
 288 288 l 1,7,-1
 288 -192 l 1,8,-1
 192 -192 l 1,9,-1
 192 192 l 1,10,-1
 192 192 l 1,11,-1
 0 192 l 1,12,-1
 0 384 l 1,13,-1
 192 384 l 1,14,-1
 192 384 l 1,15,-1
 192 768 l 1,0,-1
EndSplineSet
EndChar

StartChar: uni2544
Encoding: 9540 9540 475
Width: 576
VWidth: 0
Flags: W
LayerCount: 2
Fore
SplineSet
192 768 m 1,0,-1
 384 768 l 1,1,-1
 384 384 l 1,2,-1
 384 384 l 1,3,-1
 576 384 l 1,4,-1
 576 192 l 1,5,-1
 288 192 l 1,6,-1
 288 192 l 1,7,-1
 288 -192 l 1,8,-1
 192 -192 l 1,9,-1
 192 288 l 1,10,-1
 192 288 l 1,11,-1
 0 288 l 1,12,-1
 0 384 l 1,13,-1
 192 384 l 1,14,-1
 192 384 l 1,15,-1
 192 768 l 1,0,-1
EndSplineSet
EndChar

StartChar: uni2545
Encoding: 9541 9541 476
Width: 576
VWidth: 0
Flags: W
LayerCount: 2
Fore
SplineSet
192 768 m 1,0,-1
 288 768 l 1,1,-1
 288 384 l 1,2,-1
 288 384 l 1,3,-1
 576 384 l 1,4,-1
 576 288 l 1,5,-1
 384 288 l 1,6,-1
 384 288 l 1,7,-1
 384 -192 l 1,8,-1
 192 -192 l 1,9,-1
 192 192 l 1,10,-1
 192 192 l 1,11,-1
 0 192 l 1,12,-1
 0 384 l 1,13,-1
 192 384 l 1,14,-1
 192 384 l 1,15,-1
 192 768 l 1,0,-1
EndSplineSet
EndChar

StartChar: uni2546
Encoding: 9542 9542 477
Width: 576
VWidth: 0
Flags: W
LayerCount: 2
Fore
SplineSet
192 768 m 1,0,-1
 288 768 l 1,1,-1
 288 384 l 1,2,-1
 288 384 l 1,3,-1
 576 384 l 1,4,-1
 576 192 l 1,5,-1
 384 192 l 1,6,-1
 384 192 l 1,7,-1
 384 -192 l 1,8,-1
 192 -192 l 1,9,-1
 192 288 l 1,10,-1
 192 288 l 1,11,-1
 0 288 l 1,12,-1
 0 384 l 1,13,-1
 192 384 l 1,14,-1
 192 384 l 1,15,-1
 192 768 l 1,0,-1
EndSplineSet
EndChar

StartChar: uni2547
Encoding: 9543 9543 478
Width: 576
VWidth: 0
Flags: W
LayerCount: 2
Fore
SplineSet
192 768 m 1,0,-1
 384 768 l 1,1,-1
 384 384 l 1,2,-1
 384 384 l 1,3,-1
 576 384 l 1,4,-1
 576 192 l 1,5,-1
 288 192 l 1,6,-1
 288 192 l 1,7,-1
 288 -192 l 1,8,-1
 192 -192 l 1,9,-1
 192 192 l 1,10,-1
 192 192 l 1,11,-1
 0 192 l 1,12,-1
 0 384 l 1,13,-1
 192 384 l 1,14,-1
 192 384 l 1,15,-1
 192 768 l 1,0,-1
EndSplineSet
EndChar

StartChar: uni2548
Encoding: 9544 9544 479
Width: 576
VWidth: 0
Flags: W
LayerCount: 2
Fore
SplineSet
192 768 m 1,0,-1
 288 768 l 1,1,-1
 288 384 l 1,2,-1
 288 384 l 1,3,-1
 576 384 l 1,4,-1
 576 192 l 1,5,-1
 384 192 l 1,6,-1
 384 192 l 1,7,-1
 384 -192 l 1,8,-1
 192 -192 l 1,9,-1
 192 192 l 1,10,-1
 192 192 l 1,11,-1
 0 192 l 1,12,-1
 0 384 l 1,13,-1
 192 384 l 1,14,-1
 192 384 l 1,15,-1
 192 768 l 1,0,-1
EndSplineSet
EndChar

StartChar: uni2549
Encoding: 9545 9545 480
Width: 576
VWidth: 0
Flags: W
LayerCount: 2
Fore
SplineSet
192 768 m 1,0,-1
 384 768 l 1,1,-1
 384 384 l 1,2,-1
 384 384 l 1,3,-1
 576 384 l 1,4,-1
 576 288 l 1,5,-1
 384 288 l 1,6,-1
 384 288 l 1,7,-1
 384 -192 l 1,8,-1
 192 -192 l 1,9,-1
 192 192 l 1,10,-1
 192 192 l 1,11,-1
 0 192 l 1,12,-1
 0 384 l 1,13,-1
 192 384 l 1,14,-1
 192 384 l 1,15,-1
 192 768 l 1,0,-1
EndSplineSet
EndChar

StartChar: uni254A
Encoding: 9546 9546 481
Width: 576
VWidth: 0
Flags: W
LayerCount: 2
Fore
SplineSet
192 768 m 1,0,-1
 384 768 l 1,1,-1
 384 384 l 1,2,-1
 384 384 l 1,3,-1
 576 384 l 1,4,-1
 576 192 l 1,5,-1
 384 192 l 1,6,-1
 384 192 l 1,7,-1
 384 -192 l 1,8,-1
 192 -192 l 1,9,-1
 192 288 l 1,10,-1
 192 288 l 1,11,-1
 0 288 l 1,12,-1
 0 384 l 1,13,-1
 192 384 l 1,14,-1
 192 384 l 1,15,-1
 192 768 l 1,0,-1
EndSplineSet
EndChar

StartChar: uni254B
Encoding: 9547 9547 482
Width: 576
VWidth: 0
Flags: W
LayerCount: 2
Fore
SplineSet
192 768 m 1,0,-1
 384 768 l 1,1,-1
 384 384 l 1,2,-1
 384 384 l 1,3,-1
 576 384 l 1,4,-1
 576 192 l 1,5,-1
 384 192 l 1,6,-1
 384 192 l 1,7,-1
 384 -192 l 1,8,-1
 192 -192 l 1,9,-1
 192 192 l 1,10,-1
 192 192 l 1,11,-1
 0 192 l 1,12,-1
 0 384 l 1,13,-1
 192 384 l 1,14,-1
 192 384 l 1,15,-1
 192 768 l 1,0,-1
EndSplineSet
EndChar

StartChar: uni254C
Encoding: 9548 9548 483
Width: 576
VWidth: 0
Flags: W
LayerCount: 2
Fore
SplineSet
384 384 m 1,0,-1
 576 384 l 1,1,-1
 576 288 l 1,2,-1
 384 288 l 1,3,-1
 384 384 l 1,0,-1
0 384 m 1,4,-1
 192 384 l 1,5,-1
 192 288 l 1,6,-1
 0 288 l 1,7,-1
 0 384 l 1,4,-1
EndSplineSet
EndChar

StartChar: uni254D
Encoding: 9549 9549 484
Width: 576
VWidth: 0
Flags: W
LayerCount: 2
Fore
SplineSet
384 384 m 1,0,-1
 576 384 l 1,1,-1
 576 192 l 1,2,-1
 384 192 l 1,3,-1
 384 384 l 1,0,-1
0 384 m 1,4,-1
 192 384 l 1,5,-1
 192 192 l 1,6,-1
 0 192 l 1,7,-1
 0 384 l 1,4,-1
EndSplineSet
EndChar

StartChar: uni254E
Encoding: 9550 9550 485
Width: 576
VWidth: 0
Flags: W
LayerCount: 2
Fore
SplineSet
192 192 m 1,0,-1
 288 192 l 1,1,-1
 288 -192 l 1,2,-1
 192 -192 l 1,3,-1
 192 192 l 1,0,-1
192 768 m 1,4,-1
 288 768 l 1,5,-1
 288 384 l 1,6,-1
 192 384 l 1,7,-1
 192 768 l 1,4,-1
EndSplineSet
EndChar

StartChar: uni254F
Encoding: 9551 9551 486
Width: 576
VWidth: 0
Flags: W
LayerCount: 2
Fore
SplineSet
192 192 m 1,0,-1
 384 192 l 1,1,-1
 384 -192 l 1,2,-1
 192 -192 l 1,3,-1
 192 192 l 1,0,-1
192 768 m 1,4,-1
 384 768 l 1,5,-1
 384 384 l 1,6,-1
 192 384 l 1,7,-1
 192 768 l 1,4,-1
EndSplineSet
EndChar

StartChar: SF430000
Encoding: 9552 9552 487
Width: 576
VWidth: 0
Flags: W
LayerCount: 2
Fore
SplineSet
0 288 m 1,0,-1
 576 288 l 1,1,-1
 576 192 l 1,2,-1
 0 192 l 1,3,-1
 0 288 l 1,0,-1
0 480 m 1,4,-1
 576 480 l 1,5,-1
 576 384 l 1,6,-1
 0 384 l 1,7,-1
 0 480 l 1,4,-1
EndSplineSet
EndChar

StartChar: SF240000
Encoding: 9553 9553 488
Width: 576
VWidth: 0
Flags: W
LayerCount: 2
Fore
SplineSet
288 768 m 1,0,-1
 384 768 l 1,1,-1
 384 -192 l 1,2,-1
 288 -192 l 1,3,-1
 288 768 l 1,0,-1
96 768 m 1,4,-1
 192 768 l 1,5,-1
 192 -192 l 1,6,-1
 96 -192 l 1,7,-1
 96 768 l 1,4,-1
EndSplineSet
EndChar

StartChar: SF510000
Encoding: 9554 9554 489
Width: 576
VWidth: 0
Flags: W
LayerCount: 2
Fore
SplineSet
192 480 m 1,0,-1
 576 480 l 1,1,-1
 576 384 l 1,2,-1
 288 384 l 1,3,-1
 288 384 l 1,4,-1
 288 288 l 1,5,-1
 288 288 l 1,6,-1
 576 288 l 1,7,-1
 576 192 l 1,8,-1
 288 192 l 1,9,-1
 288 192 l 1,10,-1
 288 -192 l 1,11,-1
 192 -192 l 1,12,-1
 192 480 l 1,0,-1
EndSplineSet
EndChar

StartChar: SF520000
Encoding: 9555 9555 490
Width: 576
VWidth: 0
Flags: W
LayerCount: 2
Fore
SplineSet
96 384 m 1,0,-1
 576 384 l 1,1,-1
 576 288 l 1,2,-1
 384 288 l 1,3,-1
 384 288 l 1,4,-1
 384 -192 l 1,5,-1
 288 -192 l 1,6,-1
 288 288 l 1,7,-1
 288 288 l 1,8,-1
 192 288 l 1,9,-1
 192 288 l 1,10,-1
 192 -192 l 1,11,-1
 96 -192 l 1,12,-1
 96 384 l 1,0,-1
EndSplineSet
EndChar

StartChar: SF390000
Encoding: 9556 9556 491
Width: 576
VWidth: 0
Flags: W
LayerCount: 2
Fore
SplineSet
288 288 m 1,0,-1
 576 288 l 1,1,-1
 576 192 l 1,2,-1
 384 192 l 1,3,-1
 384 192 l 1,4,-1
 384 -192 l 1,5,-1
 288 -192 l 1,6,-1
 288 288 l 1,0,-1
96 480 m 1,7,-1
 576 480 l 1,8,-1
 576 384 l 1,9,-1
 192 384 l 1,10,-1
 192 384 l 1,11,-1
 192 -192 l 1,12,-1
 96 -192 l 1,13,-1
 96 480 l 1,7,-1
EndSplineSet
EndChar

StartChar: SF220000
Encoding: 9557 9557 492
Width: 576
VWidth: 0
Flags: W
LayerCount: 2
Fore
SplineSet
0 480 m 1,0,-1
 288 480 l 1,1,-1
 288 -192 l 1,2,-1
 192 -192 l 1,3,-1
 192 192 l 1,4,-1
 192 192 l 1,5,-1
 0 192 l 1,6,-1
 0 288 l 1,7,-1
 192 288 l 1,8,-1
 192 288 l 1,9,-1
 192 384 l 1,10,-1
 192 384 l 1,11,-1
 0 384 l 1,12,-1
 0 480 l 1,0,-1
EndSplineSet
EndChar

StartChar: SF210000
Encoding: 9558 9558 493
Width: 576
VWidth: 0
Flags: W
LayerCount: 2
Fore
SplineSet
0 384 m 1,0,-1
 384 384 l 1,1,-1
 384 -192 l 1,2,-1
 288 -192 l 1,3,-1
 288 288 l 1,4,-1
 288 288 l 1,5,-1
 192 288 l 1,6,-1
 192 288 l 1,7,-1
 192 -192 l 1,8,-1
 96 -192 l 1,9,-1
 96 288 l 1,10,-1
 96 288 l 1,11,-1
 0 288 l 1,12,-1
 0 384 l 1,0,-1
EndSplineSet
EndChar

StartChar: SF250000
Encoding: 9559 9559 494
Width: 576
VWidth: 0
Flags: W
LayerCount: 2
Fore
SplineSet
0 288 m 1,0,-1
 192 288 l 1,1,-1
 192 -192 l 1,2,-1
 96 -192 l 1,3,-1
 96 192 l 1,4,-1
 96 192 l 1,5,-1
 0 192 l 1,6,-1
 0 288 l 1,0,-1
0 480 m 1,7,-1
 384 480 l 1,8,-1
 384 -192 l 1,9,-1
 288 -192 l 1,10,-1
 288 384 l 1,11,-1
 288 384 l 1,12,-1
 0 384 l 1,13,-1
 0 480 l 1,7,-1
EndSplineSet
EndChar

StartChar: SF500000
Encoding: 9560 9560 495
Width: 576
VWidth: 0
Flags: W
LayerCount: 2
Fore
SplineSet
192 768 m 1,0,-1
 288 768 l 1,1,-1
 288 480 l 1,2,-1
 288 480 l 1,3,-1
 576 480 l 1,4,-1
 576 384 l 1,5,-1
 288 384 l 1,6,-1
 288 384 l 1,7,-1
 288 288 l 1,8,-1
 288 288 l 1,9,-1
 576 288 l 1,10,-1
 576 192 l 1,11,-1
 192 192 l 1,12,-1
 192 768 l 1,0,-1
EndSplineSet
EndChar

StartChar: SF490000
Encoding: 9561 9561 496
Width: 576
VWidth: 0
Flags: W
LayerCount: 2
Fore
SplineSet
96 768 m 1,0,-1
 192 768 l 1,1,-1
 192 384 l 1,2,-1
 192 384 l 1,3,-1
 288 384 l 1,4,-1
 288 384 l 1,5,-1
 288 768 l 1,6,-1
 384 768 l 1,7,-1
 384 384 l 1,8,-1
 384 384 l 1,9,-1
 576 384 l 1,10,-1
 576 288 l 1,11,-1
 96 288 l 1,12,-1
 96 768 l 1,0,-1
EndSplineSet
EndChar

StartChar: SF380000
Encoding: 9562 9562 497
Width: 576
VWidth: 0
Flags: W
LayerCount: 2
Fore
SplineSet
288 768 m 1,0,-1
 384 768 l 1,1,-1
 384 480 l 1,2,-1
 384 480 l 1,3,-1
 576 480 l 1,4,-1
 576 384 l 1,5,-1
 288 384 l 1,6,-1
 288 768 l 1,0,-1
96 768 m 1,7,-1
 192 768 l 1,8,-1
 192 288 l 1,9,-1
 192 288 l 1,10,-1
 576 288 l 1,11,-1
 576 192 l 1,12,-1
 96 192 l 1,13,-1
 96 768 l 1,7,-1
EndSplineSet
EndChar

StartChar: SF280000
Encoding: 9563 9563 498
Width: 576
VWidth: 0
Flags: W
LayerCount: 2
Fore
SplineSet
192 768 m 1,0,-1
 288 768 l 1,1,-1
 288 192 l 1,2,-1
 0 192 l 1,3,-1
 0 288 l 1,4,-1
 192 288 l 1,5,-1
 192 288 l 1,6,-1
 192 384 l 1,7,-1
 192 384 l 1,8,-1
 0 384 l 1,9,-1
 0 480 l 1,10,-1
 192 480 l 1,11,-1
 192 480 l 1,12,-1
 192 768 l 1,0,-1
EndSplineSet
EndChar

StartChar: SF270000
Encoding: 9564 9564 499
Width: 576
VWidth: 0
Flags: W
LayerCount: 2
Fore
SplineSet
96 768 m 1,0,-1
 192 768 l 1,1,-1
 192 384 l 1,2,-1
 192 384 l 1,3,-1
 288 384 l 1,4,-1
 288 384 l 1,5,-1
 288 768 l 1,6,-1
 384 768 l 1,7,-1
 384 288 l 1,8,-1
 0 288 l 1,9,-1
 0 384 l 1,10,-1
 96 384 l 1,11,-1
 96 384 l 1,12,-1
 96 768 l 1,0,-1
EndSplineSet
EndChar

StartChar: SF260000
Encoding: 9565 9565 500
Width: 576
VWidth: 0
Flags: W
LayerCount: 2
Fore
SplineSet
288 768 m 1,0,-1
 384 768 l 1,1,-1
 384 192 l 1,2,-1
 0 192 l 1,3,-1
 0 288 l 1,4,-1
 288 288 l 1,5,-1
 288 288 l 1,6,-1
 288 768 l 1,0,-1
96 768 m 1,7,-1
 192 768 l 1,8,-1
 192 384 l 1,9,-1
 0 384 l 1,10,-1
 0 480 l 1,11,-1
 96 480 l 1,12,-1
 96 480 l 1,13,-1
 96 768 l 1,7,-1
EndSplineSet
EndChar

StartChar: SF360000
Encoding: 9566 9566 501
Width: 576
VWidth: 0
Flags: W
LayerCount: 2
Fore
SplineSet
192 768 m 1,0,-1
 288 768 l 1,1,-1
 288 480 l 1,2,-1
 288 480 l 1,3,-1
 576 480 l 1,4,-1
 576 384 l 1,5,-1
 288 384 l 1,6,-1
 288 384 l 1,7,-1
 288 288 l 1,8,-1
 288 288 l 1,9,-1
 576 288 l 1,10,-1
 576 192 l 1,11,-1
 288 192 l 1,12,-1
 288 192 l 1,13,-1
 288 -192 l 1,14,-1
 192 -192 l 1,15,-1
 192 768 l 1,0,-1
EndSplineSet
EndChar

StartChar: SF370000
Encoding: 9567 9567 502
Width: 576
VWidth: 0
Flags: W
LayerCount: 2
Fore
SplineSet
288 768 m 1,0,-1
 384 768 l 1,1,-1
 384 384 l 1,2,-1
 384 384 l 1,3,-1
 576 384 l 1,4,-1
 576 288 l 1,5,-1
 384 288 l 1,6,-1
 384 288 l 1,7,-1
 384 -192 l 1,8,-1
 288 -192 l 1,9,-1
 288 768 l 1,0,-1
96 768 m 1,10,-1
 192 768 l 1,11,-1
 192 -192 l 1,12,-1
 96 -192 l 1,13,-1
 96 768 l 1,10,-1
EndSplineSet
EndChar

StartChar: SF420000
Encoding: 9568 9568 503
Width: 576
VWidth: 0
Flags: W
LayerCount: 2
Fore
SplineSet
288 288 m 1,0,-1
 576 288 l 1,1,-1
 576 192 l 1,2,-1
 384 192 l 1,3,-1
 384 192 l 1,4,-1
 384 -192 l 1,5,-1
 288 -192 l 1,6,-1
 288 288 l 1,0,-1
288 768 m 1,7,-1
 384 768 l 1,8,-1
 384 480 l 1,9,-1
 384 480 l 1,10,-1
 576 480 l 1,11,-1
 576 384 l 1,12,-1
 288 384 l 1,13,-1
 288 768 l 1,7,-1
96 768 m 1,14,-1
 192 768 l 1,15,-1
 192 -192 l 1,16,-1
 96 -192 l 1,17,-1
 96 768 l 1,14,-1
EndSplineSet
EndChar

StartChar: SF190000
Encoding: 9569 9569 504
Width: 576
VWidth: 0
Flags: W
LayerCount: 2
Fore
SplineSet
0 480 m 1,0,-1
 192 480 l 1,1,-1
 192 480 l 1,2,-1
 192 768 l 1,3,-1
 288 768 l 1,4,-1
 288 -192 l 1,5,-1
 192 -192 l 1,6,-1
 192 192 l 1,7,-1
 192 192 l 1,8,-1
 0 192 l 1,9,-1
 0 288 l 1,10,-1
 192 288 l 1,11,-1
 192 288 l 1,12,-1
 192 384 l 1,13,-1
 192 384 l 1,14,-1
 0 384 l 1,15,-1
 0 480 l 1,0,-1
EndSplineSet
EndChar

StartChar: SF200000
Encoding: 9570 9570 505
Width: 576
VWidth: 0
Flags: W
LayerCount: 2
Fore
SplineSet
288 768 m 1,0,-1
 384 768 l 1,1,-1
 384 -192 l 1,2,-1
 288 -192 l 1,3,-1
 288 768 l 1,0,-1
96 768 m 1,4,-1
 192 768 l 1,5,-1
 192 -192 l 1,6,-1
 96 -192 l 1,7,-1
 96 288 l 1,8,-1
 96 288 l 1,9,-1
 0 288 l 1,10,-1
 0 384 l 1,11,-1
 96 384 l 1,12,-1
 96 384 l 1,13,-1
 96 768 l 1,4,-1
EndSplineSet
EndChar

StartChar: SF230000
Encoding: 9571 9571 506
Width: 576
VWidth: 0
Flags: W
LayerCount: 2
Fore
SplineSet
288 768 m 1,0,-1
 384 768 l 1,1,-1
 384 -192 l 1,2,-1
 288 -192 l 1,3,-1
 288 768 l 1,0,-1
0 288 m 1,4,-1
 192 288 l 1,5,-1
 192 -192 l 1,6,-1
 96 -192 l 1,7,-1
 96 192 l 1,8,-1
 96 192 l 1,9,-1
 0 192 l 1,10,-1
 0 288 l 1,4,-1
96 768 m 1,11,-1
 192 768 l 1,12,-1
 192 384 l 1,13,-1
 0 384 l 1,14,-1
 0 480 l 1,15,-1
 96 480 l 1,16,-1
 96 480 l 1,17,-1
 96 768 l 1,11,-1
EndSplineSet
EndChar

StartChar: SF470000
Encoding: 9572 9572 507
Width: 576
VWidth: 0
Flags: W
LayerCount: 2
Fore
SplineSet
0 288 m 1,0,-1
 576 288 l 1,1,-1
 576 192 l 1,2,-1
 288 192 l 1,3,-1
 288 192 l 1,4,-1
 288 -192 l 1,5,-1
 192 -192 l 1,6,-1
 192 192 l 1,7,-1
 192 192 l 1,8,-1
 0 192 l 1,9,-1
 0 288 l 1,0,-1
0 480 m 1,10,-1
 576 480 l 1,11,-1
 576 384 l 1,12,-1
 0 384 l 1,13,-1
 0 480 l 1,10,-1
EndSplineSet
EndChar

StartChar: SF480000
Encoding: 9573 9573 508
Width: 576
VWidth: 0
Flags: W
LayerCount: 2
Fore
SplineSet
0 384 m 1,0,-1
 576 384 l 1,1,-1
 576 288 l 1,2,-1
 384 288 l 1,3,-1
 384 288 l 1,4,-1
 384 -192 l 1,5,-1
 288 -192 l 1,6,-1
 288 288 l 1,7,-1
 288 288 l 1,8,-1
 192 288 l 1,9,-1
 192 288 l 1,10,-1
 192 -192 l 1,11,-1
 96 -192 l 1,12,-1
 96 288 l 1,13,-1
 96 288 l 1,14,-1
 0 288 l 1,15,-1
 0 384 l 1,0,-1
EndSplineSet
EndChar

StartChar: SF410000
Encoding: 9574 9574 509
Width: 576
VWidth: 0
Flags: W
LayerCount: 2
Fore
SplineSet
288 288 m 1,0,-1
 576 288 l 1,1,-1
 576 192 l 1,2,-1
 384 192 l 1,3,-1
 384 192 l 1,4,-1
 384 -192 l 1,5,-1
 288 -192 l 1,6,-1
 288 288 l 1,0,-1
0 288 m 1,7,-1
 192 288 l 1,8,-1
 192 -192 l 1,9,-1
 96 -192 l 1,10,-1
 96 192 l 1,11,-1
 96 192 l 1,12,-1
 0 192 l 1,13,-1
 0 288 l 1,7,-1
0 480 m 1,14,-1
 576 480 l 1,15,-1
 576 384 l 1,16,-1
 0 384 l 1,17,-1
 0 480 l 1,14,-1
EndSplineSet
EndChar

StartChar: SF450000
Encoding: 9575 9575 510
Width: 576
VWidth: 0
Flags: W
LayerCount: 2
Fore
SplineSet
0 288 m 1,0,-1
 576 288 l 1,1,-1
 576 192 l 1,2,-1
 0 192 l 1,3,-1
 0 288 l 1,0,-1
0 480 m 1,4,-1
 192 480 l 1,5,-1
 192 480 l 1,6,-1
 192 768 l 1,7,-1
 288 768 l 1,8,-1
 288 480 l 1,9,-1
 288 480 l 1,10,-1
 576 480 l 1,11,-1
 576 384 l 1,12,-1
 0 384 l 1,13,-1
 0 480 l 1,4,-1
EndSplineSet
EndChar

StartChar: SF460000
Encoding: 9576 9576 511
Width: 576
VWidth: 0
Flags: W
LayerCount: 2
Fore
SplineSet
0 384 m 1,0,-1
 96 384 l 1,1,-1
 96 384 l 1,2,-1
 96 768 l 1,3,-1
 192 768 l 1,4,-1
 192 384 l 1,5,-1
 192 384 l 1,6,-1
 288 384 l 1,7,-1
 288 384 l 1,8,-1
 288 768 l 1,9,-1
 384 768 l 1,10,-1
 384 384 l 1,11,-1
 384 384 l 1,12,-1
 576 384 l 1,13,-1
 576 288 l 1,14,-1
 0 288 l 1,15,-1
 0 384 l 1,0,-1
EndSplineSet
EndChar

StartChar: SF400000
Encoding: 9577 9577 512
Width: 576
VWidth: 0
Flags: W
LayerCount: 2
Fore
SplineSet
0 288 m 1,0,-1
 576 288 l 1,1,-1
 576 192 l 1,2,-1
 0 192 l 1,3,-1
 0 288 l 1,0,-1
288 768 m 1,4,-1
 384 768 l 1,5,-1
 384 480 l 1,6,-1
 384 480 l 1,7,-1
 576 480 l 1,8,-1
 576 384 l 1,9,-1
 288 384 l 1,10,-1
 288 768 l 1,4,-1
0 480 m 1,11,-1
 96 480 l 1,12,-1
 96 480 l 1,13,-1
 96 768 l 1,14,-1
 192 768 l 1,15,-1
 192 384 l 1,16,-1
 0 384 l 1,17,-1
 0 480 l 1,11,-1
EndSplineSet
EndChar

StartChar: SF540000
Encoding: 9578 9578 513
Width: 576
VWidth: 0
Flags: W
LayerCount: 2
Fore
SplineSet
0 480 m 1,0,-1
 192 480 l 1,1,-1
 192 480 l 1,2,-1
 192 768 l 1,3,-1
 288 768 l 1,4,-1
 288 480 l 1,5,-1
 288 480 l 1,6,-1
 576 480 l 1,7,-1
 576 384 l 1,8,-1
 288 384 l 1,9,-1
 288 384 l 1,10,-1
 288 288 l 1,11,-1
 288 288 l 1,12,-1
 576 288 l 1,13,-1
 576 192 l 1,14,-1
 288 192 l 1,15,-1
 288 192 l 1,16,-1
 288 -192 l 1,17,-1
 192 -192 l 1,18,-1
 192 192 l 1,19,-1
 192 192 l 1,20,-1
 0 192 l 1,21,-1
 0 288 l 1,22,-1
 192 288 l 1,23,-1
 192 288 l 1,24,-1
 192 384 l 1,25,-1
 192 384 l 1,26,-1
 0 384 l 1,27,-1
 0 480 l 1,0,-1
EndSplineSet
EndChar

StartChar: SF530000
Encoding: 9579 9579 514
Width: 576
VWidth: 0
Flags: W
LayerCount: 2
Fore
SplineSet
0 384 m 1,0,-1
 96 384 l 1,1,-1
 96 384 l 1,2,-1
 96 768 l 1,3,-1
 192 768 l 1,4,-1
 192 384 l 1,5,-1
 192 384 l 1,6,-1
 288 384 l 1,7,-1
 288 384 l 1,8,-1
 288 768 l 1,9,-1
 384 768 l 1,10,-1
 384 384 l 1,11,-1
 384 384 l 1,12,-1
 576 384 l 1,13,-1
 576 288 l 1,14,-1
 384 288 l 1,15,-1
 384 288 l 1,16,-1
 384 -192 l 1,17,-1
 288 -192 l 1,18,-1
 288 288 l 1,19,-1
 288 288 l 1,20,-1
 192 288 l 1,21,-1
 192 288 l 1,22,-1
 192 -192 l 1,23,-1
 96 -192 l 1,24,-1
 96 288 l 1,25,-1
 96 288 l 1,26,-1
 0 288 l 1,27,-1
 0 384 l 1,0,-1
EndSplineSet
EndChar

StartChar: SF440000
Encoding: 9580 9580 515
Width: 576
VWidth: 0
Flags: W
LayerCount: 2
Fore
SplineSet
288 288 m 1,0,-1
 576 288 l 1,1,-1
 576 192 l 1,2,-1
 384 192 l 1,3,-1
 384 192 l 1,4,-1
 384 -192 l 1,5,-1
 288 -192 l 1,6,-1
 288 288 l 1,0,-1
0 288 m 1,7,-1
 192 288 l 1,8,-1
 192 -192 l 1,9,-1
 96 -192 l 1,10,-1
 96 192 l 1,11,-1
 96 192 l 1,12,-1
 0 192 l 1,13,-1
 0 288 l 1,7,-1
288 768 m 1,14,-1
 384 768 l 1,15,-1
 384 480 l 1,16,-1
 384 480 l 1,17,-1
 576 480 l 1,18,-1
 576 384 l 1,19,-1
 288 384 l 1,20,-1
 288 768 l 1,14,-1
0 480 m 1,21,-1
 96 480 l 1,22,-1
 96 480 l 1,23,-1
 96 768 l 1,24,-1
 192 768 l 1,25,-1
 192 384 l 1,26,-1
 0 384 l 1,27,-1
 0 480 l 1,21,-1
EndSplineSet
EndChar

StartChar: uni256D
Encoding: 9581 9581 516
Width: 576
VWidth: 0
Flags: W
LayerCount: 2
Fore
SplineSet
384 288 m 1,0,-1
 384 384 l 1,1,-1
 576 384 l 1,2,-1
 576 288 l 1,3,-1
 384 288 l 1,0,-1
384 288 m 1,4,-1
 384 192 l 1,5,-1
 288 192 l 1,6,-1
 288 288 l 1,7,-1
 384 288 l 1,4,-1
288 192 m 1,8,-1
 288 -192 l 1,9,-1
 192 -192 l 1,10,-1
 192 192 l 1,11,-1
 288 192 l 1,8,-1
EndSplineSet
EndChar

StartChar: uni256E
Encoding: 9582 9582 517
Width: 576
VWidth: 0
Flags: W
LayerCount: 2
Fore
SplineSet
192 192 m 1,0,-1
 288 192 l 1,1,-1
 288 -192 l 1,2,-1
 192 -192 l 1,3,-1
 192 192 l 1,0,-1
192 192 m 1,4,-1
 96 192 l 1,5,-1
 96 288 l 1,6,-1
 192 288 l 1,7,-1
 192 192 l 1,4,-1
96 288 m 1,8,-1
 0 288 l 1,9,-1
 0 384 l 1,10,-1
 96 384 l 1,11,-1
 96 288 l 1,8,-1
EndSplineSet
EndChar

StartChar: uni256F
Encoding: 9583 9583 518
Width: 576
VWidth: 0
Flags: W
LayerCount: 2
Fore
SplineSet
192 480 m 1,0,-1
 192 768 l 1,1,-1
 288 768 l 1,2,-1
 288 480 l 1,3,-1
 192 480 l 1,0,-1
192 480 m 1,4,-1
 192 384 l 1,5,-1
 96 384 l 1,6,-1
 96 480 l 1,7,-1
 192 480 l 1,4,-1
96 384 m 1,8,-1
 96 288 l 1,9,-1
 0 288 l 1,10,-1
 0 384 l 1,11,-1
 96 384 l 1,8,-1
EndSplineSet
EndChar

StartChar: uni2570
Encoding: 9584 9584 519
Width: 576
VWidth: 0
Flags: W
LayerCount: 2
Fore
SplineSet
384 384 m 1,0,-1
 576 384 l 1,1,-1
 576 288 l 1,2,-1
 384 288 l 1,3,-1
 384 384 l 1,0,-1
384 384 m 1,4,-1
 288 384 l 1,5,-1
 288 480 l 1,6,-1
 384 480 l 1,7,-1
 384 384 l 1,4,-1
288 480 m 1,8,-1
 192 480 l 1,9,-1
 192 768 l 1,10,-1
 288 768 l 1,11,-1
 288 480 l 1,8,-1
EndSplineSet
EndChar

StartChar: uni2571
Encoding: 9585 9585 520
Width: 576
VWidth: 0
Flags: W
LayerCount: 2
Fore
SplineSet
96 0 m 1,0,-1
 96 -192 l 1,1,-1
 0 -192 l 1,2,-1
 0 0 l 1,3,-1
 96 0 l 1,0,-1
96 0 m 1,4,-1
 96 192 l 1,5,-1
 192 192 l 1,6,-1
 192 0 l 1,7,-1
 96 0 l 1,4,-1
192 192 m 1,8,-1
 192 288 l 1,9,-1
 288 288 l 1,10,-1
 288 192 l 1,11,-1
 192 192 l 1,8,-1
288 288 m 1,12,-1
 288 384 l 1,13,-1
 384 384 l 1,14,-1
 384 288 l 1,15,-1
 288 288 l 1,12,-1
384 384 m 1,16,-1
 384 576 l 1,17,-1
 480 576 l 1,18,-1
 480 384 l 1,19,-1
 384 384 l 1,16,-1
480 576 m 1,20,-1
 480 768 l 1,21,-1
 576 768 l 1,22,-1
 576 576 l 1,23,-1
 480 576 l 1,20,-1
EndSplineSet
EndChar

StartChar: uni2572
Encoding: 9586 9586 521
Width: 576
VWidth: 0
Flags: W
LayerCount: 2
Fore
SplineSet
480 0 m 1,0,-1
 576 0 l 1,1,-1
 576 -192 l 1,2,-1
 480 -192 l 1,3,-1
 480 0 l 1,0,-1
480 0 m 1,4,-1
 384 0 l 1,5,-1
 384 192 l 1,6,-1
 480 192 l 1,7,-1
 480 0 l 1,4,-1
384 192 m 1,8,-1
 288 192 l 1,9,-1
 288 288 l 1,10,-1
 384 288 l 1,11,-1
 384 192 l 1,8,-1
288 288 m 1,12,-1
 192 288 l 1,13,-1
 192 384 l 1,14,-1
 288 384 l 1,15,-1
 288 288 l 1,12,-1
192 384 m 1,16,-1
 96 384 l 1,17,-1
 96 576 l 1,18,-1
 192 576 l 1,19,-1
 192 384 l 1,16,-1
96 576 m 1,20,-1
 0 576 l 1,21,-1
 0 768 l 1,22,-1
 96 768 l 1,23,-1
 96 576 l 1,20,-1
EndSplineSet
EndChar

StartChar: uni2573
Encoding: 9587 9587 522
Width: 576
VWidth: 0
Flags: W
LayerCount: 2
Fore
SplineSet
193 192 m 1,0,-1
 192 384 l 1,1,-1
 383 384 l 1,2,-1
 384 192 l 1,3,-1
 193 192 l 1,0,-1
480 576 m 1,4,-1
 480 768 l 1,5,-1
 576 768 l 1,6,-1
 576 576 l 1,7,-1
 480 576 l 1,4,-1
480 576 m 1,8,-1
 480 384 l 1,9,-1
 384 384 l 1,10,-1
 384 576 l 1,11,-1
 480 576 l 1,8,-1
480 0 m 1,12,-1
 576 0 l 1,13,-1
 576 -192 l 1,14,-1
 480 -192 l 1,15,-1
 480 0 l 1,12,-1
480 0 m 1,16,-1
 384 0 l 1,17,-1
 384 192 l 1,18,-1
 480 192 l 1,19,-1
 480 0 l 1,16,-1
96 0 m 1,20,-1
 96 -192 l 1,21,-1
 0 -192 l 1,22,-1
 0 0 l 1,23,-1
 96 0 l 1,20,-1
96 0 m 1,24,-1
 96 192 l 1,25,-1
 192 192 l 1,26,-1
 192 0 l 1,27,-1
 96 0 l 1,24,-1
192 384 m 1,28,-1
 96 384 l 1,29,-1
 96 576 l 1,30,-1
 192 576 l 1,31,-1
 192 384 l 1,28,-1
96 576 m 1,32,-1
 0 576 l 1,33,-1
 0 768 l 1,34,-1
 96 768 l 1,35,-1
 96 576 l 1,32,-1
EndSplineSet
EndChar

StartChar: uni2574
Encoding: 9588 9588 523
Width: 576
VWidth: 0
Flags: W
LayerCount: 2
Fore
SplineSet
0 384 m 1,0,-1
 288 384 l 1,1,-1
 288 288 l 1,2,-1
 0 288 l 1,3,-1
 0 384 l 1,0,-1
EndSplineSet
EndChar

StartChar: uni2575
Encoding: 9589 9589 524
Width: 576
VWidth: 0
Flags: W
LayerCount: 2
Fore
SplineSet
192 768 m 1,0,-1
 288 768 l 1,1,-1
 288 288 l 1,2,-1
 192 288 l 1,3,-1
 192 768 l 1,0,-1
EndSplineSet
EndChar

StartChar: uni2576
Encoding: 9590 9590 525
Width: 576
VWidth: 0
Flags: W
LayerCount: 2
Fore
SplineSet
192 384 m 1,0,-1
 576 384 l 1,1,-1
 576 288 l 1,2,-1
 192 288 l 1,3,-1
 192 384 l 1,0,-1
EndSplineSet
EndChar

StartChar: uni2577
Encoding: 9591 9591 526
Width: 576
VWidth: 0
Flags: W
LayerCount: 2
Fore
SplineSet
192 384 m 1,0,-1
 288 384 l 1,1,-1
 288 -192 l 1,2,-1
 192 -192 l 1,3,-1
 192 384 l 1,0,-1
EndSplineSet
EndChar

StartChar: uni2578
Encoding: 9592 9592 527
Width: 576
VWidth: 0
Flags: W
LayerCount: 2
Fore
SplineSet
0 384 m 1,0,-1
 288 384 l 1,1,-1
 288 192 l 1,2,-1
 0 192 l 1,3,-1
 0 384 l 1,0,-1
EndSplineSet
EndChar

StartChar: uni2579
Encoding: 9593 9593 528
Width: 576
VWidth: 0
Flags: W
LayerCount: 2
Fore
SplineSet
192 768 m 1,0,-1
 384 768 l 1,1,-1
 384 288 l 1,2,-1
 192 288 l 1,3,-1
 192 768 l 1,0,-1
EndSplineSet
EndChar

StartChar: uni257A
Encoding: 9594 9594 529
Width: 576
VWidth: 0
Flags: W
LayerCount: 2
Fore
SplineSet
192 384 m 1,0,-1
 576 384 l 1,1,-1
 576 192 l 1,2,-1
 192 192 l 1,3,-1
 192 384 l 1,0,-1
EndSplineSet
EndChar

StartChar: uni257B
Encoding: 9595 9595 530
Width: 576
VWidth: 0
Flags: W
LayerCount: 2
Fore
SplineSet
192 384 m 1,0,-1
 384 384 l 1,1,-1
 384 -192 l 1,2,-1
 192 -192 l 1,3,-1
 192 384 l 1,0,-1
EndSplineSet
EndChar

StartChar: uni257C
Encoding: 9596 9596 531
Width: 576
VWidth: 0
Flags: W
LayerCount: 2
Fore
SplineSet
0 384 m 1,0,-1
 576 384 l 1,1,-1
 576 192 l 1,2,-1
 192 192 l 1,3,-1
 192 288 l 1,4,-1
 192 288 l 1,5,-1
 0 288 l 1,6,-1
 0 384 l 1,0,-1
EndSplineSet
EndChar

StartChar: uni257D
Encoding: 9597 9597 532
Width: 576
VWidth: 0
Flags: W
LayerCount: 2
Fore
SplineSet
192 768 m 1,0,-1
 288 768 l 1,1,-1
 288 384 l 1,2,-1
 288 384 l 1,3,-1
 384 384 l 1,4,-1
 384 -192 l 1,5,-1
 192 -192 l 1,6,-1
 192 768 l 1,0,-1
EndSplineSet
EndChar

StartChar: uni257E
Encoding: 9598 9598 533
Width: 576
VWidth: 0
Flags: W
LayerCount: 2
Fore
SplineSet
0 384 m 1,0,-1
 576 384 l 1,1,-1
 576 288 l 1,2,-1
 288 288 l 1,3,-1
 288 288 l 1,4,-1
 288 192 l 1,5,-1
 0 192 l 1,6,-1
 0 384 l 1,0,-1
EndSplineSet
EndChar

StartChar: uni257F
Encoding: 9599 9599 534
Width: 576
VWidth: 0
Flags: W
LayerCount: 2
Fore
SplineSet
192 768 m 1,0,-1
 384 768 l 1,1,-1
 384 288 l 1,2,-1
 288 288 l 1,3,-1
 288 288 l 1,4,-1
 288 -192 l 1,5,-1
 192 -192 l 1,6,-1
 192 768 l 1,0,-1
EndSplineSet
EndChar

StartChar: block
Encoding: 9608 9608 535
Width: 576
VWidth: 0
Flags: W
LayerCount: 2
Fore
SplineSet
0 768 m 1,0,-1
 576 768 l 1,1,-1
 576 -192 l 1,2,-1
 0 -192 l 1,3,-1
 0 768 l 1,0,-1
EndSplineSet
EndChar

StartChar: ltshade
Encoding: 9617 9617 536
Width: 576
VWidth: 0
Flags: W
LayerCount: 2
Fore
SplineSet
0 -96 m 1,0,-1
 96 -96 l 1,1,-1
 96 -192 l 1,2,-1
 0 -192 l 1,3,-1
 0 -96 l 1,0,-1
288 -96 m 1,4,-1
 384 -96 l 1,5,-1
 384 -192 l 1,6,-1
 288 -192 l 1,7,-1
 288 -96 l 1,4,-1
288 -96 m 1,8,-1
 192 -96 l 1,9,-1
 192 0 l 1,10,-1
 288 0 l 1,11,-1
 288 -96 l 1,8,-1
192 0 m 1,12,-1
 96 0 l 1,13,-1
 96 96 l 1,14,-1
 192 96 l 1,15,-1
 192 0 l 1,12,-1
96 96 m 1,16,-1
 0 96 l 1,17,-1
 0 192 l 1,18,-1
 96 192 l 1,19,-1
 96 96 l 1,16,-1
480 0 m 1,20,-1
 576 0 l 1,21,-1
 576 -96 l 1,22,-1
 480 -96 l 1,23,-1
 480 0 l 1,20,-1
480 0 m 1,24,-1
 384 0 l 1,25,-1
 384 96 l 1,26,-1
 480 96 l 1,27,-1
 480 0 l 1,24,-1
384 96 m 1,28,-1
 288 96 l 1,29,-1
 288 192 l 1,30,-1
 384 192 l 1,31,-1
 384 96 l 1,28,-1
288 192 m 1,32,-1
 192 192 l 1,33,-1
 192 288 l 1,34,-1
 288 288 l 1,35,-1
 288 192 l 1,32,-1
192 288 m 1,36,-1
 96 288 l 1,37,-1
 96 384 l 1,38,-1
 192 384 l 1,39,-1
 192 288 l 1,36,-1
96 384 m 1,40,-1
 0 384 l 1,41,-1
 0 480 l 1,42,-1
 96 480 l 1,43,-1
 96 384 l 1,40,-1
480 576 m 1,44,-1
 576 576 l 1,45,-1
 576 480 l 1,46,-1
 480 480 l 1,47,-1
 480 576 l 1,44,-1
480 576 m 1,48,-1
 384 576 l 1,49,-1
 384 672 l 1,50,-1
 480 672 l 1,51,-1
 480 576 l 1,48,-1
384 672 m 1,52,-1
 288 672 l 1,53,-1
 288 768 l 1,54,-1
 384 768 l 1,55,-1
 384 672 l 1,52,-1
480 288 m 1,56,-1
 576 288 l 1,57,-1
 576 192 l 1,58,-1
 480 192 l 1,59,-1
 480 288 l 1,56,-1
480 288 m 1,60,-1
 384 288 l 1,61,-1
 384 384 l 1,62,-1
 480 384 l 1,63,-1
 480 288 l 1,60,-1
384 384 m 1,64,-1
 288 384 l 1,65,-1
 288 480 l 1,66,-1
 384 480 l 1,67,-1
 384 384 l 1,64,-1
288 480 m 1,68,-1
 192 480 l 1,69,-1
 192 576 l 1,70,-1
 288 576 l 1,71,-1
 288 480 l 1,68,-1
192 576 m 1,72,-1
 96 576 l 1,73,-1
 96 672 l 1,74,-1
 192 672 l 1,75,-1
 192 576 l 1,72,-1
96 672 m 1,76,-1
 0 672 l 1,77,-1
 0 768 l 1,78,-1
 96 768 l 1,79,-1
 96 672 l 1,76,-1
EndSplineSet
EndChar

StartChar: shade
Encoding: 9618 9618 537
Width: 576
VWidth: 0
Flags: W
LayerCount: 2
Fore
SplineSet
193 96 m 1,0,-1
 192 192 l 1,1,-1
 288 192 l 1,2,-1
 288 97 l 1,3,-1
 193 96 l 1,0,-1
97 192 m 1,4,-1
 96 288 l 1,5,-1
 192 288 l 1,6,-1
 192 193 l 1,7,-1
 97 192 l 1,4,-1
193 288 m 1,8,-1
 192 384 l 1,9,-1
 288 384 l 1,10,-1
 288 289 l 1,11,-1
 193 288 l 1,8,-1
97 384 m 1,12,-1
 96 480 l 1,13,-1
 192 480 l 1,14,-1
 192 385 l 1,15,-1
 97 384 l 1,12,-1
193 480 m 1,16,-1
 192 576 l 1,17,-1
 288 576 l 1,18,-1
 288 481 l 1,19,-1
 193 480 l 1,16,-1
97 0 m 1,20,-1
 96 96 l 1,21,-1
 192 96 l 1,22,-1
 192 1 l 1,23,-1
 192 576 l 1,24,-1
 97 576 l 1,25,-1
 96 672 l 1,26,-1
 191 672 l 1,27,-1
 97 0 l 1,20,-1
96 672 m 1,28,-1
 0 672 l 1,29,-1
 0 768 l 1,30,-1
 96 768 l 1,31,-1
 96 672 l 1,28,-1
96 576 m 1,32,-1
 96 480 l 1,33,-1
 0 480 l 1,34,-1
 0 576 l 1,35,-1
 96 576 l 1,32,-1
96 384 m 1,36,-1
 96 288 l 1,37,-1
 0 288 l 1,38,-1
 0 384 l 1,39,-1
 96 384 l 1,36,-1
96 192 m 1,40,-1
 96 96 l 1,41,-1
 0 96 l 1,42,-1
 0 192 l 1,43,-1
 96 192 l 1,40,-1
96 -96 m 1,44,-1
 0 -96 l 1,45,-1
 0 0 l 1,46,-1
 96 0 l 1,47,-1
 96 -96 l 1,44,-1
96 -96 m 1,48,-1
 192 -96 l 1,49,-1
 192 -192 l 1,50,-1
 96 -192 l 1,51,-1
 96 -96 l 1,48,-1
288 -96 m 1,52,-1
 192 -96 l 1,53,-1
 192 0 l 1,54,-1
 288 0 l 1,55,-1
 288 -96 l 1,52,-1
384 -96 m 1,56,-1
 384 -192 l 1,57,-1
 288 -192 l 1,58,-1
 288 -96 l 1,59,-1
 384 -96 l 1,56,-1
480 -96 m 1,60,-1
 384 -96 l 1,61,-1
 384 0 l 1,62,-1
 480 0 l 1,63,-1
 480 -96 l 1,60,-1
480 -96 m 1,64,-1
 576 -96 l 1,65,-1
 576 -192 l 1,66,-1
 480 -192 l 1,67,-1
 480 -96 l 1,64,-1
384 96 m 1,68,-1
 384 0 l 1,69,-1
 288 0 l 1,70,-1
 288 96 l 1,71,-1
 384 96 l 1,68,-1
480 96 m 1,72,-1
 384 96 l 1,73,-1
 384 192 l 1,74,-1
 480 192 l 1,75,-1
 480 96 l 1,72,-1
480 96 m 1,76,-1
 576 96 l 1,77,-1
 576 0 l 1,78,-1
 480 0 l 1,79,-1
 480 96 l 1,76,-1
384 288 m 1,80,-1
 384 192 l 1,81,-1
 288 192 l 1,82,-1
 288 288 l 1,83,-1
 384 288 l 1,80,-1
480 288 m 1,84,-1
 384 288 l 1,85,-1
 384 384 l 1,86,-1
 480 384 l 1,87,-1
 480 288 l 1,84,-1
480 288 m 1,88,-1
 576 288 l 1,89,-1
 576 192 l 1,90,-1
 480 192 l 1,91,-1
 480 288 l 1,88,-1
384 480 m 1,92,-1
 384 384 l 1,93,-1
 288 384 l 1,94,-1
 288 480 l 1,95,-1
 384 480 l 1,92,-1
480 480 m 1,96,-1
 384 480 l 1,97,-1
 384 576 l 1,98,-1
 480 576 l 1,99,-1
 480 480 l 1,96,-1
480 480 m 1,100,-1
 576 480 l 1,101,-1
 576 384 l 1,102,-1
 480 384 l 1,103,-1
 480 480 l 1,100,-1
288 672 m 1,104,-1
 192 672 l 1,105,-1
 192 768 l 1,106,-1
 288 768 l 1,107,-1
 288 672 l 1,104,-1
384 672 m 1,108,-1
 384 576 l 1,109,-1
 288 576 l 1,110,-1
 288 672 l 1,111,-1
 384 672 l 1,108,-1
480 672 m 1,112,-1
 384 672 l 1,113,-1
 384 768 l 1,114,-1
 480 768 l 1,115,-1
 480 672 l 1,112,-1
480 672 m 1,116,-1
 576 672 l 1,117,-1
 576 576 l 1,118,-1
 480 576 l 1,119,-1
 480 672 l 1,116,-1
EndSplineSet
EndChar

StartChar: filledbox
Encoding: 9632 9632 538
Width: 576
VWidth: 0
Flags: W
LayerCount: 2
Fore
SplineSet
0 288 m 1,0,-1
 576 288 l 1,1,-1
 576 -192 l 1,2,-1
 0 -192 l 1,3,-1
 0 288 l 1,0,-1
EndSplineSet
EndChar

StartChar: uni25B6
Encoding: 9654 9654 539
Width: 576
VWidth: 0
Flags: W
LayerCount: 2
Fore
SplineSet
96 672 m 1,0,-1
 192 672 l 1,1,-1
 192 576 l 1,2,-1
 192 576 l 1,3,-1
 288 576 l 1,4,-1
 288 480 l 1,5,-1
 288 480 l 1,6,-1
 384 480 l 1,7,-1
 384 384 l 1,8,-1
 384 384 l 1,9,-1
 480 384 l 1,10,-1
 480 288 l 1,11,-1
 384 288 l 1,12,-1
 384 288 l 1,13,-1
 384 192 l 1,14,-1
 288 192 l 1,15,-1
 288 192 l 1,16,-1
 288 96 l 1,17,-1
 192 96 l 1,18,-1
 192 96 l 1,19,-1
 192 0 l 1,20,-1
 96 0 l 1,21,-1
 96 672 l 1,0,-1
EndSplineSet
EndChar

StartChar: uni25C0
Encoding: 9664 9664 540
Width: 576
VWidth: 0
Flags: W
LayerCount: 2
Fore
SplineSet
384 672 m 1,0,-1
 480 672 l 1,1,-1
 480 0 l 1,2,-1
 384 0 l 1,3,-1
 384 96 l 1,4,-1
 384 96 l 1,5,-1
 288 96 l 1,6,-1
 288 192 l 1,7,-1
 288 192 l 1,8,-1
 192 192 l 1,9,-1
 192 288 l 1,10,-1
 192 288 l 1,11,-1
 96 288 l 1,12,-1
 96 384 l 1,13,-1
 192 384 l 1,14,-1
 192 384 l 1,15,-1
 192 480 l 1,16,-1
 288 480 l 1,17,-1
 288 480 l 1,18,-1
 288 576 l 1,19,-1
 384 576 l 1,20,-1
 384 576 l 1,21,-1
 384 672 l 1,0,-1
EndSplineSet
EndChar

StartChar: diamond
Encoding: 9830 9830 541
Width: 576
VWidth: 0
Flags: W
LayerCount: 2
Fore
SplineSet
96 576 m 1,0,-1
 192 576 l 1,1,-1
 192 576 l 1,2,-1
 192 672 l 1,3,-1
 288 672 l 1,4,-1
 288 576 l 1,5,-1
 288 576 l 1,6,-1
 384 576 l 1,7,-1
 384 480 l 1,8,-1
 384 480 l 1,9,-1
 480 480 l 1,10,-1
 480 192 l 1,11,-1
 384 192 l 1,12,-1
 384 192 l 1,13,-1
 384 96 l 1,14,-1
 288 96 l 1,15,-1
 288 96 l 1,16,-1
 288 0 l 1,17,-1
 192 0 l 1,18,-1
 192 96 l 1,19,-1
 192 96 l 1,20,-1
 96 96 l 1,21,-1
 96 192 l 1,22,-1
 96 192 l 1,23,-1
 0 192 l 1,24,-1
 0 480 l 1,25,-1
 96 480 l 1,26,-1
 96 480 l 1,27,-1
 96 576 l 1,0,-1
EndSplineSet
EndChar

StartChar: uni2714
Encoding: 10004 10004 542
Width: 576
VWidth: 0
Flags: W
LayerCount: 2
Fore
SplineSet
480 480 m 1,0,-1
 480 576 l 1,1,-1
 576 576 l 1,2,-1
 576 480 l 1,3,-1
 480 480 l 1,0,-1
480 480 m 1,4,-1
 480 288 l 1,5,-1
 384 288 l 1,6,-1
 384 480 l 1,7,-1
 480 480 l 1,4,-1
384 288 m 1,8,-1
 384 96 l 1,9,-1
 288 96 l 1,10,-1
 288 288 l 1,11,-1
 384 288 l 1,8,-1
288 96 m 1,12,-1
 288 0 l 1,13,-1
 192 0 l 1,14,-1
 192 96 l 1,15,-1
 288 96 l 1,12,-1
192 96 m 1,16,-1
 96 96 l 1,17,-1
 96 192 l 1,18,-1
 192 192 l 1,19,-1
 192 96 l 1,16,-1
EndSplineSet
EndChar

StartChar: uni271A
Encoding: 10010 10010 543
Width: 576
VWidth: 0
Flags: W
LayerCount: 2
Fore
SplineSet
0 384 m 1,0,-1
 192 384 l 1,1,-1
 192 384 l 1,2,-1
 192 576 l 1,3,-1
 384 576 l 1,4,-1
 384 384 l 1,5,-1
 384 384 l 1,6,-1
 576 384 l 1,7,-1
 576 192 l 1,8,-1
 384 192 l 1,9,-1
 384 192 l 1,10,-1
 384 0 l 1,11,-1
 192 0 l 1,12,-1
 192 192 l 1,13,-1
 192 192 l 1,14,-1
 0 192 l 1,15,-1
 0 384 l 1,0,-1
EndSplineSet
EndChar

StartChar: H18533
Encoding: 9679 9679 544
Width: 576
VWidth: 0
Flags: W
LayerCount: 2
Fore
SplineSet
96 576 m 1,0,-1
 384 576 l 1,1,-1
 384 480 l 1,2,-1
 384 480 l 1,3,-1
 480 480 l 1,4,-1
 480 192 l 1,5,-1
 384 192 l 1,6,-1
 384 192 l 1,7,-1
 384 96 l 1,8,-1
 96 96 l 1,9,-1
 96 192 l 1,10,-1
 96 192 l 1,11,-1
 0 192 l 1,12,-1
 0 480 l 1,13,-1
 96 480 l 1,14,-1
 96 480 l 1,15,-1
 96 576 l 1,0,-1
EndSplineSet
EndChar

